SplineFontDB: 3.2
FontName: sachacHand-Bold
FullName: sachacHand Bold
FamilyName: sachacHand
Weight: Regular

StartChar: H
Encoding: 72 72 0
Width: 473
VWidth: 0
Flags: HW
LayerCount: 2
Back
Fore
SplineSet
345.37890625 380 m 1
 342.37890625 396 345.37890625 414 345.37890625 430 c 0
 345.37890625 467 346.37890625 505 343.37890625 542 c 0
 342.37890625 555 342.37890625 569 339.37890625 582 c 0
 336.37890625 596 328.37890625 607 331.37890625 622 c 0
 339.37890625 663 390.37890625 668 415.37890625 640 c 0
 425.37890625 628 428.37890625 611 430.37890625 596 c 0
 435.37890625 562 438.37890625 528 439.37890625 494 c 0
 442.37890625 379 440.37890625 263 447.37890625 148 c 0
 449.37890625 117 452.37890625 85 457.37890625 54 c 0
 460.37890625 36 466.37890625 20 459.37890625 2 c 0
 440.37890625 -45 383.37890625 -24 370.37890625 14 c 0
 351.37890625 68 350.37890625 133 345.37890625 190 c 0
 343.37890625 218 338.37890625 252 343.37890625 280 c 1
 341.37890625 282 l 1
 298.37890625 274 252.37890625 279 209.37890625 279 c 0
 195.37890625 279 171.37890625 286 161.37890625 273 c 0
 153.37890625 262 157.37890625 226 157.37890625 212 c 0
 157.37890625 161 152.37890625 111 151.37890625 60 c 0
 151.37890625 27 147.37890625 -15 103.37890625 -14 c 0
 84.37890625 -14 66.37890625 0 61.37890625 18 c 0
 50.37890625 57 57.37890625 106 57.37890625 146 c 0
 57.37890625 242 64.37890625 340 59.37890625 436 c 0
 57.37890625 474 58.37890625 512 55.37890625 550 c 0
 53.37890625 574 46.37890625 589 52.37890625 614 c 0
 61.37890625 654 115.37890625 662 136.37890625 628 c 0
 158.37890625 594 148.37890625 537 152.37890625 498 c 0
 156.37890625 456 157.37890625 414 157.37890625 372 c 1
 271.37890625 378 l 1
 345.37890625 380 l 1
EndSplineSet
EndChar

StartChar: e
Encoding: 101 101 1
Width: 432
VWidth: 0
Flags: HW
LayerCount: 2
Back
Fore
SplineSet
130.434570312 136 m 1
 140.434570312 100 167.434570312 96 201.434570312 94 c 0
 253.434570312 91 304.434570312 95 356.434570312 98 c 0
 388.434570312 100 415.434570312 73 406.434570312 40 c 0
 395.434570312 0 336.434570312 1 302.434570312 0 c 0
 216.434570312 -3 93.4345703125 -20 47.4345703125 74 c 0
 27.4345703125 115 26.4345703125 171 35.4345703125 214 c 0
 44.4345703125 255 53.4345703125 295 78.4345703125 330 c 0
 155.434570312 437 326.434570312 402 391.434570312 298 c 0
 428.434570312 239 417.434570312 160 342.434570312 143 c 0
 315.434570312 137 288.434570312 136 260.434570312 136 c 0
 218.434570312 136 172.434570312 131 130.434570312 136 c 1
140.434570312 228 m 1
 246.434570312 231 l 1
 312.434570312 236 l 1
 295.434570312 275 221.434570312 312 180.434570312 291 c 0
 157.434570312 280 146.434570312 251 140.434570312 228 c 1
EndSplineSet
EndChar

StartChar: q
Encoding: 113 113 2
Width: 378
VWidth: 0
Flags: HW
LayerCount: 2
Back
Fore
SplineSet
239.229492188 16 m 1
 148.229492188 -36 38.2294921875 23 22.2294921875 123 c 0
 6.2294921875 225 78.2294921875 335 177.229492188 363 c 0
 247.229492188 383 326.229492188 354 344.229492188 278 c 0
 352.229492188 245 345.229492188 213 343.229492188 180 c 0
 339.229492188 122 338.229492188 64 333.229492188 6 c 0
 330.229492188 -27 329.229492188 -61 329.229492188 -94 c 0
 329.229492188 -116 329.229492188 -140 307.229492188 -153 c 0
 283.229492188 -168 248.229492188 -156 240.229492188 -128 c 0
 227.229492188 -85 238.229492188 -28 239.229492188 16 c 1
213.229492188 275 m 0
 166.229492188 267 127.229492188 218 119.229492188 172 c 0
 113.229492188 133 130.229492188 91 176.229492188 99 c 0
 230.229492188 108 241.229492188 177 246.229492188 221 c 0
 247.229492188 233 255.229492188 253 251.229492188 264 c 0
 245.229492188 278 225.229492188 277 213.229492188 275 c 0
EndSplineSet
EndChar

StartChar: A
Encoding: 65 65 3
Width: 548
VWidth: 0
Flags: HW
LayerCount: 2
Back
Fore
SplineSet
441.161132812 110 m 1
 376.161132812 4 230.161132812 -99 109.161132812 -8 c 0
 92.1611328125 5 77.1611328125 20 66.1611328125 38 c 0
 9.1611328125 134 28.1611328125 266 64.1611328125 366 c 0
 99.1611328125 464 162.161132812 558 257.161132812 605 c 0
 334.161132812 644 437.161132812 629 483.161132812 550 c 0
 506.161132812 510 505.161132812 472 511.161132812 428 c 0
 513.161132812 414 524.161132812 404 525.161132812 390 c 0
 528.161132812 351 514.161132812 316 511.161132812 278 c 0
 509.161132812 243 518.161132812 203 524.161132812 169 c 0
 529.161132812 144 535.161132812 113 551.161132812 92 c 0
 569.161132812 68 602.161132812 69 597.161132812 30 c 0
 592.161132812 -12 547.161132812 -13 517.161132812 2 c 0
 473.161132812 24 457.161132812 67 441.161132812 110 c 1
332.161132812 531 m 0
 290.161132812 524 253.161132812 492 227.161132812 460 c 0
 170.161132812 391 136.161132812 296 131.161132812 207 c 0
 128.161132812 146 139.161132812 46 225.161132812 58 c 0
 299.161132812 69 343.161132812 135 375.161132812 196 c 0
 387.161132812 220 400.161132812 246 406.161132812 272 c 0
 409.161132812 285 398.161132812 297 399.161132812 310 c 0
 401.161132812 335 414.161132812 361 417.161132812 386 c 0
 425.161132812 444 416.161132812 546 332.161132812 531 c 0
441.161132812 112 m 1
 443.161132812 110 l 1
 441.161132812 112 l 1
EndSplineSet
EndChar

StartChar: M
Encoding: 77 77 4
Width: 682
VWidth: 0
Flags: HW
LayerCount: 2
Back
Fore
SplineSet
344.384765625 390 m 1
 367.384765625 439 398.384765625 485 422.384765625 534 c 0
 434.384765625 558 449.384765625 580 461.384765625 604 c 0
 471.384765625 624 480.384765625 649 498.384765625 664 c 0
 530.384765625 691 572.384765625 673 589.384765625 638 c 0
 613.384765625 589 603.384765625 519 606.384765625 466 c 0
 612.384765625 362 625.384765625 257 635.384765625 153 c 0
 639.384765625 108 650.384765625 62 652.384765625 18 c 0
 653.384765625 -1 647.384765625 -18 630.384765625 -28 c 0
 592.384765625 -50 566.384765625 -14 559.384765625 19 c 0
 543.384765625 102 539.384765625 186 527.384765625 269 c 0
 517.384765625 338 513.384765625 407 506.384765625 476 c 1
 475.384765625 425 449.384765625 372 417.384765625 322 c 0
 405.384765625 303 395.384765625 277 374.384765625 267 c 0
 345.384765625 253 314.384765625 270 294.384765625 292 c 0
 272.384765625 315 256.384765625 346 238.384765625 372 c 0
 211.384765625 411 178.384765625 453 158.384765625 496 c 1
 156.384765625 496 l 1
 156.384765625 424 161.384765625 349 167.384765625 277 c 0
 171.384765625 231 170.384765625 186 170.384765625 140 c 2
 170.384765625 40 l 2
 170.384765625 24 174.384765625 7 167.384765625 -8 c 0
 152.384765625 -42 100.384765625 -43 84.384765625 -10 c 0
 76.384765625 7 77.384765625 30 76.384765625 48 c 0
 75.384765625 80 74.384765625 112 72.384765625 144 c 0
 65.384765625 263 62.384765625 383 61.384765625 503 c 0
 61.384765625 533 61.384765625 562 60.384765625 592 c 0
 59.384765625 618 58.384765625 644 84.384765625 660 c 0
 105.384765625 673 123.384765625 661 142.384765625 653 c 0
 192.384765625 631 223.384765625 566 252.384765625 522 c 0
 281.384765625 479 319.384765625 436 342.384765625 390 c 1
 344.384765625 390 l 1
154.384765625 498 m 1
 156.384765625 496 l 1
 154.384765625 498 l 1
EndSplineSet
EndChar

StartChar: Y
Encoding: 89 89 5
Width: 442
VWidth: 0
Flags: HW
LayerCount: 2
Back
Fore
SplineSet
330.688476562 406 m 1
 319.688476562 376 290.688476562 351 266.688476562 332 c 0
 251.688476562 320 234.688476562 309 216.688476562 302 c 0
 157.688476562 279 101.688476562 302 74.6884765625 360 c 0
 43.6884765625 426 37.6884765625 503 40.6884765625 575 c 0
 42.6884765625 612 39.6884765625 688 98.6884765625 676 c 0
 117.688476562 672 132.688476562 657 135.688476562 637 c 0
 138.688476562 617 133.688476562 594 132.688476562 574 c 0
 130.688476562 536 132.688476562 497 141.688476562 460 c 0
 146.688476562 441 150.688476562 421 159.688476562 404 c 0
 163.688476562 397 167.688476562 388 176.688476562 391 c 0
 200.688476562 398 221.688476562 421 235.688476562 440 c 0
 271.688476562 487 294.688476562 548 313.688476562 604 c 0
 319.688476562 621 319.688476562 642 328.688476562 658 c 0
 347.688476562 691 397.688476562 690 415.688476562 656 c 0
 425.688476562 637 420.688476562 614 418.688476562 594 c 0
 416.688476562 566 417.688476562 538 420.688476562 510 c 0
 429.688476562 412 442.688476562 316 441.688476562 217 c 0
 440.688476562 162 435.688476562 102 406.688476562 54 c 0
 351.688476562 -36 227.688476562 -21 142.688476562 9 c 0
 116.688476562 18 71.6884765625 31 56.6884765625 56 c 0
 38.6884765625 86 60.6884765625 127 96.6884765625 126 c 0
 118.688476562 125 140.688476562 110 160.688476562 102 c 0
 202.688476562 86 255.688476562 71 300.688476562 86 c 0
 329.688476562 95 337.688476562 136 340.688476562 162 c 0
 346.688476562 215 343.688476562 268 339.688476562 321 c 0
 337.688476562 348 338.688476562 380 330.688476562 406 c 1
EndSplineSet
EndChar

StartChar: eight
Encoding: 56 56 6
Width: 415
VWidth: 0
Flags: HW
LayerCount: 2
Back
Fore
SplineSet
310.744140625 628 m 1
 339.744140625 662 391.744140625 622 383.744140625 584 c 0
 380.744140625 571 372.744140625 559 370.744140625 546 c 0
 367.744140625 529 375.744140625 516 363.744140625 500 c 0
 353.744140625 486 338.744140625 487 327.744140625 477 c 0
 303.744140625 454 286.744140625 415 270.744140625 386 c 0
 265.744140625 377 253.744140625 362 255.744140625 352 c 0
 259.744140625 330 286.744140625 303 298.744140625 284 c 0
 333.744140625 226 368.744140625 155 347.744140625 86 c 0
 323.744140625 6 243.744140625 -19 167.744140625 -7 c 0
 125.744140625 0 86.744140625 18 67.744140625 58 c 0
 34.744140625 129 79.744140625 211 108.744140625 276 c 0
 115.744140625 293 131.744140625 315 133.744140625 333 c 0
 134.744140625 346 100.744140625 371 92.744140625 380 c 0
 63.744140625 410 42.744140625 447 33.744140625 488 c 0
 29.744140625 506 28.744140625 526 31.744140625 544 c 0
 36.744140625 580 54.744140625 620 84.744140625 642 c 0
 145.744140625 687 253.744140625 671 310.744140625 628 c 1
184.744140625 428 m 1
 262.744140625 550 l 1
 236.744140625 568 170.744140625 591 141.744140625 565 c 0
 99.744140625 526 148.744140625 450 184.744140625 428 c 1
202.744140625 248 m 1
 188.744140625 214 172.744140625 181 161.744140625 146 c 0
 157.744140625 134 151.744140625 116 156.744140625 104 c 0
 160.744140625 95 171.744140625 93 180.744140625 91 c 0
 201.744140625 87 235.744140625 84 247.744140625 106 c 0
 266.744140625 140 238.744140625 187 222.744140625 216 c 0
 216.744140625 227 211.744140625 239 202.744140625 248 c 1
EndSplineSet
EndChar

StartChar: quotesingle
Encoding: 39 39 7
Width: 165
VWidth: 0
Flags: HW
LayerCount: 2
Back
Fore
SplineSet
74.013671875 665 m 0
 101.013671875 669 121.013671875 646 127.013671875 622 c 0
 139.013671875 576 145.013671875 464 79.013671875 458 c 0
 7.013671875 451 35.013671875 544 37.013671875 584 c 0
 38.013671875 602 30.013671875 619 37.013671875 636 c 0
 43.013671875 652 57.013671875 663 74.013671875 665 c 0
EndSplineSet
EndChar

StartChar: numbersign
Encoding: 35 35 8
Width: 570
VWidth: 0
Flags: HW
LayerCount: 2
Back
Fore
SplineSet
174.114257812 384 m 1
 153.114257812 378 130.114257812 379 109.114257812 374 c 0
 92.1142578125 370 80.1142578125 362 62.1142578125 367 c 0
 27.1142578125 377 19.1142578125 422 46.1142578125 445 c 0
 69.1142578125 465 105.114257812 468 134.114257812 473 c 0
 143.114257812 475 165.114257812 474 172.114257812 481 c 0
 177.114257812 486 174.114257812 501 173.114257812 507 c 0
 170.114257812 527 162.114257812 551 173.114257812 570 c 0
 189.114257812 598 231.114257812 600 250.114257812 574 c 0
 265.114257812 552 266.114257812 516 268.114257812 490 c 1
 312.114257812 494 l 1
 311.114257812 516 306.114257812 543 316.114257812 564 c 0
 331.114257812 594 375.114257812 596 394.114257812 570 c 0
 409.114257812 550 400.114257812 519 406.114257812 496 c 1
 435.114257812 502 490.114257812 500 516.114257812 484 c 0
 544.114257812 467 543.114257812 425 518.114257812 407 c 0
 502.114257812 396 488.114257812 400 470.114257812 400 c 0
 451.114257812 400 431.114257812 398 412.114257812 398 c 1
 420.114257812 370 421.114257812 322 416.114257812 294 c 1
 447.114257812 293 497.114257812 301 522.114257812 281 c 0
 547.114257812 261 545.114257812 223 518.114257812 206 c 0
 496.114257812 192 443.114257812 191 418.114257812 196 c 1
 418.114257812 180 417.114257812 165 417.114257812 149 c 0
 417.114257812 133 415.114257812 118 404.114257812 106 c 0
 383.114257812 85 345.114257812 90 331.114257812 116 c 0
 323.114257812 130 323.114257812 148 322.114257812 164 c 0
 322.114257812 170 323.114257812 183 318.114257812 187 c 0
 310.114257812 194 285.114257812 188 276.114257812 186 c 1
 282.114257812 167 291.114257812 136 286.114257812 116 c 0
 277.114257812 83 237.114257812 71 211.114257812 93 c 0
 190.114257812 111 187.114257812 150 180.114257812 176 c 1
 152.114257812 168 100.114257812 156 72.1142578125 165 c 0
 41.1142578125 175 31.1142578125 217 54.1142578125 240 c 0
 66.1142578125 252 82.1142578125 253 98.1142578125 256 c 0
 123.114257812 261 149.114257812 264 174.114257812 272 c 1
 174.114257812 318 l 1
 176.114257812 382 l 1
 174.114257812 384 l 1
272.114257812 392 m 1
 272.114257812 288 l 1
 274.114257812 286 l 1
 318.114257812 290 l 1
 316.114257812 394 l 1
 272.114257812 392 l 1
EndSplineSet
EndChar

StartChar: less
Encoding: 60 60 9
Width: 420
VWidth: 0
Flags: HW
LayerCount: 2
Back
Fore
SplineSet
159.712890625 334 m 1
 219.712890625 316 275.712890625 257 321.712890625 217 c 0
 338.712890625 202 362.712890625 192 377.712890625 176 c 0
 396.712890625 156 392.712890625 122 369.712890625 107 c 0
 344.712890625 91 311.712890625 105 289.712890625 120 c 0
 241.712890625 154 198.712890625 195 147.712890625 226 c 0
 132.712890625 235 116.712890625 246 99.712890625 253 c 0
 82.712890625 260 63.712890625 263 49.712890625 275 c 0
 29.712890625 292 24.712890625 318 35.712890625 342 c 0
 50.712890625 374 83.712890625 399 107.712890625 424 c 0
 149.712890625 469 188.712890625 517 231.712890625 560 c 0
 253.712890625 582 288.712890625 609 317.712890625 580 c 0
 333.712890625 564 334.712890625 536 320.712890625 518 c 0
 302.712890625 495 279.712890625 475 260.712890625 452 c 0
 227.712890625 413 195.712890625 371 159.712890625 334 c 1
EndSplineSet
EndChar

StartChar: O
Encoding: 79 79 10
Width: 523
VWidth: 0
Flags: HW
LayerCount: 2
Back
Fore
SplineSet
232.098632812 691 m 0
 335.098632812 707 423.098632812 629 462.098632812 540 c 0
 519.098632812 409 539.098632812 261 462.098632812 134 c 0
 432.098632812 84 379.098632812 35 318.098632812 25 c 0
 287.098632812 20 253.098632812 25 223.098632812 33 c 0
 2.0986328125 95 8.0986328125 389 100.098632812 552 c 0
 109.098632812 568 126.098632812 585 132.098632812 602 c 0
 138.098632812 618 128.098632812 632 140.098632812 648 c 0
 159.098632812 674 202.098632812 686 232.098632812 691 c 0
253.098632812 598 m 1
 248.098632812 569 217.098632812 561 201.098632812 540 c 0
 173.098632812 502 153.098632812 454 143.098632812 408 c 0
 134.098632812 364 133.098632812 320 139.098632812 276 c 0
 144.098632812 238 158.098632812 195 185.098632812 166 c 0
 230.098632812 118 311.098632812 106 357.098632812 158 c 0
 437.098632812 248 423.098632812 380 381.098632812 484 c 0
 358.098632812 541 321.098632812 597 253.098632812 598 c 1
EndSplineSet
EndChar

StartChar: b
Encoding: 98 98 11
Width: 457
VWidth: 0
Flags: HW
LayerCount: 2
Back
Fore
SplineSet
134.16796875 382 m 1
 207.16796875 428 324.16796875 391 375.16796875 326 c 0
 431.16796875 255 433.16796875 127 368.16796875 62 c 0
 301.16796875 -5 207.16796875 -9 120.16796875 13 c 0
 93.16796875 20 51.16796875 27 36.16796875 52 c 0
 19.16796875 80 42.16796875 92 47.16796875 116 c 0
 51.16796875 136 48.16796875 167 46.16796875 188 c 0
 38.16796875 300 44.16796875 414 36.16796875 526 c 0
 34.16796875 557 34.16796875 589 32.16796875 620 c 0
 31.16796875 639 27.16796875 661 36.16796875 678 c 0
 53.16796875 710 101.16796875 709 117.16796875 676 c 0
 125.16796875 660 121.16796875 640 122.16796875 622 c 0
 123.16796875 588 127.16796875 554 128.16796875 520 c 0
 129.16796875 474 134.16796875 428 134.16796875 382 c 1
148.16796875 102 m 1
 174.16796875 97 200.16796875 91 227.16796875 94 c 0
 245.16796875 96 264.16796875 104 280.16796875 114 c 0
 328.16796875 144 335.16796875 239 286.16796875 274 c 0
 243.16796875 304 174.16796875 323 157.16796875 256 c 0
 152.16796875 238 147.16796875 218 146.16796875 199 c 0
 144.16796875 167 147.16796875 134 148.16796875 102 c 1
EndSplineSet
EndChar

StartChar: r
Encoding: 114 114 12
Width: 428
VWidth: 0
Flags: HW
LayerCount: 2
Back
Fore
SplineSet
125.421875 318 m 1
 177.421875 362 264.421875 392 331.421875 369 c 0
 364.421875 357 410.421875 332 395.421875 290 c 0
 393.421875 284 389.421875 279 385.421875 274 c 0
 351.421875 240 324.421875 281 289.421875 283 c 0
 252.421875 285 204.421875 258 179.421875 232 c 0
 154.421875 207 135.421875 164 134.421875 128 c 0
 133.421875 94 151.421875 52 117.421875 28 c 0
 84.421875 4 43.421875 30 34.421875 65 c 0
 25.421875 97 35.421875 130 37.421875 162 c 0
 40.421875 209 35.421875 258 33.421875 305 c 0
 32.421875 331 23.421875 369 39.421875 392 c 0
 58.421875 419 100.421875 416 116.421875 388 c 0
 127.421875 370 124.421875 339 125.421875 318 c 1
EndSplineSet
EndChar

StartChar: B
Encoding: 66 66 13
Width: 514
VWidth: 0
Flags: HW
LayerCount: 2
Back
Fore
SplineSet
395.50390625 376 m 1
 423.50390625 370 452.50390625 360 473.50390625 340 c 0
 522.50390625 292 523.50390625 203 494.50390625 144 c 0
 461.50390625 77 386.50390625 27 315.50390625 8 c 0
 277.50390625 -2 238.50390625 -6 199.50390625 -4 c 0
 185.50390625 -3 170.50390625 2 156.50390625 2 c 0
 132.50390625 2 116.50390625 -15 94.50390625 5 c 0
 69.50390625 27 71.50390625 79 69.50390625 110 c 0
 63.50390625 205 67.50390625 299 67.50390625 394 c 0
 67.50390625 452 74.50390625 511 68.50390625 568 c 0
 65.50390625 597 46.50390625 627 77.50390625 650 c 0
 87.50390625 658 100.50390625 662 113.50390625 659 c 0
 120.50390625 658 128.50390625 651 135.50390625 653 c 0
 152.50390625 658 168.50390625 670 185.50390625 675 c 0
 242.50390625 692 309.50390625 696 365.50390625 675 c 0
 382.50390625 669 396.50390625 659 409.50390625 647 c 0
 491.50390625 573 467.50390625 448 395.50390625 376 c 1
165.50390625 362 m 1
 188.50390625 369 213.50390625 372 235.50390625 380 c 0
 248.50390625 385 261.50390625 394 273.50390625 402 c 0
 318.50390625 432 390.50390625 497 358.50390625 560 c 0
 347.50390625 581 328.50390625 588 307.50390625 592 c 0
 262.50390625 601 188.50390625 597 163.50390625 552 c 0
 156.50390625 540 163.50390625 515 163.50390625 502 c 0
 163.50390625 455 165.50390625 409 165.50390625 362 c 1
167.50390625 262 m 1
 165.50390625 218 l 1
 165.50390625 96 l 1
 234.50390625 67 336.50390625 106 385.50390625 156 c 0
 406.50390625 178 434.50390625 240 405.50390625 267 c 0
 392.50390625 279 368.50390625 280 352.50390625 282 c 0
 325.50390625 285 291.50390625 289 264.50390625 283 c 0
 232.50390625 276 202.50390625 255 167.50390625 262 c 1
EndSplineSet
EndChar

StartChar: N
Encoding: 78 78 14
Width: 528
VWidth: 0
Flags: HW
LayerCount: 2
Back
Fore
SplineSet
159.301757812 448 m 1
 153.301757812 382 161.301757812 313 161.301757812 246 c 0
 161.301757812 206 159.301757812 166 161.301757812 126 c 0
 162.301757812 100 163.301757812 74 163.301757812 48 c 0
 163.301757812 35 165.301757812 22 159.301757812 10 c 0
 142.301757812 -23 91.3017578125 -23 76.3017578125 12 c 0
 59.3017578125 52 65.3017578125 109 63.3017578125 152 c 0
 56.3017578125 273 62.3017578125 394 64.3017578125 515 c 0
 65.3017578125 550 59.3017578125 598 70.3017578125 632 c 0
 75.3017578125 649 87.3017578125 664 105.301757812 667 c 0
 145.301757812 674 151.301757812 646 164.301757812 618 c 0
 172.301757812 602 184.301757812 587 193.301757812 572 c 0
 261.301757812 462 333.301757812 354 401.301757812 244 c 1
 406.301757812 304 403.301757812 366 407.301757812 427 c 0
 410.301757812 479 418.301757812 532 423.301757812 584 c 0
 425.301757812 602 414.301757812 618 421.301757812 636 c 0
 436.301757812 676 490.301757812 672 507.301757812 636 c 0
 528.301757812 590 511.301757812 525 507.301757812 476 c 0
 499.301757812 382 501.301757812 288 501.301757812 194 c 0
 501.301757812 151 514.301757812 98 504.301757812 56 c 0
 500.301757812 37 483.301757812 21 465.301757812 16 c 0
 429.301757812 6 406.301757812 35 389.301757812 62 c 0
 345.301757812 129 311.301757812 202 268.301757812 270 c 0
 244.301757812 309 219.301757812 347 196.301757812 386 c 0
 184.301757812 406 169.301757812 426 161.301757812 448 c 1
 159.301757812 448 l 1
157.301757812 450 m 1
 159.301757812 448 l 1
 157.301757812 450 l 1
401.301757812 242 m 1
 403.301757812 240 l 1
 401.301757812 242 l 1
EndSplineSet
EndChar

StartChar: Z
Encoding: 90 90 15
Width: 459
VWidth: 0
Flags: HW
LayerCount: 2
Back
Fore
SplineSet
305.762695312 604 m 1
 263.762695312 607 219.762695312 598 177.762695312 596 c 0
 154.762695312 595 130.762695312 592 107.762695312 590 c 0
 89.7626953125 588 70.7626953125 582 53.7626953125 591 c 0
 24.7626953125 606 21.7626953125 649 47.7626953125 668 c 0
 68.7626953125 684 104.762695312 681 129.762695312 684 c 0
 192.762695312 691 257.762695312 700 321.762695312 700 c 0
 352.762695312 700 384.762695312 695 402.762695312 666 c 0
 430.762695312 620 387.762695312 545 369.762695312 502 c 0
 309.762695312 360 251.762695312 211 173.762695312 78 c 1
 175.762695312 76 l 1
 198.762695312 84 225.762695312 84 249.762695312 86 c 0
 307.762695312 91 366.762695312 90 424.762695312 86 c 0
 454.762695312 84 476.762695312 53 465.762695312 24 c 0
 451.762695312 -15 404.762695312 -5 372.762695312 -5 c 0
 341.762695312 -5 310.762695312 -3 279.762695312 -6 c 0
 226.762695312 -12 174.762695312 -25 121.762695312 -28 c 0
 91.7626953125 -30 55.7626953125 -24 45.7626953125 10 c 0
 38.7626953125 34 51.7626953125 52 61.7626953125 72 c 0
 78.7626953125 105 92.7626953125 140 109.762695312 174 c 0
 157.762695312 271 201.762695312 369 246.762695312 468 c 0
 266.762695312 513 282.762695312 561 305.762695312 604 c 1
EndSplineSet
EndChar

StartChar: nine
Encoding: 57 57 16
Width: 494
VWidth: 0
Flags: HW
LayerCount: 2
Back
Fore
SplineSet
347.984375 380 m 1
 266.984375 302 145.984375 276 62.984375 365 c 0
 46.984375 382 37.984375 404 31.984375 426 c 0
 24.984375 455 37.984375 488 47.984375 514 c 0
 73.984375 581 105.984375 651 167.984375 691 c 0
 235.984375 735 324.984375 734 385.984375 677 c 0
 405.984375 659 412.984375 635 427.984375 614 c 0
 437.984375 599 455.984375 597 460.984375 577 c 0
 470.984375 540 450.984375 490 447.984375 452 c 0
 441.984375 374 446.984375 294 446.984375 216 c 0
 446.984375 167 444.984375 119 443.984375 70 c 0
 443.984375 49 447.984375 20 433.984375 2 c 0
 412.984375 -26 364.984375 -20 353.984375 14 c 0
 347.984375 33 351.984375 58 351.984375 78 c 2
 351.984375 208 l 2
 351.984375 265 347.984375 323 347.984375 380 c 1
262.984375 629 m 0
 192.984375 618 163.984375 544 141.984375 486 c 0
 136.984375 473 127.984375 456 130.984375 442 c 0
 134.984375 417 170.984375 404 192.984375 407 c 0
 259.984375 416 326.984375 485 347.984375 548 c 0
 361.984375 592 300.984375 635 262.984375 629 c 0
EndSplineSet
EndChar

StartChar: quoteright
Encoding: 8217 8217 17
Width: 189
VWidth: 0
Flags: HW
LayerCount: 2
Back
Fore
SplineSet
85.4765625 651 m 0
 122.4765625 659 147.4765625 626 154.4765625 594 c 0
 164.4765625 550 156.4765625 497 131.4765625 460 c 0
 120.4765625 443 105.4765625 426 84.4765625 423 c 0
 76.4765625 422 67.4765625 421 60.4765625 424 c 0
 -5.5234375 447 55.4765625 516 60.4765625 556 c 0
 63.4765625 578 45.4765625 594 50.4765625 616 c 0
 54.4765625 634 67.4765625 647 85.4765625 651 c 0
EndSplineSet
EndChar

StartChar: dollar
Encoding: 36 36 18
Width: 448
VWidth: 0
Flags: HW
LayerCount: 2
Back
Fore
SplineSet
189.877929688 586 m 1
 191.877929688 609 194.877929688 642 215.877929688 656 c 0
 253.877929688 681 296.877929688 644 285.877929688 602 c 1
 318.877929688 602 356.877929688 601 383.877929688 579 c 0
 410.877929688 556 422.877929688 504 385.877929688 485 c 0
 368.877929688 476 347.877929688 479 333.877929688 491 c 0
 328.877929688 496 324.877929688 503 318.877929688 507 c 0
 307.877929688 514 289.877929688 509 277.877929688 508 c 1
 280.877929688 483 267.877929688 440 279.877929688 418 c 0
 286.877929688 406 308.877929688 397 319.877929688 389 c 0
 340.877929688 373 360.877929688 352 375.877929688 330 c 0
 422.877929688 258 450.877929688 124 349.877929688 81 c 0
 337.877929688 76 323.877929688 72 310.877929688 71 c 0
 294.877929688 70 275.877929688 70 259.877929688 74 c 1
 259.877929688 60 258.877929688 44 250.877929688 32 c 0
 234.877929688 8 199.877929688 6 179.877929688 26 c 0
 157.877929688 49 179.877929688 83 163.877929688 106 c 0
 155.877929688 117 134.877929688 124 123.877929688 132 c 0
 94.8779296875 151 52.8779296875 179 35.8779296875 210 c 0
 16.8779296875 243 46.8779296875 283 83.8779296875 277 c 0
 114.877929688 272 145.877929688 235 169.877929688 216 c 1
 177.877929688 356 l 1
 133.877929688 373 73.8779296875 402 55.8779296875 448 c 0
 31.8779296875 508 91.8779296875 551 139.877929688 571 c 0
 154.877929688 577 173.877929688 587 189.877929688 586 c 1
181.877929688 486 m 1
 161.877929688 476 l 1
 181.877929688 464 l 1
 181.877929688 486 l 1
273.877929688 294 m 1
 267.877929688 170 l 1
 280.877929688 169 300.877929688 163 311.877929688 173 c 0
 321.877929688 181 320.877929688 197 318.877929688 208 c 0
 314.877929688 236 299.877929688 279 273.877929688 294 c 1
EndSplineSet
EndChar

StartChar: greater
Encoding: 62 62 19
Width: 404
VWidth: 0
Flags: HW
LayerCount: 2
Back
Fore
SplineSet
239.275390625 394 m 1
 177.275390625 420 110.275390625 454 57.275390625 495 c 0
 33.275390625 514 16.275390625 549 45.275390625 573 c 0
 80.275390625 603 117.275390625 564 147.275390625 547 c 0
 208.275390625 512 277.275390625 493 335.275390625 453 c 0
 364.275390625 433 385.275390625 401 368.275390625 366 c 0
 359.275390625 348 342.275390625 345 327.275390625 335 c 0
 315.275390625 327 304.275390625 316 293.275390625 306 c 0
 240.275390625 258 200.275390625 193 141.275390625 152 c 0
 114.275390625 133 70.275390625 120 53.275390625 160 c 0
 37.275390625 198 72.275390625 213 95.275390625 236 c 0
 145.275390625 286 189.275390625 344 239.275390625 394 c 1
EndSplineSet
EndChar

StartChar: n
Encoding: 110 110 20
Width: 460
VWidth: 0
Flags: HW
LayerCount: 2
Back
Fore
SplineSet
133.459960938 330 m 1
 196.459960938 385 331.459960938 425 389.459960938 342 c 0
 431.459960938 283 432.459960938 185 429.459960938 115 c 0
 427.459960938 81 425.459960938 47 420.459960938 13 c 0
 418.459960938 -3 417.459960938 -21 405.459960938 -33 c 0
 379.459960938 -59 330.459960938 -44 327.459960938 -6 c 0
 325.459960938 22 332.459960938 50 333.459960938 78 c 0
 335.459960938 124 332.459960938 169 327.459960938 214 c 0
 325.459960938 232 323.459960938 282 301.459960938 287 c 0
 279.459960938 292 257.459960938 286 237.459960938 276 c 0
 156.459960938 236 148.459960938 133 137.459960938 54 c 0
 134.459960938 31 134.459960938 3 124.459960938 -18 c 0
 107.459960938 -52 54.4599609375 -52 37.4599609375 -18 c 0
 23.4599609375 9 33.4599609375 53 33.4599609375 82 c 2
 33.4599609375 182 l 2
 33.4599609375 231 38.4599609375 280 44.4599609375 328 c 0
 51.4599609375 378 125.459960938 381 133.459960938 330 c 1
EndSplineSet
EndChar

StartChar: h
Encoding: 104 104 21
Width: 412
VWidth: 0
Flags: HW
LayerCount: 2
Back
Fore
SplineSet
135.288085938 336 m 1
 187.288085938 397 279.288085938 385 328.288085938 328 c 0
 388.288085938 258 384.288085938 148 379.288085938 62 c 0
 377.288085938 34 382.288085938 -8 361.288085938 -30 c 0
 335.288085938 -58 287.288085938 -42 282.288085938 -5 c 0
 279.288085938 16 286.288085938 41 287.288085938 62 c 0
 289.288085938 108 288.288085938 158 279.288085938 204 c 0
 274.288085938 230 264.288085938 268 235.288085938 277 c 0
 206.288085938 286 179.288085938 230 168.288085938 210 c 0
 140.288085938 158 135.288085938 98 131.288085938 40 c 0
 130.288085938 22 136.288085938 4 131.288085938 -14 c 0
 125.288085938 -39 99.2880859375 -56 73.2880859375 -51 c 0
 12.2880859375 -38 33.2880859375 49 34.2880859375 93 c 0
 36.2880859375 216 37.2880859375 339 41.2880859375 462 c 0
 42.2880859375 486 43.2880859375 512 41.2880859375 536 c 0
 40.2880859375 554 35.2880859375 576 41.2880859375 594 c 0
 54.2880859375 631 105.288085938 633 124.288085938 600 c 0
 132.288085938 587 131.288085938 567 131.288085938 552 c 0
 131.288085938 525 132.288085938 499 133.288085938 472 c 0
 134.288085938 427 131.288085938 381 135.288085938 336 c 1
133.288085938 336 m 1
 135.288085938 334 l 1
 133.288085938 336 l 1
EndSplineSet
EndChar

StartChar: u
Encoding: 117 117 22
Width: 435
VWidth: 0
Flags: HW
LayerCount: 2
Back
Fore
SplineSet
63.755859375 375 m 0
 93.755859375 382 122.755859375 359 120.755859375 328 c 0
 119.755859375 318 115.755859375 308 114.755859375 298 c 0
 110.755859375 255 112.755859375 209 120.755859375 166 c 0
 124.755859375 144 129.755859375 116 154.755859375 109 c 0
 196.755859375 97 270.755859375 104 294.755859375 146 c 0
 313.755859375 179 309.755859375 228 308.755859375 264 c 0
 307.755859375 299 281.755859375 345 326.755859375 365 c 0
 332.755859375 368 339.755859375 369 345.755859375 369 c 0
 401.755859375 366 404.755859375 282 404.755859375 240 c 0
 405.755859375 155 391.755859375 72 308.755859375 29 c 0
 291.755859375 20 272.755859375 14 254.755859375 10 c 0
 190.755859375 -5 101.755859375 0 58.755859375 56 c 0
 27.755859375 96 21.755859375 153 20.755859375 202 c 0
 19.755859375 243 18.755859375 283 24.755859375 323 c 0
 27.755859375 346 38.755859375 369 63.755859375 375 c 0
EndSplineSet
EndChar

StartChar: R
Encoding: 82 82 23
Width: 496
VWidth: 0
Flags: HW
LayerCount: 2
Back
Fore
SplineSet
157 256 m 1
 152 237 154 215 153 195 c 0
 151 160 147 124 147 88 c 0
 147 56 153 8 137 -20 c 0
 122 -47 81 -50 62 -26 c 0
 50 -11 52 10 51 28 c 0
 50 63 50 97 50 132 c 0
 51 233 61 335 67 436 c 0
 70 482 61 535 70 580 c 0
 76 609 115 649 141 661 c 0
 208 692 275 676 339 645 c 0
 368 631 397 615 418 590 c 0
 462 536 469 460 440 398 c 0
 418 352 376 326 329 312 c 0
 307 305 284 303 263 294 c 1
 283 283 299 263 315 248 c 0
 355 209 391 166 429 125 c 0
 449 104 482 90 498 66 c 0
 518 37 496 -1 463 -5 c 0
 429 -9 389 31 367 52 c 0
 333 85 304 122 270 155 c 0
 234 191 195 222 157 256 c 1
159 554 m 1
 164 498 167 432 159 376 c 1
 204 381 249 393 293 405 c 0
 314 411 337 418 349 438 c 0
 392 507 315 557 259 576 c 0
 244 581 226 588 210 587 c 0
 183 585 178 568 159 554 c 1
155 258 m 1
 157 256 l 1
 155 258 l 1
EndSplineSet
EndChar

StartChar: P
Encoding: 80 80 24
Width: 451
VWidth: 0
Flags: HW
LayerCount: 2
Back
Fore
SplineSet
166.02734375 262 m 1
 175.02734375 232 170.02734375 193 170.02734375 162 c 0
 170.02734375 115 177.02734375 61 167.02734375 14 c 0
 161.02734375 -12 133.02734375 -27 108.02734375 -18 c 0
 84.02734375 -10 79.02734375 13 76.02734375 36 c 0
 70.02734375 84 72.02734375 133 70.02734375 182 c 0
 65.02734375 298 61.02734375 413 61.02734375 529 c 0
 61.02734375 556 60.02734375 583 60.02734375 610 c 0
 60.02734375 627 59.02734375 644 69.02734375 658 c 0
 84.02734375 679 100.02734375 673 121.02734375 676 c 0
 139.02734375 679 155.02734375 687 173.02734375 689 c 0
 245.02734375 698 321.02734375 682 378.02734375 635 c 0
 451.02734375 575 475.02734375 457 423.02734375 378 c 0
 366.02734375 290 263.02734375 272 166.02734375 262 c 1
162.02734375 356 m 1
 193.02734375 357 225.02734375 365 254.02734375 374 c 0
 276.02734375 381 301.02734375 390 318.02734375 406 c 0
 360.02734375 447 362.02734375 512 320.02734375 556 c 0
 304.02734375 573 282.02734375 582 260.02734375 589 c 0
 231.02734375 599 174.02734375 611 155.02734375 580 c 0
 146.02734375 566 155.02734375 534 155.02734375 518 c 0
 157.02734375 464 162.02734375 410 162.02734375 356 c 1
EndSplineSet
EndChar

StartChar: zero
Encoding: 48 48 25
Width: 474
VWidth: 0
Flags: HW
LayerCount: 2
Back
Fore
SplineSet
92.3603515625 570 m 1
 52.3603515625 570 19.3603515625 613 53.3603515625 647 c 0
 72.3603515625 666 113.360351562 666 138.360351562 666 c 0
 174.360351562 666 211.360351562 661 244.360351562 645 c 0
 347.360351562 593 396.360351562 453 425.360351562 350 c 0
 447.360351562 272 458.360351562 179 408.360351562 108 c 0
 351.360351562 27 226.360351562 -34 136.360351562 28 c 0
 90.3603515625 60 60.3603515625 119 45.3603515625 172 c 0
 29.3603515625 228 29.3603515625 283 30.3603515625 340 c 0
 31.3603515625 418 59.3603515625 501 92.3603515625 570 c 1
194.360351562 564 m 1
 172.360351562 532 158.360351562 493 147.360351562 456 c 0
 124.360351562 376 114.360351562 289 136.360351562 208 c 0
 147.360351562 169 177.360351562 90 230.360351562 102 c 0
 248.360351562 106 263.360351562 114 278.360351562 124 c 0
 297.360351562 136 317.360351562 150 329.360351562 170 c 0
 345.360351562 198 347.360351562 235 342.360351562 266 c 0
 333.360351562 325 313.360351562 383 290.360351562 438 c 0
 271.360351562 483 241.360351562 544 194.360351562 564 c 1
EndSplineSet
EndChar

StartChar: question
Encoding: 63 63 26
Width: 358
VWidth: 0
Flags: HW
LayerCount: 2
Back
Fore
SplineSet
227.859375 598 m 1
 185.859375 601 142.859375 551 125.859375 518 c 0
 113.859375 494 110.859375 466 76.859375 463 c 0
 29.859375 460 21.859375 513 36.859375 546 c 0
 67.859375 615 118.859375 669 191.859375 693 c 0
 225.859375 705 263.859375 710 293.859375 685 c 0
 323.859375 659 330.859375 609 326.859375 572 c 0
 318.859375 488 274.859375 422 246.859375 344 c 0
 242.859375 332 237.859375 319 238.859375 306 c 0
 239.859375 280 254.859375 259 229.859375 238 c 0
 194.859375 208 159.859375 241 149.859375 276 c 0
 133.859375 332 158.859375 389 180.859375 440 c 0
 195.859375 474 211.859375 508 220.859375 544 c 0
 224.859375 562 223.859375 581 227.859375 598 c 1
167.859375 111 m 0
 237.859375 128 261.859375 18 189.859375 0 c 0
 122.859375 -16 106.859375 97 167.859375 111 c 0
EndSplineSet
EndChar

StartChar: quotedbl
Encoding: 34 34 27
Width: 316
VWidth: 0
Flags: HW
LayerCount: 2
Back
Fore
SplineSet
74.01171875 661 m 0
 106.01171875 668 128.01171875 644 136.01171875 616 c 0
 149.01171875 574 137.01171875 523 127.01171875 482 c 0
 121.01171875 460 111.01171875 438 86.01171875 433 c 0
 61.01171875 428 35.01171875 444 31.01171875 470 c 0
 26.01171875 507 41.01171875 545 44.01171875 581 c 0
 45.01171875 597 37.01171875 612 41.01171875 628 c 0
 45.01171875 644 58.01171875 657 74.01171875 661 c 0
202.01171875 661 m 0
 242.01171875 670 252.01171875 637 264.01171875 608 c 0
 282.01171875 564 292.01171875 515 281.01171875 468 c 0
 276.01171875 444 263.01171875 419 237.01171875 413 c 0
 216.01171875 409 194.01171875 421 186.01171875 440 c 0
 177.01171875 462 187.01171875 486 186.01171875 508 c 0
 185.01171875 528 183.01171875 550 178.01171875 570 c 0
 173.01171875 589 166.01171875 606 169.01171875 626 c 0
 172.01171875 643 185.01171875 657 202.01171875 661 c 0
EndSplineSet
EndChar

StartChar: bracketleft
Encoding: 91 91 28
Width: 419
VWidth: 0
Flags: HW
LayerCount: 2
Back
Fore
SplineSet
257.581054688 483 m 0
 296.581054688 490 319.581054688 449 306.581054688 416 c 0
 294.581054688 386 277.581054688 357 261.581054688 328 c 0
 232.581054688 275 204.581054688 222 164.581054688 176 c 0
 146.581054688 155 121.581054688 119 91.5810546875 116 c 0
 57.5810546875 112 32.5810546875 148 45.5810546875 180 c 0
 58.5810546875 211 87.5810546875 239 107.581054688 266 c 0
 140.581054688 313 169.581054688 363 199.581054688 412 c 0
 215.581054688 437 224.581054688 477 257.581054688 483 c 0
65.5810546875 475 m 0
 124.581054688 486 140.581054688 395 81.5810546875 385 c 0
 24.5810546875 375 8.5810546875 464 65.5810546875 475 c 0
327.581054688 237 m 0
 391.581054688 252 414.581054688 155 350.581054688 141 c 0
 289.581054688 128 265.581054688 223 327.581054688 237 c 0
EndSplineSet
EndChar

StartChar: o
Encoding: 111 111 29
Width: 419
VWidth: 0
Flags: HW
LayerCount: 2
Back
Fore
SplineSet
142.663085938 381 m 0
 160.663085938 385 172.663085938 374 188.663085938 373 c 0
 234.663085938 369 275.663085938 361 311.663085938 329 c 0
 398.663085938 252 427.663085938 98 318.663085938 27 c 0
 298.663085938 14 275.663085938 6 252.663085938 0 c 0
 183.663085938 -16 100.663085938 14 61.6630859375 74 c 0
 24.6630859375 130 20.6630859375 211 46.6630859375 272 c 0
 63.6630859375 312 96.6630859375 370 142.663085938 381 c 0
181.663085938 279 m 0
 172.663085938 278 159.663085938 277 151.663085938 272 c 0
 142.663085938 266 138.663085938 252 134.663085938 242 c 0
 121.663085938 208 121.663085938 162 141.663085938 130 c 0
 158.663085938 103 197.663085938 92 227.663085938 96 c 0
 343.663085938 113 275.663085938 292 181.663085938 279 c 0
EndSplineSet
EndChar

StartChar: k
Encoding: 107 107 30
Width: 395
VWidth: 0
Flags: HW
LayerCount: 2
Back
Fore
SplineSet
140.193359375 156 m 1
 140.193359375 129 139.193359375 101 140.193359375 74 c 0
 141.193359375 53 143.193359375 28 134.193359375 8 c 0
 120.193359375 -21 78.193359375 -27 57.193359375 -2 c 0
 43.193359375 15 47.193359375 37 46.193359375 57 c 0
 44.193359375 103 41.193359375 148 40.193359375 194 c 0
 39.193359375 283 42.193359375 374 46.193359375 463 c 0
 47.193359375 494 40.193359375 540 56.193359375 568 c 0
 75.193359375 601 127.193359375 597 139.193359375 560 c 0
 145.193359375 543 140.193359375 520 140.193359375 502 c 2
 140.193359375 374 l 1
 166.193359375 397 192.193359375 422 218.193359375 445 c 0
 230.193359375 455 238.193359375 469 254.193359375 474 c 0
 292.193359375 487 327.193359375 445 309.193359375 410 c 0
 290.193359375 371 242.193359375 341 213.193359375 309 c 0
 206.193359375 301 184.193359375 284 185.193359375 272 c 0
 187.193359375 252 212.193359375 229 224.193359375 214 c 0
 255.193359375 177 288.193359375 142 322.193359375 108 c 0
 339.193359375 91 364.193359375 71 372.193359375 48 c 0
 385.193359375 9 341.193359375 -25 306.193359375 -6 c 0
 288.193359375 4 274.193359375 22 259.193359375 35 c 0
 216.193359375 73 178.193359375 113 140.193359375 156 c 1
EndSplineSet
EndChar

StartChar: w
Encoding: 119 119 31
Width: 556
VWidth: 0
Flags: HW
LayerCount: 2
Back
Fore
SplineSet
241.759765625 40 m 1
 184.759765625 -17 91.759765625 -18 53.759765625 62 c 0
 23.759765625 125 27.759765625 207 35.759765625 274 c 0
 39.759765625 307 36.759765625 367 67.759765625 387 c 0
 93.759765625 403 131.759765625 388 136.759765625 357 c 0
 139.759765625 337 131.759765625 312 129.759765625 292 c 0
 124.759765625 250 119.759765625 204 126.759765625 162 c 0
 128.759765625 147 131.759765625 98 151.759765625 97 c 0
 168.759765625 96 185.759765625 129 191.759765625 142 c 0
 212.759765625 183 203.759765625 275 259.759765625 284 c 0
 285.759765625 288 309.759765625 271 315.759765625 246 c 0
 318.759765625 232 314.759765625 218 313.759765625 204 c 0
 311.759765625 180 311.759765625 156 314.759765625 132 c 0
 317.759765625 108 323.759765625 86 351.759765625 85 c 0
 377.759765625 84 398.759765625 114 408.759765625 134 c 0
 433.759765625 185 440.759765625 262 426.759765625 318 c 0
 420.759765625 341 399.759765625 351 401.759765625 378 c 0
 403.759765625 406 435.759765625 425 461.759765625 415 c 0
 481.759765625 408 496.759765625 388 506.759765625 370 c 0
 524.759765625 338 525.759765625 294 525.759765625 258 c 0
 525.759765625 171 513.759765625 92 451.759765625 26 c 0
 400.759765625 -28 279.759765625 -34 241.759765625 40 c 1
EndSplineSet
EndChar

StartChar: D
Encoding: 68 68 32
Width: 480
VWidth: 0
Flags: HW
LayerCount: 2
Back
Fore
SplineSet
142.399414062 685 m 0
 192.399414062 691 241.399414062 674 285.399414062 652 c 0
 325.399414062 632 372.399414062 606 400.399414062 570 c 0
 482.399414062 463 480.399414062 305 451.399414062 180 c 0
 440.399414062 130 422.399414062 83 391.399414062 42 c 0
 330.399414062 -38 224.399414062 -48 131.399414062 -55 c 0
 100.399414062 -57 55.3994140625 -65 42.3994140625 -28 c 0
 33.3994140625 -2 52.3994140625 6 55.3994140625 29 c 0
 60.3994140625 60 52.3994140625 98 51.3994140625 130 c 0
 47.3994140625 250 51.3994140625 370 55.3994140625 490 c 0
 57.3994140625 532 46.3994140625 581 54.3994140625 622 c 0
 61.3994140625 660 108.399414062 681 142.399414062 685 c 0
145.399414062 594 m 1
 148.399414062 218 l 1
 149.399414062 104 l 1
 151.399414062 40 l 1
 206.399414062 54 270.399414062 49 310.399414062 98 c 0
 343.399414062 138 353.399414062 191 361.399414062 240 c 0
 375.399414062 325 379.399414062 443 321.399414062 514 c 0
 299.399414062 542 259.399414062 562 227.399414062 577 c 0
 199.399414062 590 175.399414062 594 145.399414062 594 c 1
EndSplineSet
EndChar

StartChar: Q
Encoding: 81 81 33
Width: 634
VWidth: 0
Flags: HW
LayerCount: 2
Back
Fore
SplineSet
553.455078125 92 m 1
 574.455078125 81 604.455078125 50 611.455078125 26 c 0
 618.455078125 0 600.455078125 -29 573.455078125 -32 c 0
 526.455078125 -37 508.455078125 21 467.455078125 30 c 0
 454.455078125 33 434.455078125 19 421.455078125 16 c 0
 389.455078125 8 359.455078125 3 327.455078125 9 c 0
 234.455078125 25 115.455078125 68 66.455078125 154 c 0
 40.455078125 200 37.455078125 259 41.455078125 310 c 0
 51.455078125 428 95.455078125 541 181.455078125 624 c 0
 193.455078125 636 209.455078125 647 220.455078125 660 c 0
 231.455078125 674 233.455078125 689 251.455078125 697 c 0
 268.455078125 704 287.455078125 705 305.455078125 708 c 0
 422.455078125 728 516.455078125 670 566.455078125 564 c 0
 623.455078125 444 647.455078125 281 593.455078125 156 c 0
 583.455078125 132 568.455078125 113 553.455078125 92 c 1
391.455078125 110 m 1
 383.455078125 126 368.455078125 137 359.455078125 152 c 0
 342.455078125 180 366.455078125 217 398.455078125 218 c 0
 420.455078125 219 436.455078125 201 449.455078125 186 c 0
 454.455078125 180 467.455078125 158 477.455078125 161 c 0
 485.455078125 163 491.455078125 175 495.455078125 182 c 0
 509.455078125 205 514.455078125 232 518.455078125 258 c 0
 526.455078125 312 521.455078125 364 512.455078125 418 c 0
 506.455078125 452 496.455078125 484 482.455078125 516 c 0
 458.455078125 571 419.455078125 618 356.455078125 619 c 0
 344.455078125 619 329.455078125 621 318.455078125 616 c 0
 294.455078125 606 270.455078125 582 251.455078125 564 c 0
 183.455078125 499 143.455078125 411 137.455078125 317 c 0
 134.455078125 279 132.455078125 232 153.455078125 198 c 0
 176.455078125 161 230.455078125 142 269.455078125 128 c 0
 311.455078125 113 347.455078125 106 391.455078125 110 c 1
EndSplineSet
EndChar

StartChar: one
Encoding: 49 49 34
Width: 318
VWidth: 0
Flags: HW
LayerCount: 2
Back
Fore
SplineSet
181.522460938 558 m 1
 151.522460938 537 131.522460938 507 103.522460938 485 c 0
 71.5224609375 459 24.5224609375 488 30.5224609375 528 c 0
 34.5224609375 553 55.5224609375 572 73.5224609375 588 c 0
 112.522460938 624 166.522460938 694 227.522460938 677 c 0
 292.522460938 659 279.522460938 561 281.522460938 510 c 0
 285.522460938 407 283.522460938 303 287.522460938 200 c 0
 289.522460938 157 287.522460938 113 283.522460938 70 c 0
 281.522460938 55 284.522460938 36 278.522460938 22 c 0
 264.522460938 -16 210.522460938 -16 194.522460938 20 c 0
 186.522460938 38 190.522460938 59 191.522460938 78 c 0
 193.522460938 111 194.522460938 147 191.522460938 180 c 0
 186.522460938 229 187.522460938 279 187.522460938 328 c 0
 187.522460938 405 184.522460938 481 181.522460938 558 c 1
EndSplineSet
EndChar

StartChar: colon
Encoding: 58 58 35
Width: 162
VWidth: 0
Flags: HW
LayerCount: 2
Back
Fore
SplineSet
72.88671875 355 m 0
 132.88671875 369 157.88671875 280 96.88671875 266 c 0
 38.88671875 253 12.88671875 341 72.88671875 355 c 0
68.88671875 147 m 0
 134.88671875 159 156.88671875 66 86.88671875 53 c 0
 24.88671875 42 5.88671875 135 68.88671875 147 c 0
EndSplineSet
EndChar

StartChar: quotedblleft
Encoding: 8220 8220 36
Width: 359
VWidth: 0
Flags: HW
LayerCount: 2
Back
Fore
SplineSet
247.432617188 699 m 0
 268.432617188 701 287.432617188 686 293.432617188 666 c 0
 301.432617188 637 276.432617188 615 279.432617188 585 c 0
 283.432617188 545 350.432617188 534 322.432617188 484 c 0
 319.432617188 478 314.432617188 474 309.432617188 470 c 0
 302.432617188 465 295.432617188 462 287.432617188 461 c 0
 265.432617188 458 241.432617188 471 225.432617188 485 c 0
 182.432617188 522 169.432617188 581 187.432617188 634 c 0
 197.432617188 663 213.432617188 696 247.432617188 699 c 0
97.4326171875 685 m 0
 104.432617188 686 112.432617188 684 119.432617188 681 c 0
 176.432617188 657 124.432617188 599 127.432617188 560 c 0
 128.432617188 546 147.432617188 533 155.432617188 522 c 0
 176.432617188 493 162.432617188 451 124.432617188 447 c 0
 105.432617188 445 89.4326171875 456 75.4326171875 467 c 0
 20.4326171875 510 22.4326171875 562 44.4326171875 622 c 0
 54.4326171875 648 64.4326171875 682 97.4326171875 685 c 0
EndSplineSet
EndChar

StartChar: ampersand
Encoding: 38 38 37
Width: 573
VWidth: 0
Flags: HW
LayerCount: 2
Back
Fore
SplineSet
215.705078125 402 m 1
 183.705078125 489 126.705078125 587 163.705078125 682 c 0
 219.705078125 827 426.705078125 758 486.705078125 656 c 0
 529.705078125 583 491.705078125 483 435.705078125 428 c 0
 418.705078125 411 399.705078125 396 379.705078125 383 c 0
 373.705078125 379 359.705078125 374 359.705078125 366 c 0
 359.705078125 359 368.705078125 351 372.705078125 346 c 0
 384.705078125 330 397.705078125 315 409.705078125 300 c 1
 418.705078125 318 427.705078125 347 445.705078125 358 c 0
 473.705078125 376 513.705078125 358 515.705078125 324 c 0
 516.705078125 300 502.705078125 279 491.705078125 258 c 0
 487.705078125 251 477.705078125 239 478.705078125 231 c 0
 479.705078125 221 500.705078125 207 507.705078125 200 c 0
 532.705078125 173 555.705078125 132 533.705078125 96 c 0
 518.705078125 72 480.705078125 69 461.705078125 90 c 0
 452.705078125 101 453.705078125 112 448.705078125 124 c 0
 446.705078125 130 431.705078125 149 423.705078125 147 c 0
 415.705078125 145 408.705078125 132 403.705078125 126 c 0
 389.705078125 111 374.705078125 98 357.705078125 87 c 0
 300.705078125 49 224.705078125 43 159.705078125 59 c 0
 136.705078125 65 112.705078125 73 91.705078125 85 c 0
 27.705078125 124 13.705078125 204 48.705078125 268 c 0
 80.705078125 326 153.705078125 379 215.705078125 402 c 1
299.705078125 452 m 1
 319.705078125 458 338.705078125 476 353.705078125 489 c 0
 379.705078125 511 420.705078125 565 402.705078125 602 c 0
 386.705078125 637 343.705078125 657 307.705078125 663 c 0
 292.705078125 666 273.705078125 668 261.705078125 656 c 0
 235.705078125 630 256.705078125 564 266.705078125 534 c 0
 275.705078125 506 285.705078125 478 299.705078125 452 c 1
357.705078125 216 m 1
 357.705078125 218 l 1
 271.705078125 320 l 1
 230.705078125 305 174.705078125 272 146.705078125 238 c 0
 134.705078125 223 120.705078125 202 128.705078125 182 c 0
 135.705078125 163 167.705078125 155 185.705078125 151 c 0
 256.705078125 134 313.705078125 160 357.705078125 216 c 1
EndSplineSet
EndChar

StartChar: bracketright
Encoding: 93 93 38
Width: 306
VWidth: 0
Flags: HW
LayerCount: 2
Back
Fore
SplineSet
153.272460938 606 m 1
 136.272460938 602 117.272460938 600 100.272460938 598 c 0
 85.2724609375 596 69.2724609375 594 55.2724609375 601 c 0
 28.2724609375 615 21.2724609375 651 42.2724609375 673 c 0
 54.2724609375 686 70.2724609375 687 86.2724609375 689 c 0
 123.272460938 695 183.272460938 714 217.272460938 692 c 0
 261.272460938 664 249.272460938 591 252.272460938 547 c 0
 262.272460938 408 252.272460938 267 268.272460938 128 c 0
 273.272460938 83 290.272460938 -3 249.272460938 -34 c 0
 214.272460938 -61 144.272460938 -54 103.272460938 -48 c 0
 88.2724609375 -46 72.2724609375 -45 59.2724609375 -36 c 0
 28.2724609375 -14 39.2724609375 38 77.2724609375 45 c 0
 108.272460938 50 145.272460938 43 177.272460938 44 c 1
 165.272460938 164 l 1
 153.272460938 606 l 1
EndSplineSet
EndChar

StartChar: d
Encoding: 100 100 39
Width: 477
VWidth: 0
Flags: HW
LayerCount: 2
Back
Fore
SplineSet
298.80078125 392 m 1
 298.80078125 435 295.80078125 478 295.80078125 521 c 0
 295.80078125 546 294.80078125 575 303.80078125 598 c 0
 320.80078125 640 381.80078125 647 398.80078125 600 c 0
 408.80078125 571 405.80078125 535 406.80078125 504 c 0
 407.80078125 444 404.80078125 387 400.80078125 328 c 0
 395.80078125 261 408.80078125 182 422.80078125 116 c 0
 424.80078125 105 427.80078125 79 440.80078125 75 c 0
 450.80078125 72 464.80078125 81 474.80078125 82 c 0
 500.80078125 85 524.80078125 66 526.80078125 40 c 0
 528.80078125 14 508.80078125 -2 486.80078125 -10 c 0
 451.80078125 -23 411.80078125 -23 380.80078125 0 c 0
 350.80078125 22 349.80078125 56 330.80078125 84 c 1
 298.80078125 16 206.80078125 -47 130.80078125 -17 c 0
 98.80078125 -4 72.80078125 23 54.80078125 52 c 0
 43.80078125 71 34.80078125 93 31.80078125 115 c 0
 17.80078125 208 87.80078125 296 158.80078125 347 c 0
 194.80078125 373 252.80078125 409 298.80078125 392 c 1
272.80078125 303 m 0
 257.80078125 300 241.80078125 290 228.80078125 282 c 0
 187.80078125 257 141.80078125 212 128.80078125 164 c 0
 120.80078125 136 136.80078125 69 176.80078125 75 c 0
 195.80078125 78 209.80078125 91 222.80078125 104 c 0
 256.80078125 139 270.80078125 186 280.80078125 232 c 0
 283.80078125 244 279.80078125 256 280.80078125 268 c 0
 281.80078125 277 285.80078125 288 283.80078125 297 c 0
 282.80078125 302 277.80078125 304 272.80078125 303 c 0
332.80078125 86 m 1
 334.80078125 84 l 1
 332.80078125 86 l 1
EndSplineSet
EndChar

StartChar: l
Encoding: 108 108 40
Width: 208
VWidth: 0
Flags: HW
LayerCount: 2
Back
Fore
SplineSet
80.8525390625 613 m 0
 112.852539062 621 141.852539062 596 138.852539062 563 c 0
 127.852539062 443 120.852539062 322 135.852539062 201 c 0
 140.852539062 159 141.852539062 109 159.852539062 70 c 0
 168.852539062 51 191.852539062 48 201.852539062 30 c 0
 216.852539062 4 202.852539062 -29 174.852539062 -37 c 0
 116.852539062 -54 71.8525390625 20 59.8525390625 66 c 0
 26.8525390625 197 25.8525390625 328 34.8525390625 462 c 0
 36.8525390625 500 39.8525390625 539 47.8525390625 576 c 0
 51.8525390625 593 62.8525390625 609 80.8525390625 613 c 0
EndSplineSet
EndChar

StartChar: v
Encoding: 118 118 41
Width: 410
VWidth: 0
Flags: HW
LayerCount: 2
Back
Fore
SplineSet
211.109375 138 m 1
 230.109375 182 240.109375 231 257.109375 276 c 0
 266.109375 301 276.109375 325 285.109375 350 c 0
 293.109375 372 298.109375 402 317.109375 417 c 0
 345.109375 439 387.109375 418 390.109375 383 c 0
 393.109375 344 367.109375 296 354.109375 260 c 0
 328.109375 187 307.109375 111 286.109375 36 c 0
 276.109375 0 264.109375 -45 218.109375 -45 c 0
 175.109375 -45 162.109375 1 149.109375 34 c 0
 118.109375 110 86.109375 186 55.109375 262 c 0
 44.109375 289 18.109375 325 20.109375 355 c 0
 22.109375 392 67.109375 410 95.109375 387 c 0
 107.109375 377 112.109375 360 119.109375 346 c 0
 133.109375 317 145.109375 288 158.109375 258 c 0
 175.109375 218 194.109375 178 211.109375 138 c 1
EndSplineSet
EndChar

StartChar: L
Encoding: 76 76 42
Width: 422
VWidth: 0
Flags: HW
LayerCount: 2
Back
Fore
SplineSet
166.5 50 m 1
 185.5 46 208.5 50 227.5 51 c 0
 259.5 52 292.5 48 324.5 48 c 0
 340.5 48 356.5 53 372.5 51 c 0
 405.5 46 422.5 8 404.5 -20 c 0
 389.5 -43 358.5 -42 334.5 -44 c 0
 285.5 -48 235.5 -43 186.5 -48 c 0
 164.5 -50 146.5 -60 125.5 -63 c 0
 103.5 -66 82.5 -58 71.5 -38 c 0
 59.5 -15 64.5 16 66.5 40 c 0
 69.5 73 68.5 105 68.5 138 c 0
 68.5 247 68.5 357 64.5 466 c 0
 63.5 505 60.5 545 60.5 584 c 0
 60.5 601 58.5 620 62.5 636 c 0
 74.5 681 137.5 681 150.5 636 c 0
 157.5 612 152.5 590 152.5 566 c 0
 153.5 519 154.5 471 156.5 424 c 0
 159.5 334 168.5 244 168.5 154 c 0
 168.5 120 172.5 83 166.5 50 c 1
EndSplineSet
EndChar

StartChar: S
Encoding: 83 83 43
Width: 443
VWidth: 0
Flags: HW
LayerCount: 2
Back
Fore
SplineSet
249.229492188 695 m 0
 304.229492188 702 369.229492188 680 398.229492188 630 c 0
 417.229492188 597 426.229492188 525 377.229492188 513 c 0
 351.229492188 507 328.229492188 526 322.229492188 550 c 0
 320.229492188 560 323.229492188 573 318.229492188 582 c 0
 311.229492188 595 292.229492188 601 278.229492188 602 c 0
 252.229492188 604 223.229492188 591 202.229492188 576 c 0
 194.229492188 570 183.229492188 561 182.229492188 550 c 0
 181.229492188 536 193.229492188 521 201.229492188 510 c 0
 222.229492188 482 245.229492188 457 267.229492188 430 c 0
 311.229492188 377 367.229492188 320 394.229492188 256 c 0
 429.229492188 174 412.229492188 67 326.229492188 26 c 0
 302.229492188 15 275.229492188 10 249.229492188 7 c 0
 170.229492188 -1 124.229492188 42 68.2294921875 91 c 0
 42.2294921875 114 7.2294921875 155 50.2294921875 183 c 0
 77.2294921875 200 103.229492188 184 124.229492188 166 c 0
 158.229492188 137 188.229492188 98 237.229492188 103 c 0
 264.229492188 106 301.229492188 111 308.229492188 143 c 0
 318.229492188 190 298.229492188 226 271.229492188 262 c 0
 254.229492188 285 236.229492188 307 218.229492188 330 c 0
 161.229492188 404 44.2294921875 499 97.2294921875 604 c 0
 103.229492188 616 111.229492188 627 120.229492188 636 c 0
 133.229492188 649 150.229492188 658 166.229492188 667 c 0
 191.229492188 681 220.229492188 692 249.229492188 695 c 0
EndSplineSet
EndChar

StartChar: two
Encoding: 50 50 44
Width: 393
VWidth: 0
Flags: HW
LayerCount: 2
Back
Fore
SplineSet
179.767578125 96 m 1
 217.767578125 96 254.767578125 94 292.767578125 89 c 0
 306.767578125 87 320.767578125 89 333.767578125 84 c 0
 361.767578125 73 371.767578125 35 352.767578125 12 c 0
 328.767578125 -18 274.767578125 -2 242.767578125 0 c 0
 191.767578125 3 139.767578125 -6 88.767578125 1 c 0
 63.767578125 5 42.767578125 23 39.767578125 49 c 0
 38.767578125 60 39.767578125 71 41.767578125 82 c 0
 48.767578125 128 107.767578125 161 132.767578125 198 c 0
 182.767578125 272 219.767578125 362 244.767578125 448 c 0
 252.767578125 477 266.767578125 514 260.767578125 544 c 0
 256.767578125 563 236.767578125 577 217.767578125 571 c 0
 181.767578125 559 142.767578125 509 125.767578125 476 c 0
 114.767578125 455 122.767578125 434 97.767578125 420 c 0
 48.767578125 393 20.767578125 452 32.767578125 492 c 0
 52.767578125 559 118.767578125 635 183.767578125 661 c 0
 252.767578125 689 334.767578125 646 354.767578125 576 c 0
 369.767578125 525 353.767578125 467 339.767578125 418 c 0
 314.767578125 331 279.767578125 243 231.767578125 166 c 0
 215.767578125 141 196.767578125 120 179.767578125 96 c 1
EndSplineSet
EndChar

StartChar: semicolon
Encoding: 59 59 45
Width: 178
VWidth: 0
Flags: HW
LayerCount: 2
Back
Fore
SplineSet
93.29296875 383 m 0
 149.29296875 392 166.29296875 304 109.29296875 293 c 0
 50.29296875 282 33.29296875 373 93.29296875 383 c 0
77.29296875 129 m 0
 107.29296875 134 132.29296875 106 141.29296875 80 c 0
 155.29296875 39 145.29296875 -16 128.29296875 -54 c 0
 119.29296875 -74 105.29296875 -94 81.29296875 -97 c 0
 56.29296875 -100 32.29296875 -81 30.29296875 -56 c 0
 27.29296875 -22 48.29296875 12 50.29296875 46 c 0
 51.29296875 64 36.29296875 77 42.29296875 98 c 0
 47.29296875 114 61.29296875 126 77.29296875 129 c 0
EndSplineSet
EndChar

StartChar: quotedblright
Encoding: 8221 8221 46
Width: 320
VWidth: 0
Flags: HW
LayerCount: 2
Back
Fore
SplineSet
197.302734375 667 m 0
 219.302734375 671 242.302734375 657 256.302734375 642 c 0
 291.302734375 606 296.302734375 548 283.302734375 502 c 0
 276.302734375 477 266.302734375 452 237.302734375 447 c 0
 230.302734375 446 223.302734375 447 216.302734375 449 c 0
 160.302734375 466 194.302734375 526 189.302734375 564 c 0
 187.302734375 582 172.302734375 587 165.302734375 602 c 0
 152.302734375 629 168.302734375 661 197.302734375 667 c 0
64.302734375 665 m 0
 90.302734375 671 113.302734375 652 124.302734375 630 c 0
 144.302734375 588 146.302734375 485 88.302734375 472 c 0
 81.302734375 471 75.302734375 470 68.302734375 472 c 0
 16.302734375 484 38.302734375 549 37.302734375 587 c 0
 37.302734375 604 26.302734375 616 31.302734375 634 c 0
 36.302734375 650 48.302734375 661 64.302734375 665 c 0
EndSplineSet
EndChar

StartChar: parenleft
Encoding: 40 40 47
Width: 293
VWidth: 0
Flags: HW
LayerCount: 2
Back
Fore
SplineSet
190.109375 785 m 0
 224.109375 793 261.109375 765 251.109375 728 c 0
 246.109375 711 232.109375 705 223.109375 692 c 0
 210.109375 673 201.109375 649 193.109375 628 c 0
 133.109375 478 101.109375 322 167.109375 168 c 0
 180.109375 137 198.109375 107 219.109375 80 c 0
 232.109375 64 251.109375 51 259.109375 32 c 0
 269.109375 9 257.109375 -20 233.109375 -28 c 0
 205.109375 -38 185.109375 -20 166.109375 -3 c 0
 124.109375 35 93.109375 88 71.109375 140 c 0
 0.109375 304 29.109375 479 97.109375 640 c 0
 112.109375 676 127.109375 713 147.109375 746 c 0
 157.109375 763 170.109375 780 190.109375 785 c 0
EndSplineSet
EndChar

StartChar: asciicircum
Encoding: 94 94 48
Width: 358
VWidth: 0
Flags: HW
LayerCount: 2
Back
Fore
SplineSet
165.985351562 586 m 1
 151.985351562 561 127.985351562 520 101.985351562 506 c 0
 76.9853515625 493 42.9853515625 501 32.9853515625 528 c 0
 20.9853515625 560 47.9853515625 580 63.9853515625 604 c 0
 95.9853515625 653 142.985351562 739 213.985351562 690 c 0
 231.985351562 678 236.985351562 659 249.985351562 643 c 0
 272.985351562 615 318.985351562 588 326.985351562 551 c 0
 333.985351562 516 300.985351562 487 267.985351562 497 c 0
 246.985351562 503 231.985351562 523 216.985351562 537 c 0
 199.985351562 553 181.985351562 569 165.985351562 586 c 1
EndSplineSet
EndChar

StartChar: p
Encoding: 112 112 49
Width: 436
VWidth: 0
Flags: HW
LayerCount: 2
Back
Fore
SplineSet
128.599609375 24 m 1
 128.599609375 -12 128.599609375 -48 130.599609375 -84 c 0
 131.599609375 -107 137.599609375 -133 132.599609375 -156 c 0
 126.599609375 -185 93.599609375 -201 66.599609375 -187 c 0
 42.599609375 -174 43.599609375 -148 39.599609375 -124 c 0
 31.599609375 -70 28.599609375 -17 30.599609375 38 c 0
 33.599609375 108 30.599609375 178 34.599609375 248 c 0
 35.599609375 273 32.599609375 311 42.599609375 334 c 0
 56.599609375 366 79.599609375 352 102.599609375 362 c 0
 118.599609375 369 132.599609375 384 148.599609375 392 c 0
 183.599609375 411 227.599609375 417 266.599609375 409 c 0
 433.599609375 376 462.599609375 151 344.599609375 47 c 0
 281.599609375 -9 202.599609375 0 128.599609375 24 c 1
128.599609375 274 m 1
 127.599609375 242 129.599609375 210 128.599609375 178 c 0
 128.599609375 163 123.599609375 145 127.599609375 130 c 0
 129.599609375 121 142.599609375 119 150.599609375 116 c 0
 174.599609375 107 199.599609375 102 224.599609375 102 c 0
 333.599609375 102 354.599609375 294 244.599609375 317 c 0
 223.599609375 321 195.599609375 317 178.599609375 304 c 0
 160.599609375 291 154.599609375 275 128.599609375 274 c 1
EndSplineSet
EndChar

StartChar: f
Encoding: 102 102 50
Width: 266
VWidth: 0
Flags: HW
LayerCount: 2
Back
Fore
SplineSet
62.7861328125 386 m 1
 58.7861328125 405 63.7861328125 430 66.7861328125 450 c 0
 78.7861328125 522 121.786132812 610 204.786132812 614 c 0
 279.786132812 617 369.786132812 538 339.786132812 458 c 0
 326.786132812 423 275.786132812 420 257.786132812 452 c 0
 248.786132812 467 255.786132812 487 245.786132812 500 c 0
 238.786132812 509 224.786132812 517 212.786132812 517 c 0
 200.786132812 517 189.786132812 501 183.786132812 492 c 0
 162.786132812 459 168.786132812 424 160.786132812 388 c 1
 183.786132812 388 215.786132812 393 236.786132812 381 c 0
 263.786132812 365 266.786132812 323 240.786132812 304 c 0
 220.786132812 289 188.786132812 289 164.786132812 288 c 1
 164.786132812 218 170.786132812 148 176.786132812 78 c 0
 178.786132812 51 186.786132812 17 164.786132812 -4 c 0
 139.786132812 -27 96.7861328125 -14 89.7861328125 20 c 0
 70.7861328125 106 64.7861328125 202 64.7861328125 290 c 1
 41.7861328125 285 -9.2138671875 288 -29.2138671875 301 c 0
 -54.2138671875 317 -57.2138671875 354 -35.2138671875 374 c 0
 -11.2138671875 396 32.7861328125 379 62.7861328125 386 c 1
EndSplineSet
EndChar

StartChar: x
Encoding: 120 120 51
Width: 380
VWidth: 0
Flags: HW
LayerCount: 2
Back
Fore
SplineSet
176.389648438 274 m 1
 191.389648438 309 225.389648438 342 249.389648438 370 c 0
 260.389648438 382 271.389648438 399 286.389648438 407 c 0
 317.389648438 425 362.389648438 406 359.389648438 367 c 0
 357.389648438 344 341.389648438 334 328.389648438 318 c 0
 305.389648438 290 283.389648438 260 263.389648438 230 c 0
 257.389648438 221 240.389648438 204 239.389648438 193 c 0
 238.389648438 183 257.389648438 166 263.389648438 158 c 0
 281.389648438 132 316.389648438 94 320.389648438 62 c 0
 324.389648438 26 287.389648438 -1 254.389648438 15 c 0
 225.389648438 29 192.389648438 77 178.389648438 106 c 1
 151.389648438 75 133.389648438 15 96.3896484375 -5 c 0
 61.3896484375 -24 20.3896484375 7 29.3896484375 46 c 0
 37.3896484375 81 65.3896484375 119 84.3896484375 148 c 0
 91.3896484375 158 109.389648438 178 109.389648438 190 c 0
 109.389648438 202 93.3896484375 217 87.3896484375 226 c 0
 65.3896484375 259 30.3896484375 292 14.3896484375 328 c 0
 -2.6103515625 367 32.3896484375 412 74.3896484375 391 c 0
 88.3896484375 384 95.3896484375 371 104.389648438 360 c 0
 126.389648438 333 148.389648438 295 176.389648438 274 c 1
EndSplineSet
EndChar

StartChar: E
Encoding: 69 69 52
Width: 511
VWidth: 0
Flags: HW
LayerCount: 2
Back
Fore
SplineSet
158.518554688 278 m 1
 151.518554688 259 154.518554688 235 153.518554688 215 c 0
 152.518554688 182 149.518554688 149 149.518554688 116 c 0
 149.518554688 105 144.518554688 73 155.518554688 67 c 0
 171.518554688 59 210.518554688 69 228.518554688 70 c 0
 283.518554688 72 339.518554688 73 394.518554688 69 c 0
 430.518554688 66 474.518554688 54 463.518554688 8 c 0
 452.518554688 -39 382.518554688 -28 346.518554688 -28 c 0
 293.518554688 -28 241.518554688 -26 188.518554688 -26 c 0
 164.518554688 -26 134.518554688 -32 112.518554688 -22 c 0
 90.5185546875 -12 67.5185546875 26 60.5185546875 48 c 0
 43.5185546875 101 51.5185546875 169 54.5185546875 224 c 0
 59.5185546875 317 65.5185546875 409 74.5185546875 502 c 0
 77.5185546875 534 83.5185546875 566 84.5185546875 598 c 0
 85.5185546875 617 79.5185546875 634 93.5185546875 650 c 0
 112.518554688 671 152.518554688 669 178.518554688 672 c 0
 253.518554688 680 329.518554688 687 405.518554688 689 c 0
 435.518554688 690 476.518554688 691 488.518554688 656 c 0
 499.518554688 623 473.518554688 599 443.518554688 595 c 0
 390.518554688 588 337.518554688 587 284.518554688 584 c 0
 249.518554688 582 211.518554688 576 176.518554688 580 c 1
 168.518554688 487 l 1
 160.518554688 370 l 1
 236.518554688 385 317.518554688 392 394.518554688 376 c 0
 429.518554688 369 475.518554688 348 455.518554688 304 c 0
 445.518554688 281 421.518554688 276 399.518554688 278 c 0
 348.518554688 283 296.518554688 287 244.518554688 285 c 0
 216.518554688 284 185.518554688 275 158.518554688 278 c 1
EndSplineSet
EndChar

StartChar: T
Encoding: 84 84 53
Width: 506
VWidth: 0
Flags: HW
LayerCount: 2
Back
Fore
SplineSet
214.401367188 591 m 5
 178.401367188 595 140.401367188 591 104.401367188 591 c 4
 90.4013671875 591 73.4013671875 589 60.4013671875 593 c 4
 12.4013671875 609 25.4013671875 674 70.4013671875 682 c 4
 123.401367188 692 182.401367188 684 236.401367188 687 c 4
 281.401367188 690 325.401367188 689 370.401367188 691 c 4
 404.401367188 693 442.401367188 698 475.401367188 694 c 4
 518.401367188 689 532.401367188 629 492.401367188 608 c 4
 475.401367188 599 453.401367188 599 434.401367188 597 c 4
 391.401367188 592 347.401367188 591 304.401367188 591 c 5
 308.401367188 554 301.401367188 505 302.401367188 468 c 0
 304.401367188 356 304.401367188 252 308.401367188 140 c 0
 309.401367188 119 307.401367188 80 308.401367188 59 c 0
 310.401367188 27 315.401367188 -4 274.401367188 -13 c 0
 207.401367188 -28 212.401367188 93 210.401367188 132 c 0
 204.401367188 245 202.401367188 351 208.401367188 464 c 0
 210.401367188 502 206.401367188 554 214.401367188 591 c 5
EndSplineSet
EndChar

StartChar: three
Encoding: 51 51 54
Width: 476
VWidth: 0
Flags: HW
LayerCount: 2
Back
Fore
SplineSet
340.2734375 420 m 1
 418.2734375 402 444.2734375 318 445.2734375 248 c 0
 446.2734375 206 445.2734375 162 430.2734375 122 c 0
 401.2734375 43 323.2734375 -15 238.2734375 -10 c 0
 183.2734375 -7 122.2734375 9 72.2734375 31 c 0
 47.2734375 42 24.2734375 60 31.2734375 90 c 0
 44.2734375 146 101.2734375 117 136.2734375 107 c 0
 175.2734375 96 233.2734375 74 274.2734375 89 c 0
 295.2734375 97 314.2734375 117 326.2734375 136 c 0
 334.2734375 148 339.2734375 161 342.2734375 175 c 0
 350.2734375 219 360.2734375 323 295.2734375 328 c 0
 250.2734375 331 184.2734375 245 148.2734375 312 c 0
 144.2734375 319 142.2734375 327 141.2734375 335 c 0
 138.2734375 373 180.2734375 388 204.2734375 409 c 0
 235.2734375 436 260.2734375 477 278.2734375 514 c 0
 285.2734375 528 305.2734375 568 294.2734375 583 c 0
 288.2734375 592 274.2734375 597 264.2734375 600 c 0
 224.2734375 612 178.2734375 588 161.2734375 550 c 0
 151.2734375 529 159.2734375 503 140.2734375 486 c 0
 118.2734375 466 83.2734375 472 69.2734375 498 c 0
 62.2734375 511 63.2734375 527 64.2734375 541 c 0
 75.2734375 653 199.2734375 723 302.2734375 688 c 0
 339.2734375 675 375.2734375 653 389.2734375 614 c 0
 413.2734375 549 369.2734375 475 340.2734375 420 c 1
EndSplineSet
EndChar

StartChar: hyphen
Encoding: 45 45 55
Width: 408
VWidth: 0
Flags: HW
LayerCount: 2
Back
Fore
SplineSet
132.524414062 267 m 0
 176.524414062 272 223.524414062 268 267.524414062 268 c 0
 293.524414062 268 324.524414062 272 349.524414062 262 c 0
 395.524414062 244 381.524414062 181 337.524414062 173 c 0
 271.524414062 161 203.524414062 172 137.524414062 172 c 0
 113.524414062 172 82.5244140625 158 59.5244140625 167 c 0
 27.5244140625 179 19.5244140625 223 45.5244140625 245 c 0
 67.5244140625 263 105.524414062 264 132.524414062 267 c 0
EndSplineSet
EndChar

StartChar: at
Encoding: 64 64 56
Width: 646
VWidth: 0
Flags: HW
LayerCount: 2
Back
Fore
SplineSet
343.36328125 685 m 0
 430.36328125 696 503.36328125 641 556.36328125 578 c 0
 581.36328125 548 604.36328125 512 612.36328125 472 c 0
 628.36328125 390 589.36328125 299 522.36328125 251 c 0
 486.36328125 225 436.36328125 209 394.36328125 228 c 0
 382.36328125 233 364.36328125 256 353.36328125 257 c 0
 344.36328125 258 330.36328125 244 322.36328125 239 c 0
 303.36328125 228 280.36328125 219 258.36328125 218 c 0
 204.36328125 215 148.36328125 254 148.36328125 312 c 0
 148.36328125 343 166.36328125 377 183.36328125 402 c 0
 230.36328125 471 341.36328125 556 419.36328125 475 c 0
 439.36328125 454 447.36328125 424 440.36328125 396 c 0
 436.36328125 381 428.36328125 368 427.36328125 353 c 0
 426.36328125 332 432.36328125 313 456.36328125 327 c 0
 496.36328125 352 525.36328125 409 513.36328125 456 c 0
 507.36328125 478 491.36328125 499 477.36328125 516 c 0
 435.36328125 567 382.36328125 601 316.36328125 576 c 0
 263.36328125 556 229.36328125 516 196.36328125 472 c 0
 146.36328125 405 94.36328125 322 156.36328125 244 c 0
 169.36328125 228 185.36328125 214 202.36328125 202 c 0
 219.36328125 189 243.36328125 171 264.36328125 167 c 0
 318.36328125 156 388.36328125 160 438.36328125 183 c 0
 471.36328125 198 508.36328125 244 546.36328125 218 c 0
 599.36328125 181 536.36328125 129 502.36328125 111 c 0
 458.36328125 87 410.36328125 75 360.36328125 70 c 0
 317.36328125 65 267.36328125 65 226.36328125 78 c 0
 195.36328125 88 163.36328125 110 138.36328125 129 c 0
 96.36328125 162 58.36328125 200 41.36328125 252 c 0
 9.36328125 351 49.36328125 439 106.36328125 518 c 0
 166.36328125 602 237.36328125 671 343.36328125 685 c 0
246.36328125 314 m 1
 287.36328125 316 310.36328125 355 330.36328125 386 c 0
 336.36328125 395 345.36328125 402 350.36328125 412 c 1
 307.36328125 422 252.36328125 353 246.36328125 314 c 1
EndSplineSet
EndChar

StartChar: parenright
Encoding: 41 41 57
Width: 294
VWidth: 0
Flags: HW
LayerCount: 2
Back
Fore
SplineSet
115.72265625 741 m 0
 138.72265625 745 162.72265625 726 177.72265625 710 c 0
 212.72265625 672 234.72265625 622 246.72265625 572 c 0
 287.72265625 410 251.72265625 236 182.72265625 86 c 0
 165.72265625 49 148.72265625 12 122.72265625 -20 c 0
 110.72265625 -35 96.72265625 -50 76.72265625 -50 c 0
 41.72265625 -51 18.72265625 -13 35.72265625 18 c 0
 48.72265625 43 65.72265625 64 77.72265625 90 c 0
 97.72265625 130 111.72265625 173 125.72265625 216 c 0
 163.72265625 335 186.72265625 467 142.72265625 588 c 0
 135.72265625 607 126.72265625 628 112.72265625 644 c 0
 103.72265625 654 89.72265625 660 82.72265625 672 c 0
 65.72265625 700 83.72265625 736 115.72265625 741 c 0
EndSplineSet
EndChar

StartChar: grave
Encoding: 96 96 58
Width: 255
VWidth: 0
Flags: HW
LayerCount: 2
Back
Fore
SplineSet
64.0751953125 737 m 0
 90.0751953125 743 102.075195312 726 120.075195312 712 c 0
 150.075195312 689 194.075195312 677 216.075195312 644 c 0
 234.075195312 617 225.075195312 579 192.075195312 570 c 0
 173.075195312 565 156.075195312 573 140.075195312 582 c 0
 104.075195312 601 62.0751953125 628 39.0751953125 662 c 0
 21.0751953125 689 30.0751953125 729 64.0751953125 737 c 0
EndSplineSet
EndChar

StartChar: a
Encoding: 97 97 59
Width: 519
VWidth: 0
Flags: HW
LayerCount: 2
Back
Fore
SplineSet
341.618164062 62 m 1
 287.618164062 19 237.618164062 -20 164.618164062 -18 c 0
 148.618164062 -18 130.618164062 -14 115.618164062 -8 c 0
 -16.3818359375 40 26.6181640625 232 95.6181640625 316 c 0
 159.618164062 394 278.618164062 437 361.618164062 360 c 0
 374.618164062 348 385.618164062 334 394.618164062 318 c 0
 429.618164062 254 415.618164062 185 430.618164062 116 c 0
 434.618164062 98 441.618164062 77 453.618164062 62 c 0
 470.618164062 41 497.618164062 29 486.618164062 -4 c 0
 476.618164062 -34 443.618164062 -43 417.618164062 -28 c 0
 380.618164062 -6 358.618164062 30 345.618164062 70 c 1
 339.618164062 66 l 1
 341.618164062 62 l 1
265.618164062 378 m 1
 267.618164062 376 l 1
 265.618164062 378 l 1
219.618164062 374 m 1
 221.618164062 372 l 1
 219.618164062 374 l 1
215.618164062 372 m 1
 217.618164062 370 l 1
 215.618164062 372 l 1
231.618164062 372 m 1
 233.618164062 370 l 1
 231.618164062 372 l 1
257.618164062 372 m 1
 259.618164062 370 l 1
 257.618164062 372 l 1
279.618164062 372 m 1
 281.618164062 370 l 1
 279.618164062 372 l 1
245.618164062 370 m 1
 247.618164062 368 l 1
 245.618164062 370 l 1
291.618164062 370 m 1
 293.618164062 368 l 1
 291.618164062 370 l 1
303.618164062 368 m 1
 305.618164062 366 l 1
 303.618164062 368 l 1
315.618164062 364 m 1
 317.618164062 362 l 1
 315.618164062 364 l 1
209.618164062 362 m 1
 211.618164062 360 l 1
 209.618164062 362 l 1
205.618164062 360 m 1
 207.618164062 358 l 1
 205.618164062 360 l 1
189.618164062 358 m 1
 191.618164062 356 l 1
 189.618164062 358 l 1
201.618164062 358 m 1
 203.618164062 356 l 1
 201.618164062 358 l 1
275.618164062 358 m 1
 277.618164062 356 l 1
 275.618164062 358 l 1
329.618164062 358 m 1
 331.618164062 356 l 1
 329.618164062 358 l 1
185.618164062 356 m 1
 187.618164062 354 l 1
 185.618164062 356 l 1
271.618164062 356 m 1
 273.618164062 354 l 1
 271.618164062 356 l 1
243.618164062 354 m 1
 245.618164062 352 l 1
 243.618164062 354 l 1
267.618164062 354 m 1
 269.618164062 352 l 1
 267.618164062 354 l 1
237.618164062 352 m 1
 239.618164062 350 l 1
 237.618164062 352 l 1
257.618164062 352 m 1
 259.618164062 350 l 1
 257.618164062 352 l 1
291.618164062 352 m 1
 293.618164062 350 l 1
 291.618164062 352 l 1
233.618164062 350 m 1
 235.618164062 348 l 1
 233.618164062 350 l 1
303.618164062 350 m 1
 305.618164062 348 l 1
 303.618164062 350 l 1
343.618164062 350 m 1
 345.618164062 348 l 1
 343.618164062 350 l 1
229.618164062 348 m 1
 231.618164062 346 l 1
 229.618164062 348 l 1
177.618164062 346 m 1
 179.618164062 344 l 1
 177.618164062 346 l 1
317.618164062 346 m 1
 319.618164062 344 l 1
 317.618164062 346 l 1
357.618164062 346 m 1
 359.618164062 344 l 1
 357.618164062 346 l 1
169.618164062 340 m 1
 171.618164062 338 l 1
 169.618164062 340 l 1
331.618164062 340 m 1
 333.618164062 338 l 1
 331.618164062 340 l 1
161.618164062 336 m 1
 163.618164062 334 l 1
 161.618164062 336 l 1
223.618164062 336 m 1
 225.618164062 334 l 1
 223.618164062 336 l 1
157.618164062 334 m 1
 159.618164062 332 l 1
 157.618164062 334 l 1
199.618164062 334 m 1
 201.618164062 332 l 1
 199.618164062 334 l 1
219.618164062 334 m 1
 221.618164062 332 l 1
 219.618164062 334 l 1
293.618164062 334 m 1
 295.618164062 332 l 1
 293.618164062 334 l 1
347.618164062 334 m 1
 349.618164062 332 l 1
 347.618164062 334 l 1
193.618164062 332 m 1
 195.618164062 330 l 1
 193.618164062 332 l 1
211.618164062 332 m 1
 213.618164062 330 l 1
 211.618164062 332 l 1
261.618164062 332 m 1
 263.618164062 330 l 1
 261.618164062 332 l 1
289.618164062 332 m 1
 291.618164062 330 l 1
 289.618164062 332 l 1
307.618164062 332 m 1
 309.618164062 330 l 1
 307.618164062 332 l 1
151.618164062 330 m 1
 153.618164062 328 l 1
 151.618164062 330 l 1
285.618164062 330 m 1
 287.618164062 328 l 1
 285.618164062 330 l 1
275.618164062 328 m 1
 277.618164062 326 l 1
 275.618164062 328 l 1
321.618164062 328 m 1
 323.618164062 326 l 1
 321.618164062 328 l 1
365.618164062 328 m 1
 367.618164062 326 l 1
 365.618164062 328 l 1
123.618164062 326 m 1
 125.618164062 324 l 1
 123.618164062 326 l 1
145.618164062 326 m 1
 147.618164062 324 l 1
 145.618164062 326 l 1
187.618164062 326 m 1
 189.618164062 324 l 1
 187.618164062 326 l 1
361.618164062 326 m 1
 363.618164062 324 l 1
 361.618164062 326 l 1
137.618164062 324 m 1
 139.618164062 322 l 1
 137.618164062 324 l 1
253.618164062 324 m 1
 255.618164062 322 l 1
 253.618164062 324 l 1
337.618164062 324 m 1
 339.618164062 322 l 1
 337.618164062 324 l 1
249.618164062 322 m 1
 251.618164062 320 l 1
 249.618164062 322 l 1
243.618164062 320 m 1
 245.618164062 318 l 1
 243.618164062 320 l 1
117.618164062 316 m 1
 119.618164062 314 l 1
 117.618164062 316 l 1
181.618164062 316 m 1
 183.618164062 314 l 1
 181.618164062 316 l 1
351.618164062 316 m 1
 353.618164062 314 l 1
 351.618164062 316 l 1
381.618164062 316 m 1
 383.618164062 314 l 1
 381.618164062 316 l 1
315.618164062 314 m 1
 317.618164062 312 l 1
 315.618164062 314 l 1
237.618164062 312 m 1
 239.618164062 310 l 1
 237.618164062 312 l 1
271.618164062 312 m 1
 273.618164062 310 l 1
 271.618164062 312 l 1
311.618164062 312 m 1
 313.618164062 310 l 1
 311.618164062 312 l 1
331.618164062 312 m 1
 333.618164062 310 l 1
 331.618164062 312 l 1
215.618164062 310 m 1
 217.618164062 308 l 1
 215.618164062 310 l 1
233.618164062 310 m 1
 235.618164062 308 l 1
 233.618164062 310 l 1
135.618164062 308 m 1
 137.618164062 306 l 1
 135.618164062 308 l 1
175.618164062 308 m 1
 177.618164062 306 l 1
 175.618164062 308 l 1
209.618164062 308 m 1
 211.618164062 306 l 1
 209.618164062 308 l 1
229.618164062 308 m 1
 231.618164062 306 l 1
 229.618164062 308 l 1
173.618164062 262 m 1
 175.618164062 258 l 1
 164.618164062 252 157.618164062 237 152.618164062 226 c 0
 138.618164062 195 128.618164062 162 129.618164062 128 c 0
 129.618164062 117 130.618164062 101 138.618164062 93 c 0
 161.618164062 68 212.618164062 88 235.618164062 102 c 0
 268.618164062 122 287.618164062 158 304.618164062 192 c 0
 310.618164062 203 320.618164062 219 320.618164062 232 c 0
 321.618164062 270 296.618164062 315 251.618164062 307 c 0
 219.618164062 302 198.618164062 279 173.618164062 262 c 1
285.618164062 308 m 1
 287.618164062 306 l 1
 285.618164062 308 l 1
205.618164062 306 m 1
 207.618164062 304 l 1
 205.618164062 306 l 1
303.618164062 306 m 1
 305.618164062 304 l 1
 303.618164062 306 l 1
167.618164062 304 m 1
 169.618164062 302 l 1
 167.618164062 304 l 1
201.618164062 304 m 1
 203.618164062 302 l 1
 201.618164062 304 l 1
345.618164062 304 m 1
 347.618164062 302 l 1
 345.618164062 304 l 1
367.618164062 304 m 1
 369.618164062 302 l 1
 367.618164062 304 l 1
377.618164062 304 m 1
 379.618164062 302 l 1
 377.618164062 304 l 1
163.618164062 302 m 1
 165.618164062 300 l 1
 163.618164062 302 l 1
197.618164062 302 m 1
 199.618164062 300 l 1
 197.618164062 302 l 1
363.618164062 302 m 1
 365.618164062 300 l 1
 363.618164062 302 l 1
127.618164062 300 m 1
 129.618164062 298 l 1
 127.618164062 300 l 1
151.618164062 300 m 1
 153.618164062 298 l 1
 151.618164062 300 l 1
115.618164062 298 m 1
 117.618164062 296 l 1
 115.618164062 298 l 1
329.618164062 294 m 1
 331.618164062 292 l 1
 329.618164062 294 l 1
339.618164062 294 m 1
 341.618164062 292 l 1
 339.618164062 294 l 1
393.618164062 292 m 1
 395.618164062 290 l 1
 393.618164062 292 l 1
145.618164062 290 m 1
 147.618164062 288 l 1
 145.618164062 290 l 1
191.618164062 290 m 1
 193.618164062 288 l 1
 191.618164062 290 l 1
357.618164062 290 m 1
 359.618164062 288 l 1
 357.618164062 290 l 1
319.618164062 288 m 1
 321.618164062 286 l 1
 319.618164062 288 l 1
109.618164062 286 m 1
 111.618164062 284 l 1
 109.618164062 286 l 1
315.618164062 286 m 1
 317.618164062 284 l 1
 315.618164062 286 l 1
139.618164062 284 m 1
 141.618164062 282 l 1
 139.618164062 284 l 1
133.618164062 282 m 1
 135.618164062 280 l 1
 133.618164062 282 l 1
163.618164062 282 m 1
 165.618164062 280 l 1
 163.618164062 282 l 1
183.618164062 282 m 1
 185.618164062 280 l 1
 183.618164062 282 l 1
387.618164062 282 m 1
 389.618164062 280 l 1
 387.618164062 282 l 1
125.618164062 280 m 1
 127.618164062 278 l 1
 125.618164062 280 l 1
381.618164062 280 m 1
 383.618164062 278 l 1
 381.618164062 280 l 1
177.618164062 278 m 1
 179.618164062 276 l 1
 177.618164062 278 l 1
373.618164062 278 m 1
 375.618164062 276 l 1
 373.618164062 278 l 1
103.618164062 276 m 1
 105.618164062 274 l 1
 103.618164062 276 l 1
351.618164062 276 m 1
 353.618164062 274 l 1
 351.618164062 276 l 1
345.618164062 274 m 1
 347.618164062 272 l 1
 345.618164062 274 l 1
337.618164062 272 m 1
 339.618164062 270 l 1
 337.618164062 272 l 1
365.618164062 272 m 1
 367.618164062 270 l 1
 365.618164062 272 l 1
97.6181640625 270 m 1
 99.6181640625 268 l 1
 97.6181640625 270 l 1
121.618164062 268 m 1
 123.618164062 266 l 1
 121.618164062 268 l 1
159.618164062 268 m 1
 161.618164062 266 l 1
 159.618164062 268 l 1
91.6181640625 264 m 1
 93.6181640625 262 l 1
 91.6181640625 264 l 1
151.618164062 258 m 1
 153.618164062 256 l 1
 151.618164062 258 l 1
335.618164062 258 m 1
 337.618164062 256 l 1
 335.618164062 258 l 1
401.618164062 258 m 1
 403.618164062 256 l 1
 401.618164062 258 l 1
117.618164062 256 m 1
 119.618164062 254 l 1
 117.618164062 256 l 1
139.618164062 256 m 1
 141.618164062 254 l 1
 139.618164062 256 l 1
397.618164062 256 m 1
 399.618164062 254 l 1
 397.618164062 256 l 1
135.618164062 254 m 1
 137.618164062 252 l 1
 135.618164062 254 l 1
379.618164062 254 m 1
 381.618164062 252 l 1
 379.618164062 254 l 1
389.618164062 254 m 1
 391.618164062 252 l 1
 389.618164062 254 l 1
365.618164062 252 m 1
 367.618164062 250 l 1
 365.618164062 252 l 1
375.618164062 252 m 1
 377.618164062 250 l 1
 375.618164062 252 l 1
87.6181640625 250 m 1
 89.6181640625 248 l 1
 87.6181640625 250 l 1
359.618164062 250 m 1
 361.618164062 248 l 1
 359.618164062 250 l 1
111.618164062 248 m 1
 113.618164062 246 l 1
 111.618164062 248 l 1
329.618164062 248 m 1
 331.618164062 246 l 1
 329.618164062 248 l 1
353.618164062 248 m 1
 355.618164062 246 l 1
 353.618164062 248 l 1
105.618164062 244 m 1
 107.618164062 242 l 1
 105.618164062 244 l 1
131.618164062 240 m 1
 133.618164062 238 l 1
 131.618164062 240 l 1
347.618164062 240 m 1
 349.618164062 238 l 1
 347.618164062 240 l 1
83.6181640625 238 m 1
 85.6181640625 236 l 1
 83.6181640625 238 l 1
99.6181640625 234 m 1
 101.618164062 232 l 1
 99.6181640625 234 l 1
149.618164062 232 m 1
 151.618164062 230 l 1
 149.618164062 232 l 1
341.618164062 232 m 1
 343.618164062 230 l 1
 341.618164062 232 l 1
77.6181640625 230 m 1
 79.6181640625 228 l 1
 77.6181640625 230 l 1
407.618164062 230 m 1
 409.618164062 228 l 1
 407.618164062 230 l 1
127.618164062 228 m 1
 129.618164062 226 l 1
 127.618164062 228 l 1
395.618164062 228 m 1
 397.618164062 226 l 1
 395.618164062 228 l 1
387.618164062 226 m 1
 389.618164062 224 l 1
 387.618164062 226 l 1
121.618164062 224 m 1
 123.618164062 222 l 1
 121.618164062 224 l 1
377.618164062 224 m 1
 379.618164062 222 l 1
 377.618164062 224 l 1
143.618164062 222 m 1
 145.618164062 220 l 1
 143.618164062 222 l 1
337.618164062 222 m 1
 339.618164062 220 l 1
 337.618164062 222 l 1
369.618164062 222 m 1
 371.618164062 220 l 1
 369.618164062 222 l 1
115.618164062 220 m 1
 117.618164062 218 l 1
 115.618164062 220 l 1
363.618164062 220 m 1
 365.618164062 218 l 1
 363.618164062 220 l 1
71.6181640625 218 m 1
 73.6181640625 216 l 1
 71.6181640625 218 l 1
95.6181640625 218 m 1
 97.6181640625 216 l 1
 95.6181640625 218 l 1
359.618164062 218 m 1
 361.618164062 216 l 1
 359.618164062 218 l 1
109.618164062 216 m 1
 111.618164062 214 l 1
 109.618164062 216 l 1
89.6181640625 212 m 1
 91.6181640625 210 l 1
 89.6181640625 212 l 1
65.6181640625 210 m 1
 67.6181640625 208 l 1
 65.6181640625 210 l 1
411.618164062 210 m 1
 413.618164062 208 l 1
 411.618164062 210 l 1
353.618164062 208 m 1
 355.618164062 206 l 1
 353.618164062 208 l 1
407.618164062 208 m 1
 409.618164062 206 l 1
 407.618164062 208 l 1
335.618164062 204 m 1
 337.618164062 202 l 1
 335.618164062 204 l 1
347.618164062 204 m 1
 349.618164062 202 l 1
 347.618164062 204 l 1
401.618164062 204 m 1
 403.618164062 202 l 1
 401.618164062 204 l 1
83.6181640625 202 m 1
 85.6181640625 200 l 1
 83.6181640625 202 l 1
393.618164062 202 m 1
 395.618164062 200 l 1
 393.618164062 202 l 1
59.6181640625 200 m 1
 61.6181640625 198 l 1
 59.6181640625 200 l 1
109.618164062 198 m 1
 111.618164062 196 l 1
 109.618164062 198 l 1
135.618164062 198 m 1
 137.618164062 196 l 1
 135.618164062 198 l 1
105.618164062 196 m 1
 107.618164062 194 l 1
 105.618164062 196 l 1
385.618164062 196 m 1
 387.618164062 194 l 1
 385.618164062 196 l 1
127.618164062 194 m 1
 129.618164062 192 l 1
 127.618164062 194 l 1
381.618164062 194 m 1
 383.618164062 192 l 1
 381.618164062 194 l 1
375.618164062 192 m 1
 377.618164062 190 l 1
 375.618164062 192 l 1
75.6181640625 190 m 1
 77.6181640625 188 l 1
 75.6181640625 190 l 1
333.618164062 190 m 1
 335.618164062 188 l 1
 333.618164062 190 l 1
371.618164062 190 m 1
 373.618164062 188 l 1
 371.618164062 190 l 1
97.6181640625 188 m 1
 99.6181640625 186 l 1
 97.6181640625 188 l 1
55.6181640625 186 m 1
 57.6181640625 184 l 1
 55.6181640625 186 l 1
91.6181640625 184 m 1
 93.6181640625 182 l 1
 91.6181640625 184 l 1
349.618164062 184 m 1
 351.618164062 182 l 1
 349.618164062 184 l 1
363.618164062 184 m 1
 365.618164062 182 l 1
 363.618164062 184 l 1
69.6181640625 180 m 1
 71.6181640625 178 l 1
 69.6181640625 180 l 1
125.618164062 180 m 1
 127.618164062 178 l 1
 125.618164062 180 l 1
327.618164062 178 m 1
 329.618164062 176 l 1
 327.618164062 178 l 1
409.618164062 178 m 1
 411.618164062 176 l 1
 409.618164062 178 l 1
405.618164062 176 m 1
 407.618164062 174 l 1
 405.618164062 176 l 1
119.618164062 174 m 1
 121.618164062 172 l 1
 119.618164062 174 l 1
85.6181640625 172 m 1
 87.6181640625 170 l 1
 85.6181640625 172 l 1
343.618164062 172 m 1
 345.618164062 170 l 1
 343.618164062 172 l 1
51.6181640625 170 m 1
 53.6181640625 168 l 1
 51.6181640625 170 l 1
113.618164062 170 m 1
 115.618164062 168 l 1
 113.618164062 170 l 1
63.6181640625 168 m 1
 65.6181640625 166 l 1
 63.6181640625 168 l 1
361.618164062 168 m 1
 363.618164062 166 l 1
 361.618164062 168 l 1
399.618164062 168 m 1
 401.618164062 166 l 1
 399.618164062 168 l 1
105.618164062 164 m 1
 107.618164062 162 l 1
 105.618164062 164 l 1
323.618164062 164 m 1
 325.618164062 162 l 1
 323.618164062 164 l 1
379.618164062 164 m 1
 381.618164062 162 l 1
 379.618164062 164 l 1
393.618164062 164 m 1
 395.618164062 162 l 1
 393.618164062 164 l 1
375.618164062 162 m 1
 377.618164062 160 l 1
 375.618164062 162 l 1
79.6181640625 160 m 1
 81.6181640625 158 l 1
 79.6181640625 160 l 1
337.618164062 160 m 1
 339.618164062 158 l 1
 337.618164062 160 l 1
99.6181640625 158 m 1
 101.618164062 156 l 1
 99.6181640625 158 l 1
355.618164062 158 m 1
 357.618164062 156 l 1
 355.618164062 158 l 1
317.618164062 154 m 1
 319.618164062 152 l 1
 317.618164062 154 l 1
53.6181640625 152 m 1
 55.6181640625 150 l 1
 53.6181640625 152 l 1
67.6181640625 150 m 1
 69.6181640625 148 l 1
 67.6181640625 150 l 1
93.6181640625 150 m 1
 95.6181640625 148 l 1
 93.6181640625 150 l 1
311.618164062 150 m 1
 313.618164062 148 l 1
 311.618164062 150 l 1
417.618164062 148 m 1
 419.618164062 146 l 1
 417.618164062 148 l 1
349.618164062 146 m 1
 351.618164062 144 l 1
 349.618164062 146 l 1
369.618164062 146 m 1
 371.618164062 144 l 1
 369.618164062 146 l 1
85.6181640625 144 m 1
 87.6181640625 142 l 1
 85.6181640625 144 l 1
121.618164062 144 m 1
 123.618164062 142 l 1
 121.618164062 144 l 1
305.618164062 144 m 1
 307.618164062 142 l 1
 305.618164062 144 l 1
335.618164062 144 m 1
 337.618164062 142 l 1
 335.618164062 144 l 1
411.618164062 144 m 1
 413.618164062 142 l 1
 411.618164062 144 l 1
81.6181640625 142 m 1
 83.6181640625 140 l 1
 81.6181640625 142 l 1
391.618164062 142 m 1
 393.618164062 140 l 1
 391.618164062 142 l 1
401.618164062 142 m 1
 403.618164062 140 l 1
 401.618164062 142 l 1
385.618164062 140 m 1
 387.618164062 138 l 1
 385.618164062 140 l 1
49.6181640625 138 m 1
 51.6181640625 136 l 1
 49.6181640625 138 l 1
113.618164062 138 m 1
 115.618164062 136 l 1
 113.618164062 138 l 1
363.618164062 136 m 1
 365.618164062 134 l 1
 363.618164062 136 l 1
63.6181640625 134 m 1
 65.6181640625 132 l 1
 63.6181640625 134 l 1
297.618164062 134 m 1
 299.618164062 132 l 1
 297.618164062 134 l 1
75.6181640625 132 m 1
 77.6181640625 130 l 1
 75.6181640625 132 l 1
331.618164062 132 m 1
 333.618164062 130 l 1
 331.618164062 132 l 1
107.618164062 130 m 1
 109.618164062 128 l 1
 107.618164062 130 l 1
347.618164062 128 m 1
 349.618164062 126 l 1
 347.618164062 128 l 1
357.618164062 128 m 1
 359.618164062 126 l 1
 357.618164062 128 l 1
379.618164062 128 m 1
 381.618164062 126 l 1
 379.618164062 128 l 1
291.618164062 126 m 1
 293.618164062 124 l 1
 291.618164062 126 l 1
325.618164062 126 m 1
 327.618164062 124 l 1
 325.618164062 126 l 1
319.618164062 124 m 1
 321.618164062 122 l 1
 319.618164062 124 l 1
101.618164062 122 m 1
 103.618164062 120 l 1
 101.618164062 122 l 1
313.618164062 122 m 1
 315.618164062 120 l 1
 313.618164062 122 l 1
53.6181640625 120 m 1
 55.6181640625 118 l 1
 53.6181640625 120 l 1
411.618164062 120 m 1
 413.618164062 118 l 1
 411.618164062 120 l 1
95.6181640625 118 m 1
 97.6181640625 116 l 1
 95.6181640625 118 l 1
403.618164062 118 m 1
 405.618164062 116 l 1
 403.618164062 118 l 1
67.6181640625 116 m 1
 69.6181640625 114 l 1
 67.6181640625 116 l 1
91.6181640625 116 m 1
 93.6181640625 114 l 1
 91.6181640625 116 l 1
395.618164062 116 m 1
 397.618164062 114 l 1
 395.618164062 116 l 1
87.6181640625 114 m 1
 89.6181640625 112 l 1
 87.6181640625 114 l 1
375.618164062 114 m 1
 377.618164062 112 l 1
 375.618164062 114 l 1
81.6181640625 112 m 1
 83.6181640625 110 l 1
 81.6181640625 112 l 1
123.618164062 112 m 1
 125.618164062 110 l 1
 123.618164062 112 l 1
307.618164062 112 m 1
 309.618164062 110 l 1
 307.618164062 112 l 1
347.618164062 112 m 1
 349.618164062 110 l 1
 347.618164062 112 l 1
287.618164062 110 m 1
 289.618164062 108 l 1
 287.618164062 110 l 1
389.618164062 110 m 1
 391.618164062 108 l 1
 389.618164062 110 l 1
301.618164062 108 m 1
 303.618164062 106 l 1
 301.618164062 108 l 1
367.618164062 108 m 1
 369.618164062 106 l 1
 367.618164062 108 l 1
363.618164062 106 m 1
 365.618164062 104 l 1
 363.618164062 106 l 1
425.618164062 106 m 1
 427.618164062 104 l 1
 425.618164062 106 l 1
51.6181640625 104 m 1
 53.6181640625 102 l 1
 51.6181640625 104 l 1
63.6181640625 102 m 1
 65.6181640625 100 l 1
 63.6181640625 102 l 1
117.618164062 102 m 1
 119.618164062 100 l 1
 117.618164062 102 l 1
341.618164062 102 m 1
 343.618164062 100 l 1
 341.618164062 102 l 1
281.618164062 100 m 1
 283.618164062 98 l 1
 281.618164062 100 l 1
335.618164062 98 m 1
 337.618164062 96 l 1
 335.618164062 98 l 1
77.6181640625 96 m 1
 79.6181640625 94 l 1
 77.6181640625 96 l 1
329.618164062 96 m 1
 331.618164062 94 l 1
 329.618164062 96 l 1
325.618164062 94 m 1
 327.618164062 92 l 1
 325.618164062 94 l 1
359.618164062 94 m 1
 361.618164062 92 l 1
 359.618164062 94 l 1
415.618164062 94 m 1
 417.618164062 92 l 1
 415.618164062 94 l 1
253.618164062 92 m 1
 255.618164062 90 l 1
 253.618164062 92 l 1
275.618164062 92 m 1
 277.618164062 90 l 1
 275.618164062 92 l 1
299.618164062 92 m 1
 301.618164062 90 l 1
 299.618164062 92 l 1
385.618164062 92 m 1
 387.618164062 90 l 1
 385.618164062 92 l 1
409.618164062 92 m 1
 411.618164062 90 l 1
 409.618164062 92 l 1
113.618164062 90 m 1
 115.618164062 88 l 1
 113.618164062 90 l 1
269.618164062 90 m 1
 271.618164062 88 l 1
 269.618164062 90 l 1
319.618164062 90 m 1
 321.618164062 88 l 1
 319.618164062 90 l 1
399.618164062 90 m 1
 401.618164062 88 l 1
 399.618164062 90 l 1
109.618164062 88 m 1
 111.618164062 86 l 1
 109.618164062 88 l 1
53.6181640625 86 m 1
 55.6181640625 84 l 1
 53.6181640625 86 l 1
95.6181640625 86 m 1
 97.6181640625 84 l 1
 95.6181640625 86 l 1
67.6181640625 84 m 1
 69.6181640625 82 l 1
 67.6181640625 84 l 1
91.6181640625 84 m 1
 93.6181640625 82 l 1
 91.6181640625 84 l 1
131.618164062 82 m 1
 133.618164062 80 l 1
 131.618164062 82 l 1
247.618164062 82 m 1
 249.618164062 80 l 1
 247.618164062 82 l 1
295.618164062 82 m 1
 297.618164062 80 l 1
 295.618164062 82 l 1
313.618164062 82 m 1
 315.618164062 80 l 1
 313.618164062 82 l 1
377.618164062 82 m 1
 379.618164062 80 l 1
 377.618164062 82 l 1
431.618164062 82 m 1
 433.618164062 80 l 1
 431.618164062 82 l 1
357.618164062 80 m 1
 359.618164062 78 l 1
 357.618164062 80 l 1
83.6181640625 78 m 1
 85.6181640625 76 l 1
 83.6181640625 78 l 1
265.618164062 76 m 1
 267.618164062 74 l 1
 265.618164062 76 l 1
241.618164062 74 m 1
 243.618164062 72 l 1
 241.618164062 74 l 1
393.618164062 74 m 1
 395.618164062 72 l 1
 393.618164062 74 l 1
237.618164062 72 m 1
 239.618164062 70 l 1
 237.618164062 72 l 1
371.618164062 72 m 1
 373.618164062 70 l 1
 371.618164062 72 l 1
233.618164062 70 m 1
 235.618164062 68 l 1
 233.618164062 70 l 1
287.618164062 70 m 1
 289.618164062 68 l 1
 287.618164062 70 l 1
351.618164062 70 m 1
 353.618164062 68 l 1
 351.618164062 70 l 1
405.618164062 70 m 1
 407.618164062 68 l 1
 405.618164062 70 l 1
423.618164062 70 m 1
 425.618164062 68 l 1
 423.618164062 70 l 1
55.6181640625 68 m 1
 57.6181640625 66 l 1
 55.6181640625 68 l 1
65.6181640625 68 m 1
 67.6181640625 66 l 1
 65.6181640625 68 l 1
77.6181640625 68 m 1
 79.6181640625 66 l 1
 77.6181640625 68 l 1
125.618164062 68 m 1
 127.618164062 66 l 1
 125.618164062 68 l 1
227.618164062 68 m 1
 229.618164062 66 l 1
 227.618164062 68 l 1
417.618164062 68 m 1
 419.618164062 66 l 1
 417.618164062 68 l 1
111.618164062 66 m 1
 113.618164062 64 l 1
 111.618164062 66 l 1
121.618164062 66 m 1
 123.618164062 64 l 1
 121.618164062 66 l 1
221.618164062 66 m 1
 223.618164062 64 l 1
 221.618164062 66 l 1
281.618164062 66 m 1
 283.618164062 64 l 1
 281.618164062 66 l 1
307.618164062 66 m 1
 309.618164062 64 l 1
 307.618164062 66 l 1
141.618164062 64 m 1
 143.618164062 62 l 1
 141.618164062 64 l 1
217.618164062 64 m 1
 219.618164062 62 l 1
 217.618164062 64 l 1
261.618164062 64 m 1
 263.618164062 62 l 1
 261.618164062 64 l 1
303.618164062 64 m 1
 305.618164062 62 l 1
 303.618164062 64 l 1
323.618164062 64 m 1
 325.618164062 62 l 1
 323.618164062 64 l 1
335.618164062 64 m 1
 337.618164062 62 l 1
 335.618164062 64 l 1
105.618164062 62 m 1
 107.618164062 60 l 1
 105.618164062 62 l 1
387.618164062 62 m 1
 389.618164062 60 l 1
 387.618164062 62 l 1
101.618164062 60 m 1
 103.618164062 58 l 1
 101.618164062 60 l 1
153.618164062 60 m 1
 155.618164062 58 l 1
 153.618164062 60 l 1
211.618164062 60 m 1
 213.618164062 58 l 1
 211.618164062 60 l 1
95.6181640625 58 m 1
 97.6181640625 56 l 1
 95.6181640625 58 l 1
167.618164062 56 m 1
 169.618164062 54 l 1
 167.618164062 56 l 1
205.618164062 56 m 1
 207.618164062 54 l 1
 205.618164062 56 l 1
367.618164062 56 m 1
 369.618164062 54 l 1
 367.618164062 56 l 1
439.618164062 56 m 1
 441.618164062 54 l 1
 439.618164062 56 l 1
201.618164062 54 m 1
 203.618164062 52 l 1
 201.618164062 54 l 1
275.618164062 54 m 1
 277.618164062 52 l 1
 275.618164062 54 l 1
379.618164062 54 m 1
 381.618164062 52 l 1
 379.618164062 54 l 1
403.618164062 54 m 1
 405.618164062 52 l 1
 403.618164062 54 l 1
185.618164062 52 m 1
 187.618164062 50 l 1
 185.618164062 52 l 1
197.618164062 52 m 1
 199.618164062 50 l 1
 197.618164062 52 l 1
87.6181640625 50 m 1
 89.6181640625 48 l 1
 87.6181640625 50 l 1
181.618164062 50 m 1
 183.618164062 48 l 1
 181.618164062 50 l 1
63.6181640625 48 m 1
 65.6181640625 46 l 1
 63.6181640625 48 l 1
75.6181640625 48 m 1
 77.6181640625 46 l 1
 75.6181640625 48 l 1
257.618164062 48 m 1
 259.618164062 46 l 1
 257.618164062 48 l 1
299.618164062 48 m 1
 301.618164062 46 l 1
 299.618164062 48 l 1
417.618164062 48 m 1
 419.618164062 46 l 1
 417.618164062 48 l 1
139.618164062 46 m 1
 141.618164062 44 l 1
 139.618164062 46 l 1
269.618164062 46 m 1
 271.618164062 44 l 1
 269.618164062 46 l 1
295.618164062 46 m 1
 297.618164062 44 l 1
 295.618164062 46 l 1
319.618164062 46 m 1
 321.618164062 44 l 1
 319.618164062 46 l 1
431.618164062 46 m 1
 433.618164062 44 l 1
 431.618164062 46 l 1
151.618164062 44 m 1
 153.618164062 42 l 1
 151.618164062 44 l 1
397.618164062 44 m 1
 399.618164062 42 l 1
 397.618164062 44 l 1
133.618164062 42 m 1
 135.618164062 40 l 1
 133.618164062 42 l 1
453.618164062 42 m 1
 455.618164062 40 l 1
 453.618164062 42 l 1
129.618164062 40 m 1
 131.618164062 38 l 1
 129.618164062 40 l 1
165.618164062 40 m 1
 167.618164062 38 l 1
 165.618164062 40 l 1
289.618164062 40 m 1
 291.618164062 38 l 1
 289.618164062 40 l 1
247.618164062 38 m 1
 249.618164062 36 l 1
 247.618164062 38 l 1
447.618164062 38 m 1
 449.618164062 36 l 1
 447.618164062 38 l 1
123.618164062 36 m 1
 125.618164062 34 l 1
 123.618164062 36 l 1
243.618164062 36 m 1
 245.618164062 34 l 1
 243.618164062 36 l 1
375.618164062 36 m 1
 377.618164062 34 l 1
 375.618164062 36 l 1
389.618164062 36 m 1
 391.618164062 34 l 1
 389.618164062 36 l 1
119.618164062 34 m 1
 121.618164062 32 l 1
 119.618164062 34 l 1
179.618164062 34 m 1
 181.618164062 32 l 1
 179.618164062 34 l 1
235.618164062 34 m 1
 237.618164062 32 l 1
 235.618164062 34 l 1
95.6181640625 32 m 1
 97.6181640625 30 l 1
 95.6181640625 32 l 1
105.618164062 32 m 1
 107.618164062 30 l 1
 105.618164062 32 l 1
231.618164062 32 m 1
 233.618164062 30 l 1
 231.618164062 32 l 1
413.618164062 32 m 1
 415.618164062 30 l 1
 413.618164062 32 l 1
81.6181640625 30 m 1
 83.6181640625 28 l 1
 81.6181640625 30 l 1
91.6181640625 30 m 1
 93.6181640625 28 l 1
 91.6181640625 30 l 1
227.618164062 30 m 1
 229.618164062 28 l 1
 227.618164062 30 l 1
263.618164062 30 m 1
 265.618164062 28 l 1
 263.618164062 30 l 1
425.618164062 30 m 1
 427.618164062 28 l 1
 425.618164062 30 l 1
75.6181640625 28 m 1
 77.6181640625 26 l 1
 75.6181640625 28 l 1
199.618164062 28 m 1
 201.618164062 26 l 1
 199.618164062 28 l 1
223.618164062 28 m 1
 225.618164062 26 l 1
 223.618164062 28 l 1
281.618164062 28 m 1
 283.618164062 26 l 1
 281.618164062 28 l 1
437.618164062 28 m 1
 439.618164062 26 l 1
 437.618164062 28 l 1
195.618164062 26 m 1
 197.618164062 24 l 1
 195.618164062 26 l 1
219.618164062 26 m 1
 221.618164062 24 l 1
 219.618164062 26 l 1
277.618164062 26 m 1
 279.618164062 24 l 1
 277.618164062 26 l 1
157.618164062 24 m 1
 159.618164062 22 l 1
 157.618164062 24 l 1
213.618164062 24 m 1
 215.618164062 22 l 1
 213.618164062 24 l 1
405.618164062 24 m 1
 407.618164062 22 l 1
 405.618164062 24 l 1
471.618164062 24 m 1
 473.618164062 22 l 1
 471.618164062 24 l 1
169.618164062 22 m 1
 171.618164062 20 l 1
 169.618164062 22 l 1
467.618164062 22 m 1
 469.618164062 20 l 1
 467.618164062 22 l 1
385.618164062 20 m 1
 387.618164062 18 l 1
 385.618164062 20 l 1
397.618164062 18 m 1
 399.618164062 16 l 1
 397.618164062 18 l 1
459.618164062 18 m 1
 461.618164062 16 l 1
 459.618164062 18 l 1
151.618164062 16 m 1
 153.618164062 14 l 1
 151.618164062 16 l 1
183.618164062 16 m 1
 185.618164062 14 l 1
 183.618164062 16 l 1
451.618164062 16 m 1
 453.618164062 14 l 1
 451.618164062 16 l 1
117.618164062 14 m 1
 119.618164062 12 l 1
 117.618164062 14 l 1
145.618164062 12 m 1
 147.618164062 10 l 1
 145.618164062 12 l 1
261.618164062 12 m 1
 263.618164062 10 l 1
 261.618164062 12 l 1
271.618164062 12 m 1
 273.618164062 10 l 1
 271.618164062 12 l 1
423.618164062 12 m 1
 425.618164062 10 l 1
 423.618164062 12 l 1
141.618164062 10 m 1
 143.618164062 8 l 1
 141.618164062 10 l 1
435.618164062 10 m 1
 437.618164062 8 l 1
 435.618164062 10 l 1
131.618164062 8 m 1
 133.618164062 6 l 1
 131.618164062 8 l 1
109.618164062 6 m 1
 111.618164062 4 l 1
 109.618164062 6 l 1
197.618164062 6 m 1
 199.618164062 4 l 1
 197.618164062 6 l 1
255.618164062 6 m 1
 257.618164062 4 l 1
 255.618164062 6 l 1
417.618164062 6 m 1
 419.618164062 4 l 1
 417.618164062 6 l 1
105.618164062 4 m 1
 107.618164062 2 l 1
 105.618164062 4 l 1
175.618164062 4 m 1
 177.618164062 2 l 1
 175.618164062 4 l 1
211.618164062 4 m 1
 213.618164062 2 l 1
 211.618164062 4 l 1
169.618164062 2 m 1
 171.618164062 0 l 1
 169.618164062 2 l 1
393.618164062 2 m 1
 395.618164062 0 l 1
 393.618164062 2 l 1
449.618164062 2 m 1
 451.618164062 0 l 1
 449.618164062 2 l 1
411.618164062 0 m 1
 413.618164062 -2 l 1
 411.618164062 0 l 1
191.618164062 -2 m 1
 193.618164062 -4 l 1
 191.618164062 -2 l 1
225.618164062 -4 m 1
 227.618164062 -6 l 1
 225.618164062 -4 l 1
479.618164062 -4 m 1
 481.618164062 -6 l 1
 479.618164062 -4 l 1
127.618164062 -6 m 1
 129.618164062 -8 l 1
 127.618164062 -6 l 1
469.618164062 -6 m 1
 471.618164062 -8 l 1
 469.618164062 -6 l 1
465.618164062 -8 m 1
 467.618164062 -10 l 1
 465.618164062 -8 l 1
437.618164062 -10 m 1
 439.618164062 -12 l 1
 437.618164062 -10 l 1
163.618164062 -12 m 1
 165.618164062 -14 l 1
 163.618164062 -12 l 1
157.618164062 -14 m 1
 159.618164062 -16 l 1
 157.618164062 -14 l 1
409.618164062 -14 m 1
 411.618164062 -16 l 1
 409.618164062 -14 l 1
451.618164062 -14 m 1
 453.618164062 -16 l 1
 451.618164062 -14 l 1
431.618164062 -16 m 1
 433.618164062 -18 l 1
 431.618164062 -16 l 1
427.618164062 -18 m 1
 429.618164062 -20 l 1
 427.618164062 -18 l 1
463.618164062 -28 m 1
 465.618164062 -30 l 1
 463.618164062 -28 l 1
459.618164062 -30 m 1
 461.618164062 -32 l 1
 459.618164062 -30 l 1
451.618164062 -32 m 1
 453.618164062 -34 l 1
 451.618164062 -32 l 1
EndSplineSet
EndChar

StartChar: t
Encoding: 116 116 60
Width: 272
VWidth: 0
Flags: HW
LayerCount: 2
Back
Fore
SplineSet
83.7578125 408 m 1
 87.7578125 443 84.7578125 479 83.7578125 514 c 0
 83.7578125 531 79.7578125 548 88.7578125 564 c 0
 106.7578125 595 152.7578125 593 168.7578125 562 c 0
 176.7578125 546 174.7578125 520 175.7578125 502 c 0
 176.7578125 471 178.7578125 441 179.7578125 410 c 1
 200.7578125 411 227.7578125 418 247.7578125 407 c 0
 275.7578125 392 279.7578125 351 255.7578125 331 c 0
 237.7578125 316 205.7578125 312 183.7578125 312 c 1
 183.7578125 223 185.7578125 133 185.7578125 44 c 0
 185.7578125 13 191.7578125 -32 154.7578125 -44 c 0
 103.7578125 -61 93.7578125 -8 90.7578125 28 c 0
 81.7578125 122 85.7578125 218 85.7578125 312 c 1
 67.7578125 312 50.7578125 314 32.7578125 314 c 0
 12.7578125 314 -5.2421875 309 -22.2421875 322 c 0
 -46.2421875 340 -46.2421875 379 -20.2421875 396 c 0
 3.7578125 412 56.7578125 413 83.7578125 408 c 1
141.7578125 554 m 1
 143.7578125 552 l 1
 141.7578125 554 l 1
127.7578125 552 m 1
 129.7578125 550 l 1
 127.7578125 552 l 1
137.7578125 552 m 1
 139.7578125 550 l 1
 137.7578125 552 l 1
121.7578125 550 m 1
 123.7578125 548 l 1
 121.7578125 550 l 1
155.7578125 550 m 1
 157.7578125 548 l 1
 155.7578125 550 l 1
115.7578125 546 m 1
 117.7578125 544 l 1
 115.7578125 546 l 1
107.7578125 536 m 1
 109.7578125 534 l 1
 107.7578125 536 l 1
163.7578125 532 m 1
 165.7578125 530 l 1
 163.7578125 532 l 1
155.7578125 530 m 1
 157.7578125 528 l 1
 155.7578125 530 l 1
101.7578125 528 m 1
 103.7578125 526 l 1
 101.7578125 528 l 1
151.7578125 528 m 1
 153.7578125 526 l 1
 151.7578125 528 l 1
145.7578125 526 m 1
 147.7578125 524 l 1
 145.7578125 526 l 1
127.7578125 524 m 1
 129.7578125 522 l 1
 127.7578125 524 l 1
139.7578125 524 m 1
 141.7578125 522 l 1
 139.7578125 524 l 1
121.7578125 522 m 1
 123.7578125 520 l 1
 121.7578125 522 l 1
101.7578125 512 m 1
 103.7578125 510 l 1
 101.7578125 512 l 1
115.7578125 512 m 1
 117.7578125 510 l 1
 115.7578125 512 l 1
139.7578125 500 m 1
 141.7578125 498 l 1
 139.7578125 500 l 1
135.7578125 498 m 1
 137.7578125 496 l 1
 135.7578125 498 l 1
151.7578125 498 m 1
 153.7578125 496 l 1
 151.7578125 498 l 1
165.7578125 498 m 1
 167.7578125 496 l 1
 165.7578125 498 l 1
113.7578125 496 m 1
 115.7578125 494 l 1
 113.7578125 496 l 1
131.7578125 496 m 1
 133.7578125 494 l 1
 131.7578125 496 l 1
99.7578125 494 m 1
 101.7578125 492 l 1
 99.7578125 494 l 1
109.7578125 494 m 1
 111.7578125 492 l 1
 109.7578125 494 l 1
127.7578125 494 m 1
 129.7578125 492 l 1
 127.7578125 494 l 1
163.7578125 480 m 1
 165.7578125 478 l 1
 163.7578125 480 l 1
103.7578125 474 m 1
 105.7578125 472 l 1
 103.7578125 474 l 1
157.7578125 474 m 1
 159.7578125 472 l 1
 157.7578125 474 l 1
125.7578125 472 m 1
 127.7578125 470 l 1
 125.7578125 472 l 1
117.7578125 470 m 1
 119.7578125 468 l 1
 117.7578125 470 l 1
151.7578125 470 m 1
 153.7578125 468 l 1
 151.7578125 470 l 1
143.7578125 468 m 1
 145.7578125 466 l 1
 143.7578125 468 l 1
139.7578125 466 m 1
 141.7578125 464 l 1
 139.7578125 466 l 1
103.7578125 456 m 1
 105.7578125 454 l 1
 103.7578125 456 l 1
113.7578125 456 m 1
 115.7578125 454 l 1
 113.7578125 456 l 1
135.7578125 450 m 1
 137.7578125 448 l 1
 135.7578125 450 l 1
131.7578125 448 m 1
 133.7578125 446 l 1
 131.7578125 448 l 1
171.7578125 448 m 1
 173.7578125 446 l 1
 171.7578125 448 l 1
165.7578125 444 m 1
 167.7578125 442 l 1
 165.7578125 444 l 1
159.7578125 442 m 1
 161.7578125 440 l 1
 159.7578125 442 l 1
153.7578125 440 m 1
 155.7578125 438 l 1
 153.7578125 440 l 1
103.7578125 438 m 1
 105.7578125 436 l 1
 103.7578125 438 l 1
123.7578125 438 m 1
 125.7578125 436 l 1
 123.7578125 438 l 1
115.7578125 436 m 1
 117.7578125 434 l 1
 115.7578125 436 l 1
147.7578125 428 m 1
 149.7578125 426 l 1
 147.7578125 428 l 1
143.7578125 426 m 1
 145.7578125 424 l 1
 143.7578125 426 l 1
139.7578125 424 m 1
 141.7578125 422 l 1
 139.7578125 424 l 1
103.7578125 422 m 1
 105.7578125 420 l 1
 103.7578125 422 l 1
117.7578125 416 m 1
 119.7578125 414 l 1
 117.7578125 416 l 1
131.7578125 416 m 1
 133.7578125 414 l 1
 131.7578125 416 l 1
167.7578125 414 m 1
 169.7578125 412 l 1
 167.7578125 414 l 1
173.7578125 288 m 1
 175.7578125 286 l 1
 173.7578125 288 l 1
163.7578125 286 m 1
 165.7578125 284 l 1
 163.7578125 286 l 1
159.7578125 284 m 1
 161.7578125 282 l 1
 159.7578125 284 l 1
149.7578125 282 m 1
 151.7578125 280 l 1
 149.7578125 282 l 1
119.7578125 280 m 1
 121.7578125 278 l 1
 119.7578125 280 l 1
131.7578125 280 m 1
 133.7578125 278 l 1
 131.7578125 280 l 1
143.7578125 280 m 1
 145.7578125 278 l 1
 143.7578125 280 l 1
113.7578125 278 m 1
 115.7578125 276 l 1
 113.7578125 278 l 1
109.7578125 276 m 1
 111.7578125 274 l 1
 109.7578125 276 l 1
139.7578125 260 m 1
 141.7578125 258 l 1
 139.7578125 260 l 1
173.7578125 260 m 1
 175.7578125 258 l 1
 173.7578125 260 l 1
107.7578125 258 m 1
 109.7578125 256 l 1
 107.7578125 258 l 1
161.7578125 258 m 1
 163.7578125 256 l 1
 161.7578125 258 l 1
153.7578125 256 m 1
 155.7578125 254 l 1
 153.7578125 256 l 1
131.7578125 254 m 1
 133.7578125 252 l 1
 131.7578125 254 l 1
127.7578125 252 m 1
 129.7578125 250 l 1
 127.7578125 252 l 1
123.7578125 250 m 1
 125.7578125 248 l 1
 123.7578125 250 l 1
109.7578125 240 m 1
 111.7578125 238 l 1
 109.7578125 240 l 1
153.7578125 240 m 1
 155.7578125 238 l 1
 153.7578125 240 l 1
173.7578125 238 m 1
 175.7578125 236 l 1
 173.7578125 238 l 1
123.7578125 234 m 1
 125.7578125 232 l 1
 123.7578125 234 l 1
147.7578125 230 m 1
 149.7578125 228 l 1
 147.7578125 230 l 1
167.7578125 230 m 1
 169.7578125 228 l 1
 167.7578125 230 l 1
107.7578125 224 m 1
 109.7578125 222 l 1
 107.7578125 224 l 1
141.7578125 224 m 1
 143.7578125 222 l 1
 141.7578125 224 l 1
119.7578125 220 m 1
 121.7578125 218 l 1
 119.7578125 220 l 1
135.7578125 216 m 1
 137.7578125 214 l 1
 135.7578125 216 l 1
161.7578125 216 m 1
 163.7578125 214 l 1
 161.7578125 216 l 1
175.7578125 210 m 1
 177.7578125 208 l 1
 175.7578125 210 l 1
109.7578125 206 m 1
 111.7578125 204 l 1
 109.7578125 206 l 1
157.7578125 204 m 1
 159.7578125 202 l 1
 157.7578125 204 l 1
125.7578125 202 m 1
 127.7578125 200 l 1
 125.7578125 202 l 1
153.7578125 202 m 1
 155.7578125 200 l 1
 153.7578125 202 l 1
137.7578125 198 m 1
 139.7578125 196 l 1
 137.7578125 198 l 1
147.7578125 198 m 1
 149.7578125 196 l 1
 147.7578125 198 l 1
173.7578125 192 m 1
 175.7578125 190 l 1
 173.7578125 192 l 1
107.7578125 190 m 1
 109.7578125 188 l 1
 107.7578125 190 l 1
119.7578125 190 m 1
 121.7578125 188 l 1
 119.7578125 190 l 1
133.7578125 180 m 1
 135.7578125 178 l 1
 133.7578125 180 l 1
145.7578125 176 m 1
 147.7578125 174 l 1
 145.7578125 176 l 1
169.7578125 176 m 1
 171.7578125 174 l 1
 169.7578125 176 l 1
159.7578125 174 m 1
 161.7578125 172 l 1
 159.7578125 174 l 1
109.7578125 172 m 1
 111.7578125 170 l 1
 109.7578125 172 l 1
123.7578125 172 m 1
 125.7578125 170 l 1
 123.7578125 172 l 1
139.7578125 160 m 1
 141.7578125 158 l 1
 139.7578125 160 l 1
153.7578125 158 m 1
 155.7578125 156 l 1
 153.7578125 158 l 1
107.7578125 156 m 1
 109.7578125 154 l 1
 107.7578125 156 l 1
119.7578125 156 m 1
 121.7578125 154 l 1
 119.7578125 156 l 1
133.7578125 156 m 1
 135.7578125 154 l 1
 133.7578125 156 l 1
175.7578125 156 m 1
 177.7578125 154 l 1
 175.7578125 156 l 1
167.7578125 154 m 1
 169.7578125 152 l 1
 167.7578125 154 l 1
105.7578125 140 m 1
 107.7578125 138 l 1
 105.7578125 140 l 1
155.7578125 140 m 1
 157.7578125 138 l 1
 155.7578125 140 l 1
119.7578125 138 m 1
 121.7578125 136 l 1
 119.7578125 138 l 1
129.7578125 138 m 1
 131.7578125 136 l 1
 129.7578125 138 l 1
151.7578125 138 m 1
 153.7578125 136 l 1
 151.7578125 138 l 1
167.7578125 138 m 1
 169.7578125 136 l 1
 167.7578125 138 l 1
145.7578125 136 m 1
 147.7578125 134 l 1
 145.7578125 136 l 1
99.7578125 134 m 1
 101.7578125 132 l 1
 99.7578125 134 l 1
93.7578125 132 m 1
 95.7578125 130 l 1
 93.7578125 132 l 1
143.7578125 122 m 1
 145.7578125 120 l 1
 143.7578125 122 l 1
121.7578125 120 m 1
 123.7578125 118 l 1
 121.7578125 120 l 1
139.7578125 120 m 1
 141.7578125 118 l 1
 139.7578125 120 l 1
135.7578125 118 m 1
 137.7578125 116 l 1
 135.7578125 118 l 1
173.7578125 116 m 1
 175.7578125 114 l 1
 173.7578125 116 l 1
169.7578125 114 m 1
 171.7578125 112 l 1
 169.7578125 114 l 1
115.7578125 112 m 1
 117.7578125 110 l 1
 115.7578125 112 l 1
163.7578125 110 m 1
 165.7578125 108 l 1
 163.7578125 110 l 1
107.7578125 104 m 1
 109.7578125 102 l 1
 107.7578125 104 l 1
133.7578125 100 m 1
 135.7578125 98 l 1
 133.7578125 100 l 1
157.7578125 96 m 1
 159.7578125 94 l 1
 157.7578125 96 l 1
127.7578125 94 m 1
 129.7578125 92 l 1
 127.7578125 94 l 1
153.7578125 94 m 1
 155.7578125 92 l 1
 153.7578125 94 l 1
121.7578125 90 m 1
 123.7578125 88 l 1
 121.7578125 90 l 1
107.7578125 86 m 1
 109.7578125 84 l 1
 107.7578125 86 l 1
147.7578125 86 m 1
 149.7578125 84 l 1
 147.7578125 86 l 1
173.7578125 86 m 1
 175.7578125 84 l 1
 173.7578125 86 l 1
117.7578125 72 m 1
 119.7578125 70 l 1
 117.7578125 72 l 1
143.7578125 72 m 1
 145.7578125 70 l 1
 143.7578125 72 l 1
105.7578125 70 m 1
 107.7578125 68 l 1
 105.7578125 70 l 1
131.7578125 70 m 1
 133.7578125 68 l 1
 131.7578125 70 l 1
167.7578125 70 m 1
 169.7578125 68 l 1
 167.7578125 70 l 1
163.7578125 68 m 1
 165.7578125 66 l 1
 163.7578125 68 l 1
157.7578125 60 m 1
 159.7578125 58 l 1
 157.7578125 60 l 1
121.7578125 54 m 1
 123.7578125 52 l 1
 121.7578125 54 l 1
149.7578125 54 m 1
 151.7578125 52 l 1
 149.7578125 54 l 1
109.7578125 52 m 1
 111.7578125 50 l 1
 109.7578125 52 l 1
133.7578125 52 m 1
 135.7578125 50 l 1
 133.7578125 52 l 1
143.7578125 52 m 1
 145.7578125 50 l 1
 143.7578125 52 l 1
181.7578125 48 m 1
 183.7578125 46 l 1
 181.7578125 48 l 1
173.7578125 42 m 1
 175.7578125 40 l 1
 173.7578125 42 l 1
109.7578125 36 m 1
 111.7578125 34 l 1
 109.7578125 36 l 1
123.7578125 36 m 1
 125.7578125 34 l 1
 123.7578125 36 l 1
167.7578125 34 m 1
 169.7578125 32 l 1
 167.7578125 34 l 1
137.7578125 32 m 1
 139.7578125 30 l 1
 137.7578125 32 l 1
161.7578125 30 m 1
 163.7578125 28 l 1
 161.7578125 30 l 1
151.7578125 28 m 1
 153.7578125 26 l 1
 151.7578125 28 l 1
117.7578125 20 m 1
 119.7578125 18 l 1
 117.7578125 20 l 1
109.7578125 18 m 1
 111.7578125 16 l 1
 109.7578125 18 l 1
129.7578125 18 m 1
 131.7578125 16 l 1
 129.7578125 18 l 1
143.7578125 14 m 1
 145.7578125 12 l 1
 143.7578125 14 l 1
157.7578125 8 m 1
 159.7578125 6 l 1
 157.7578125 8 l 1
171.7578125 8 m 1
 173.7578125 6 l 1
 171.7578125 8 l 1
111.7578125 -2 m 1
 113.7578125 -4 l 1
 111.7578125 -2 l 1
127.7578125 -2 m 1
 129.7578125 -4 l 1
 127.7578125 -2 l 1
137.7578125 -2 m 1
 139.7578125 -4 l 1
 137.7578125 -2 l 1
151.7578125 -2 m 1
 153.7578125 -4 l 1
 151.7578125 -2 l 1
123.7578125 -4 m 1
 125.7578125 -6 l 1
 123.7578125 -4 l 1
169.7578125 -8 m 1
 171.7578125 -10 l 1
 169.7578125 -8 l 1
163.7578125 -18 m 1
 165.7578125 -20 l 1
 163.7578125 -18 l 1
115.7578125 -20 m 1
 117.7578125 -22 l 1
 115.7578125 -20 l 1
151.7578125 -20 m 1
 153.7578125 -22 l 1
 151.7578125 -20 l 1
147.7578125 -22 m 1
 149.7578125 -24 l 1
 147.7578125 -22 l 1
141.7578125 -26 m 1
 143.7578125 -28 l 1
 141.7578125 -26 l 1
129.7578125 -28 m 1
 131.7578125 -30 l 1
 129.7578125 -28 l 1
121.7578125 -38 m 1
 123.7578125 -40 l 1
 121.7578125 -38 l 1
EndSplineSet
EndChar

StartChar: y
Encoding: 121 121 61
Width: 417
VWidth: 0
Flags: HW
LayerCount: 2
Back
Fore
SplineSet
284.559570312 68 m 1
 277.559570312 53 259.559570312 42 246.559570312 33 c 0
 197.559570312 0 132.559570312 -7 86.5595703125 36 c 0
 22.5595703125 96 14.5595703125 204 22.5595703125 286 c 0
 24.5595703125 310 21.5595703125 343 36.5595703125 364 c 0
 59.5595703125 396 109.559570312 383 117.559570312 346 c 0
 121.559570312 326 114.559570312 299 112.559570312 278 c 0
 109.559570312 239 111.559570312 196 124.559570312 158 c 0
 130.559570312 140 139.559570312 110 159.559570312 104 c 0
 189.559570312 95 219.559570312 142 227.559570312 164 c 0
 243.559570312 207 252.559570312 257 258.559570312 302 c 0
 260.559570312 317 259.559570312 333 262.559570312 348 c 0
 267.559570312 369 282.559570312 387 304.559570312 390 c 0
 379.559570312 399 360.559570312 298 364.559570312 252 c 0
 374.559570312 154 400.559570312 53 377.559570312 -46 c 0
 367.559570312 -88 353.559570312 -132 314.559570312 -156 c 0
 255.559570312 -193 175.559570312 -178 112.559570312 -159 c 0
 83.5595703125 -150 48.5595703125 -140 46.5595703125 -104 c 0
 46.5595703125 -98 47.5595703125 -92 49.5595703125 -86 c 0
 66.5595703125 -41 114.559570312 -62 146.559570312 -71 c 0
 176.559570312 -79 240.559570312 -97 265.559570312 -71 c 0
 283.559570312 -52 285.559570312 -13 287.559570312 11 c 0
 289.559570312 29 290.559570312 50 284.559570312 68 c 1
EndSplineSet
EndChar

StartChar: F
Encoding: 70 70 62
Width: 475
VWidth: 0
Flags: HW
LayerCount: 2
Back
Fore
SplineSet
167.630859375 292 m 1
 164.630859375 249 169.630859375 205 166.630859375 162 c 0
 164.630859375 131 163.630859375 101 163.630859375 70 c 0
 163.630859375 52 165.630859375 32 158.630859375 16 c 0
 144.630859375 -14 101.630859375 -18 81.630859375 8 c 0
 70.630859375 23 70.630859375 43 69.630859375 60 c 0
 67.630859375 96 68.630859375 131 68.630859375 167 c 0
 69.630859375 285 60.630859375 402 57.630859375 520 c 0
 56.630859375 549 55.630859375 579 53.630859375 608 c 0
 52.630859375 624 46.630859375 638 52.630859375 654 c 0
 66.630859375 691 114.630859375 683 145.630859375 687 c 0
 228.630859375 698 308.630859375 693 391.630859375 679 c 0
 420.630859375 674 460.630859375 675 472.630859375 642 c 0
 483.630859375 611 460.630859375 582 429.630859375 580 c 0
 378.630859375 577 326.630859375 590 275.630859375 594 c 0
 231.630859375 597 188.630859375 594 145.630859375 594 c 1
 157.630859375 552 152.630859375 499 155.630859375 456 c 0
 156.630859375 434 164.630859375 407 159.630859375 386 c 1
 161.630859375 384 l 1
 201.630859375 395 248.630859375 384 289.630859375 384 c 0
 310.630859375 384 334.630859375 391 355.630859375 384 c 0
 374.630859375 378 386.630859375 359 386.630859375 340 c 0
 387.630859375 310 362.630859375 297 337.630859375 291 c 0
 298.630859375 282 261.630859375 285 222.630859375 288 c 0
 204.630859375 289 184.630859375 288 167.630859375 292 c 1
EndSplineSet
EndChar

StartChar: U
Encoding: 85 85 63
Width: 631
VWidth: 0
Flags: HW
LayerCount: 2
Back
Fore
SplineSet
525.325195312 717 m 0
 554.325195312 722 574.325195312 700 580.325195312 674 c 0
 595.325195312 615 607.325195312 553 609.325195312 492 c 0
 610.325195312 461 611.325195312 431 610.325195312 400 c 0
 604.325195312 235 557.325195312 9 363.325195312 -25 c 0
 275.325195312 -40 189.325195312 14 144.325195312 86 c 0
 74.3251953125 197 57.3251953125 333 60.3251953125 462 c 0
 61.3251953125 513 69.3251953125 564 78.3251953125 614 c 0
 82.3251953125 636 84.3251953125 661 106.325195312 674 c 0
 139.325195312 693 178.325195312 664 174.325195312 628 c 0
 170.325195312 582 157.325195312 537 154.325195312 490 c 0
 147.325195312 390 160.325195312 281 201.325195312 188 c 0
 227.325195312 131 282.325195312 54 356.325195312 77 c 0
 409.325195312 93 447.325195312 139 470.325195312 188 c 0
 490.325195312 231 499.325195312 281 505.325195312 327 c 0
 513.325195312 393 519.325195312 459 511.325195312 525 c 0
 507.325195312 556 504.325195312 587 498.325195312 618 c 0
 495.325195312 637 487.325195312 657 488.325195312 676 c 0
 490.325195312 697 505.325195312 713 525.325195312 717 c 0
EndSplineSet
EndChar

StartChar: four
Encoding: 52 52 64
Width: 483
VWidth: 0
Flags: HW
LayerCount: 2
Back
Fore
SplineSet
344.004882812 278 m 1
 315.004882812 277 285.004882812 270 256.004882812 265 c 0
 222.004882812 259 187.004882812 256 154.004882812 247 c 0
 119.004882812 237 77.0048828125 220 46.0048828125 249 c 0
 16.0048828125 277 35.0048828125 325 48.0048828125 356 c 0
 79.0048828125 431 124.004882812 501 160.004882812 574 c 0
 175.004882812 604 187.004882812 652 212.004882812 674 c 0
 239.004882812 697 283.004882812 679 286.004882812 644 c 0
 289.004882812 616 267.004882812 585 256.004882812 560 c 0
 244.004882812 532 231.004882812 505 218.004882812 478 c 0
 197.004882812 435 178.004882812 389 154.004882812 348 c 1
 198.004882812 359 246.004882812 364 291.004882812 368 c 0
 302.004882812 369 334.004882812 366 340.004882812 375 c 0
 347.004882812 386 341.004882812 419 341.004882812 432 c 0
 341.004882812 485 342.004882812 537 342.004882812 590 c 0
 342.004882812 622 339.004882812 664 384.004882812 665 c 0
 448.004882812 667 434.004882812 571 434.004882812 530 c 0
 434.004882812 418 440.004882812 304 446.004882812 192 c 0
 448.004882812 155 447.004882812 119 448.004882812 82 c 0
 449.004882812 66 456.004882812 52 452.004882812 36 c 0
 442.004882812 -2 389.004882812 -16 366.004882812 18 c 0
 344.004882812 50 351.004882812 114 349.004882812 151 c 0
 347.004882812 193 344.004882812 236 344.004882812 278 c 1
EndSplineSet
EndChar

StartChar: endash
Encoding: 8211 8211 65
Width: 405
VWidth: 0
Flags: HW
LayerCount: 2
Back
Fore
SplineSet
64.4140625 397 m 0
 80.4140625 401 97.4140625 396 113.4140625 396 c 0
 154.4140625 395 194.4140625 392 235.4140625 390 c 0
 269.4140625 388 308.4140625 393 341.4140625 384 c 0
 384.4140625 372 386.4140625 311 345.4140625 295 c 0
 328.4140625 288 308.4140625 291 291.4140625 290 c 0
 242.4140625 288 195.4140625 296 146.4140625 300 c 0
 118.4140625 302 83.4140625 300 57.4140625 311 c 0
 17.4140625 328 22.4140625 387 64.4140625 397 c 0
EndSplineSet
EndChar

StartChar: slash
Encoding: 47 47 66
Width: 486
VWidth: 0
Flags: HW
LayerCount: 2
Back
Fore
SplineSet
402.030273438 687 m 0
 429.030273438 692 457.030273438 669 456.030273438 641 c 0
 455.030273438 609 431.030273438 574 417.030273438 546 c 0
 340.030273438 393 256.030273438 244 173.030273438 94 c 0
 155.030273438 62 140.030273438 29 126.030273438 -4 c 0
 117.030273438 -25 104.030273438 -45 79.0302734375 -47 c 0
 53.0302734375 -49 29.0302734375 -26 30.0302734375 0 c 0
 32.0302734375 35 58.0302734375 81 73.0302734375 112 c 0
 144.030273438 261 228.030273438 405 310.030273438 548 c 0
 327.030273438 578 345.030273438 608 359.030273438 640 c 0
 368.030273438 661 377.030273438 683 402.030273438 687 c 0
EndSplineSet
EndChar

StartChar: asterisk
Encoding: 42 42 67
Width: 478
VWidth: 0
Flags: HW
LayerCount: 2
Back
Fore
SplineSet
199.43359375 630 m 1
 194.43359375 648 196.43359375 680 206.43359375 696 c 0
 221.43359375 719 256.43359375 724 276.43359375 704 c 0
 298.43359375 682 291.43359375 633 293.43359375 604 c 1
 312.43359375 617 334.43359375 631 357.43359375 631 c 0
 387.43359375 632 409.43359375 602 401.43359375 574 c 1
 416.43359375 570 430.43359375 566 439.43359375 552 c 0
 462.43359375 518 435.43359375 480 397.43359375 480 c 1
 419.43359375 458 443.43359375 428 445.43359375 396 c 0
 447.43359375 365 421.43359375 337 389.43359375 346 c 0
 365.43359375 352 360.43359375 373 346.43359375 390 c 0
 333.43359375 406 315.43359375 419 299.43359375 432 c 1
 299.43359375 408 300.43359375 375 281.43359375 358 c 0
 255.43359375 334 210.43359375 349 205.43359375 384 c 1
 181.43359375 365 152.43359375 331 120.43359375 327 c 0
 87.43359375 323 63.43359375 355 72.43359375 386 c 0
 80.43359375 413 122.43359375 452 147.43359375 464 c 1
 147.43359375 466 l 1
 118.43359375 464 80.43359375 447 53.43359375 463 c 0
 26.43359375 478 21.43359375 517 45.43359375 537 c 0
 61.43359375 551 110.43359375 560 131.43359375 558 c 1
 119.43359375 569 103.43359375 570 95.43359375 586 c 0
 80.43359375 615 99.43359375 653 133.43359375 654 c 0
 155.43359375 655 180.43359375 640 199.43359375 630 c 1
EndSplineSet
EndChar

StartChar: braceleft
Encoding: 123 123 68
Width: 537
VWidth: 0
Flags: HW
LayerCount: 2
Back
Fore
SplineSet
260.96875 428 m 1
 272.96875 512 203.96875 602 260.96875 682 c 0
 289.96875 723 344.96875 751 394.96875 741 c 0
 426.96875 735 463.96875 706 459.96875 669 c 0
 456.96875 639 425.96875 619 396.96875 631 c 0
 387.96875 635 380.96875 648 370.96875 649 c 0
 356.96875 650 339.96875 633 334.96875 622 c 0
 325.96875 600 335.96875 566 340.96875 544 c 0
 350.96875 498 359.96875 452 359.96875 404 c 0
 359.96875 368 355.96875 331 340.96875 298 c 0
 334.96875 284 320.96875 272 315.96875 258 c 0
 310.96875 244 315.96875 224 314.96875 210 c 0
 313.96875 176 305.96875 140 311.96875 106 c 0
 316.96875 73 374.96875 48 404.96875 61 c 0
 421.96875 68 430.96875 87 448.96875 91 c 0
 475.96875 98 505.96875 79 506.96875 50 c 0
 507.96875 24 487.96875 5 468.96875 -9 c 0
 410.96875 -52 331.96875 -37 274.96875 0 c 0
 196.96875 52 216.96875 140 216.96875 220 c 1
 183.96875 219 149.96875 220 118.96875 231 c 0
 43.96875 258 -5.03125 364 60.96875 428 c 0
 110.96875 476 208.96875 466 260.96875 428 c 1
260.96875 428 m 1
 262.96875 426 l 1
 260.96875 428 l 1
210.96875 318 m 1
 209.96875 327 209.96875 339 203.96875 346 c 0
 193.96875 359 146.96875 368 133.96875 355 c 0
 114.96875 336 163.96875 322 174.96875 320 c 0
 186.96875 318 198.96875 320 210.96875 318 c 1
EndSplineSet
EndChar

StartChar: g
Encoding: 103 103 69
Width: 430
VWidth: 0
Flags: HW
LayerCount: 2
Back
Fore
SplineSet
150.592773438 -6 m 1
 134.592773438 -9 115.592773438 1 102.592773438 9 c 0
 59.5927734375 37 43.5927734375 88 40.5927734375 137 c 0
 33.5927734375 248 111.592773438 392 231.592773438 405 c 0
 270.592773438 409 311.592773438 393 335.592773438 362 c 0
 344.592773438 350 346.592773438 336 354.592773438 324 c 0
 361.592773438 313 375.592773438 309 382.592773438 296 c 0
 402.592773438 257 374.592773438 212 374.592773438 172 c 0
 374.592773438 94 392.592773438 19 384.592773438 -60 c 0
 379.592773438 -107 362.592773438 -152 318.592773438 -175 c 0
 247.592773438 -211 140.592773438 -192 76.5927734375 -149 c 0
 48.5927734375 -130 7.5927734375 -98 23.5927734375 -60 c 0
 32.5927734375 -37 57.5927734375 -27 80.5927734375 -35 c 0
 100.592773438 -42 113.592773438 -61 130.592773438 -72 c 0
 155.592773438 -88 184.592773438 -93 213.592773438 -97 c 0
 243.592773438 -101 279.592773438 -99 286.592773438 -64 c 0
 290.592773438 -46 289.592773438 -27 289.592773438 -8 c 0
 289.592773438 11 291.592773438 34 284.592773438 52 c 1
 271.592773438 22 216.592773438 0 186.592773438 -7 c 0
 178.592773438 -9 154.592773438 -14 150.592773438 -6 c 1
250.592773438 378 m 1
 252.592773438 376 l 1
 250.592773438 378 l 1
226.592773438 376 m 1
 228.592773438 374 l 1
 226.592773438 376 l 1
236.592773438 376 m 1
 238.592773438 374 l 1
 236.592773438 376 l 1
246.592773438 376 m 1
 248.592773438 374 l 1
 246.592773438 376 l 1
222.592773438 374 m 1
 224.592773438 372 l 1
 222.592773438 374 l 1
264.592773438 374 m 1
 266.592773438 372 l 1
 264.592773438 374 l 1
276.592773438 374 m 1
 278.592773438 372 l 1
 276.592773438 374 l 1
290.592773438 370 m 1
 292.592773438 368 l 1
 290.592773438 370 l 1
188.592773438 368 m 1
 190.592773438 366 l 1
 188.592773438 368 l 1
214.592773438 368 m 1
 216.592773438 366 l 1
 214.592773438 368 l 1
200.592773438 366 m 1
 202.592773438 364 l 1
 200.592773438 366 l 1
306.592773438 362 m 1
 308.592773438 360 l 1
 306.592773438 362 l 1
184.592773438 356 m 1
 186.592773438 354 l 1
 184.592773438 356 l 1
270.592773438 356 m 1
 272.592773438 354 l 1
 270.592773438 356 l 1
282.592773438 356 m 1
 284.592773438 354 l 1
 282.592773438 356 l 1
180.592773438 354 m 1
 182.592773438 352 l 1
 180.592773438 354 l 1
262.592773438 354 m 1
 264.592773438 352 l 1
 262.592773438 354 l 1
300.592773438 354 m 1
 302.592773438 352 l 1
 300.592773438 354 l 1
176.592773438 352 m 1
 178.592773438 350 l 1
 176.592773438 352 l 1
244.592773438 352 m 1
 246.592773438 350 l 1
 244.592773438 352 l 1
256.592773438 352 m 1
 258.592773438 350 l 1
 256.592773438 352 l 1
296.592773438 352 m 1
 298.592773438 350 l 1
 296.592773438 352 l 1
320.592773438 352 m 1
 322.592773438 350 l 1
 320.592773438 352 l 1
166.592773438 350 m 1
 168.592773438 348 l 1
 166.592773438 350 l 1
210.592773438 350 m 1
 212.592773438 348 l 1
 210.592773438 350 l 1
222.592773438 350 m 1
 224.592773438 348 l 1
 222.592773438 350 l 1
236.592773438 350 m 1
 238.592773438 348 l 1
 236.592773438 350 l 1
160.592773438 348 m 1
 162.592773438 346 l 1
 160.592773438 348 l 1
202.592773438 348 m 1
 204.592773438 346 l 1
 202.592773438 348 l 1
130.592773438 344 m 1
 132.592773438 342 l 1
 130.592773438 344 l 1
152.592773438 340 m 1
 154.592773438 338 l 1
 152.592773438 340 l 1
332.592773438 338 m 1
 334.592773438 336 l 1
 332.592773438 338 l 1
286.592773438 336 m 1
 288.592773438 334 l 1
 286.592773438 336 l 1
318.592773438 336 m 1
 320.592773438 334 l 1
 318.592773438 336 l 1
146.592773438 334 m 1
 148.592773438 332 l 1
 146.592773438 334 l 1
200.592773438 332 m 1
 202.592773438 330 l 1
 200.592773438 332 l 1
230.592773438 332 m 1
 232.592773438 330 l 1
 230.592773438 332 l 1
280.592773438 332 m 1
 282.592773438 330 l 1
 280.592773438 332 l 1
300.592773438 332 m 1
 302.592773438 330 l 1
 300.592773438 332 l 1
224.592773438 330 m 1
 226.592773438 328 l 1
 224.592773438 330 l 1
242.592773438 330 m 1
 244.592773438 328 l 1
 242.592773438 330 l 1
254.592773438 330 m 1
 256.592773438 328 l 1
 254.592773438 330 l 1
276.592773438 330 m 1
 278.592773438 328 l 1
 276.592773438 330 l 1
132.592773438 328 m 1
 134.592773438 326 l 1
 132.592773438 328 l 1
218.592773438 328 m 1
 220.592773438 326 l 1
 218.592773438 328 l 1
266.592773438 328 m 1
 268.592773438 326 l 1
 266.592773438 328 l 1
182.592773438 326 m 1
 184.592773438 324 l 1
 182.592773438 326 l 1
194.592773438 326 m 1
 196.592773438 324 l 1
 194.592773438 326 l 1
314.592773438 326 m 1
 316.592773438 324 l 1
 314.592773438 326 l 1
170.592773438 324 m 1
 172.592773438 322 l 1
 170.592773438 324 l 1
338.592773438 322 m 1
 340.592773438 320 l 1
 338.592773438 322 l 1
330.592773438 320 m 1
 332.592773438 318 l 1
 330.592773438 320 l 1
164.592773438 318 m 1
 166.592773438 316 l 1
 164.592773438 318 l 1
146.592773438 316 m 1
 148.592773438 314 l 1
 146.592773438 316 l 1
160.592773438 316 m 1
 162.592773438 314 l 1
 160.592773438 316 l 1
214.592773438 316 m 1
 216.592773438 314 l 1
 214.592773438 316 l 1
130.592773438 314 m 1
 132.592773438 312 l 1
 130.592773438 314 l 1
237.592773438 313 m 0
 177.592773438 303 141.592773438 218 138.592773438 164 c 0
 137.592773438 144 135.592773438 87 166.592773438 90 c 0
 183.592773438 91 198.592773438 106 210.592773438 116 c 0
 244.592773438 145 275.592773438 191 277.592773438 237 c 0
 277.592773438 246 270.592773438 255 268.592773438 264 c 0
 263.592773438 285 271.592773438 318 237.592773438 313 c 0
304.592773438 314 m 1
 306.592773438 312 l 1
 304.592773438 314 l 1
300.592773438 312 m 1
 302.592773438 310 l 1
 300.592773438 312 l 1
354.592773438 310 m 1
 356.592773438 308 l 1
 354.592773438 310 l 1
208.592773438 308 m 1
 210.592773438 306 l 1
 208.592773438 308 l 1
272.592773438 308 m 1
 274.592773438 306 l 1
 272.592773438 308 l 1
320.592773438 308 m 1
 322.592773438 306 l 1
 320.592773438 308 l 1
186.592773438 306 m 1
 188.592773438 304 l 1
 186.592773438 306 l 1
196.592773438 306 m 1
 198.592773438 304 l 1
 196.592773438 306 l 1
292.592773438 306 m 1
 294.592773438 304 l 1
 292.592773438 306 l 1
124.592773438 304 m 1
 126.592773438 302 l 1
 124.592773438 304 l 1
286.592773438 304 m 1
 288.592773438 302 l 1
 286.592773438 304 l 1
348.592773438 302 m 1
 350.592773438 300 l 1
 348.592773438 302 l 1
144.592773438 300 m 1
 146.592773438 298 l 1
 144.592773438 300 l 1
156.592773438 300 m 1
 158.592773438 298 l 1
 156.592773438 300 l 1
334.592773438 300 m 1
 336.592773438 298 l 1
 334.592773438 300 l 1
118.592773438 296 m 1
 120.592773438 294 l 1
 118.592773438 296 l 1
180.592773438 296 m 1
 182.592773438 294 l 1
 180.592773438 296 l 1
176.592773438 294 m 1
 178.592773438 292 l 1
 176.592773438 294 l 1
112.592773438 292 m 1
 114.592773438 290 l 1
 112.592773438 292 l 1
172.592773438 292 m 1
 174.592773438 290 l 1
 172.592773438 292 l 1
138.592773438 290 m 1
 140.592773438 288 l 1
 138.592773438 290 l 1
316.592773438 290 m 1
 318.592773438 288 l 1
 316.592773438 290 l 1
326.592773438 290 m 1
 328.592773438 288 l 1
 326.592773438 290 l 1
106.592773438 288 m 1
 108.592773438 286 l 1
 106.592773438 288 l 1
366.592773438 288 m 1
 368.592773438 286 l 1
 366.592773438 288 l 1
284.592773438 286 m 1
 286.592773438 284 l 1
 284.592773438 286 l 1
362.592773438 286 m 1
 364.592773438 284 l 1
 362.592773438 286 l 1
308.592773438 284 m 1
 310.592773438 282 l 1
 308.592773438 284 l 1
344.592773438 284 m 1
 346.592773438 282 l 1
 344.592773438 284 l 1
356.592773438 284 m 1
 358.592773438 282 l 1
 356.592773438 284 l 1
158.592773438 282 m 1
 160.592773438 280 l 1
 158.592773438 282 l 1
304.592773438 282 m 1
 306.592773438 280 l 1
 304.592773438 282 l 1
154.592773438 280 m 1
 156.592773438 278 l 1
 154.592773438 280 l 1
300.592773438 280 m 1
 302.592773438 278 l 1
 300.592773438 280 l 1
102.592773438 278 m 1
 104.592773438 276 l 1
 102.592773438 278 l 1
134.592773438 276 m 1
 136.592773438 274 l 1
 134.592773438 276 l 1
172.592773438 274 m 1
 174.592773438 272 l 1
 172.592773438 274 l 1
338.592773438 272 m 1
 340.592773438 270 l 1
 338.592773438 272 l 1
148.592773438 270 m 1
 150.592773438 268 l 1
 148.592773438 270 l 1
288.592773438 270 m 1
 290.592773438 268 l 1
 288.592773438 270 l 1
334.592773438 270 m 1
 336.592773438 268 l 1
 334.592773438 270 l 1
284.592773438 268 m 1
 286.592773438 266 l 1
 284.592773438 268 l 1
330.592773438 268 m 1
 332.592773438 266 l 1
 330.592773438 268 l 1
382.592773438 268 m 1
 384.592773438 266 l 1
 382.592773438 268 l 1
98.5927734375 266 m 1
 100.592773438 264 l 1
 98.5927734375 266 l 1
126.592773438 266 m 1
 128.592773438 264 l 1
 126.592773438 266 l 1
122.592773438 264 m 1
 124.592773438 262 l 1
 122.592773438 264 l 1
354.592773438 264 m 1
 356.592773438 262 l 1
 354.592773438 264 l 1
116.592773438 260 m 1
 118.592773438 258 l 1
 116.592773438 260 l 1
324.592773438 260 m 1
 326.592773438 258 l 1
 324.592773438 260 l 1
372.592773438 260 m 1
 374.592773438 258 l 1
 372.592773438 260 l 1
304.592773438 258 m 1
 306.592773438 256 l 1
 304.592773438 258 l 1
320.592773438 258 m 1
 322.592773438 256 l 1
 320.592773438 258 l 1
368.592773438 258 m 1
 370.592773438 256 l 1
 368.592773438 258 l 1
92.5927734375 256 m 1
 94.5927734375 254 l 1
 92.5927734375 256 l 1
142.592773438 256 m 1
 144.592773438 254 l 1
 142.592773438 256 l 1
162.592773438 254 m 1
 164.592773438 252 l 1
 162.592773438 254 l 1
158.592773438 252 m 1
 160.592773438 250 l 1
 158.592773438 252 l 1
110.592773438 248 m 1
 112.592773438 246 l 1
 110.592773438 248 l 1
296.592773438 246 m 1
 298.592773438 244 l 1
 296.592773438 246 l 1
352.592773438 246 m 1
 354.592773438 244 l 1
 352.592773438 246 l 1
362.592773438 246 m 1
 364.592773438 244 l 1
 362.592773438 246 l 1
290.592773438 244 m 1
 292.592773438 242 l 1
 290.592773438 244 l 1
316.592773438 244 m 1
 318.592773438 242 l 1
 316.592773438 244 l 1
88.5927734375 240 m 1
 90.5927734375 238 l 1
 88.5927734375 240 l 1
104.592773438 240 m 1
 106.592773438 238 l 1
 104.592773438 240 l 1
152.592773438 240 m 1
 154.592773438 238 l 1
 152.592773438 240 l 1
344.592773438 240 m 1
 346.592773438 238 l 1
 344.592773438 240 l 1
134.592773438 238 m 1
 136.592773438 236 l 1
 134.592773438 238 l 1
144.592773438 238 m 1
 146.592773438 236 l 1
 144.592773438 238 l 1
128.592773438 236 m 1
 130.592773438 234 l 1
 128.592773438 236 l 1
338.592773438 236 m 1
 340.592773438 234 l 1
 338.592773438 236 l 1
124.592773438 234 m 1
 126.592773438 232 l 1
 124.592773438 234 l 1
312.592773438 234 m 1
 314.592773438 232 l 1
 312.592773438 234 l 1
334.592773438 234 m 1
 336.592773438 232 l 1
 334.592773438 234 l 1
378.592773438 232 m 1
 380.592773438 230 l 1
 378.592773438 232 l 1
82.5927734375 228 m 1
 84.5927734375 226 l 1
 82.5927734375 228 l 1
100.592773438 226 m 1
 102.592773438 224 l 1
 100.592773438 226 l 1
372.592773438 226 m 1
 374.592773438 224 l 1
 372.592773438 226 l 1
328.592773438 224 m 1
 330.592773438 222 l 1
 328.592773438 224 l 1
364.592773438 224 m 1
 366.592773438 222 l 1
 364.592773438 224 l 1
116.592773438 222 m 1
 118.592773438 220 l 1
 116.592773438 222 l 1
294.592773438 222 m 1
 296.592773438 220 l 1
 294.592773438 222 l 1
306.592773438 222 m 1
 308.592773438 220 l 1
 306.592773438 222 l 1
358.592773438 216 m 1
 360.592773438 214 l 1
 358.592773438 216 l 1
76.5927734375 214 m 1
 78.5927734375 212 l 1
 76.5927734375 214 l 1
94.5927734375 214 m 1
 96.5927734375 212 l 1
 94.5927734375 214 l 1
322.592773438 214 m 1
 324.592773438 212 l 1
 322.592773438 214 l 1
90.5927734375 212 m 1
 92.5927734375 210 l 1
 90.5927734375 212 l 1
110.592773438 210 m 1
 112.592773438 208 l 1
 110.592773438 210 l 1
132.592773438 210 m 1
 134.592773438 208 l 1
 132.592773438 210 l 1
352.592773438 210 m 1
 354.592773438 208 l 1
 352.592773438 210 l 1
128.592773438 208 m 1
 130.592773438 206 l 1
 128.592773438 208 l 1
346.592773438 208 m 1
 348.592773438 206 l 1
 346.592773438 208 l 1
294.592773438 206 m 1
 296.592773438 204 l 1
 294.592773438 206 l 1
342.592773438 206 m 1
 344.592773438 204 l 1
 342.592773438 206 l 1
310.592773438 204 m 1
 312.592773438 202 l 1
 310.592773438 204 l 1
70.5927734375 202 m 1
 72.5927734375 200 l 1
 70.5927734375 202 l 1
336.592773438 200 m 1
 338.592773438 198 l 1
 336.592773438 200 l 1
332.592773438 198 m 1
 334.592773438 196 l 1
 332.592773438 198 l 1
86.5927734375 196 m 1
 88.5927734375 194 l 1
 86.5927734375 196 l 1
122.592773438 196 m 1
 124.592773438 194 l 1
 122.592773438 196 l 1
324.592773438 196 m 1
 326.592773438 194 l 1
 324.592773438 196 l 1
106.592773438 192 m 1
 108.592773438 190 l 1
 106.592773438 192 l 1
116.592773438 192 m 1
 118.592773438 190 l 1
 116.592773438 192 l 1
306.592773438 192 m 1
 308.592773438 190 l 1
 306.592773438 192 l 1
102.592773438 190 m 1
 104.592773438 188 l 1
 102.592773438 190 l 1
292.592773438 190 m 1
 294.592773438 188 l 1
 292.592773438 190 l 1
66.5927734375 186 m 1
 68.5927734375 184 l 1
 66.5927734375 186 l 1
78.5927734375 186 m 1
 80.5927734375 184 l 1
 78.5927734375 186 l 1
368.592773438 184 m 1
 370.592773438 182 l 1
 368.592773438 184 l 1
322.592773438 182 m 1
 324.592773438 180 l 1
 322.592773438 182 l 1
94.5927734375 178 m 1
 96.5927734375 176 l 1
 94.5927734375 178 l 1
360.592773438 178 m 1
 362.592773438 176 l 1
 360.592773438 178 l 1
290.592773438 176 m 1
 292.592773438 174 l 1
 290.592773438 176 l 1
316.592773438 176 m 1
 318.592773438 174 l 1
 316.592773438 176 l 1
62.5927734375 174 m 1
 64.5927734375 172 l 1
 62.5927734375 174 l 1
304.592773438 174 m 1
 306.592773438 172 l 1
 304.592773438 174 l 1
354.592773438 174 m 1
 356.592773438 172 l 1
 354.592773438 174 l 1
342.592773438 172 m 1
 344.592773438 170 l 1
 342.592773438 172 l 1
130.592773438 170 m 1
 132.592773438 168 l 1
 130.592773438 170 l 1
338.592773438 170 m 1
 340.592773438 168 l 1
 338.592773438 170 l 1
82.5927734375 168 m 1
 84.5927734375 166 l 1
 82.5927734375 168 l 1
124.592773438 168 m 1
 126.592773438 166 l 1
 124.592773438 168 l 1
78.5927734375 166 m 1
 80.5927734375 164 l 1
 78.5927734375 166 l 1
110.592773438 166 m 1
 112.592773438 164 l 1
 110.592773438 166 l 1
120.592773438 166 m 1
 122.592773438 164 l 1
 120.592773438 166 l 1
284.592773438 166 m 1
 286.592773438 164 l 1
 284.592773438 166 l 1
106.592773438 164 m 1
 108.592773438 162 l 1
 106.592773438 164 l 1
280.592773438 164 m 1
 282.592773438 162 l 1
 280.592773438 164 l 1
102.592773438 162 m 1
 104.592773438 160 l 1
 102.592773438 162 l 1
98.5927734375 160 m 1
 100.592773438 158 l 1
 98.5927734375 160 l 1
274.592773438 160 m 1
 276.592773438 158 l 1
 274.592773438 160 l 1
62.5927734375 158 m 1
 64.5927734375 156 l 1
 62.5927734375 158 l 1
330.592773438 158 m 1
 332.592773438 156 l 1
 330.592773438 158 l 1
302.592773438 156 m 1
 304.592773438 154 l 1
 302.592773438 156 l 1
312.592773438 156 m 1
 314.592773438 154 l 1
 312.592773438 156 l 1
324.592773438 156 m 1
 326.592773438 154 l 1
 324.592773438 156 l 1
76.5927734375 152 m 1
 78.5927734375 150 l 1
 76.5927734375 152 l 1
362.592773438 152 m 1
 364.592773438 150 l 1
 362.592773438 152 l 1
356.592773438 150 m 1
 358.592773438 148 l 1
 356.592773438 150 l 1
54.5927734375 148 m 1
 56.5927734375 146 l 1
 54.5927734375 148 l 1
350.592773438 148 m 1
 352.592773438 146 l 1
 350.592773438 148 l 1
50.5927734375 146 m 1
 52.5927734375 144 l 1
 50.5927734375 146 l 1
46.5927734375 144 m 1
 48.5927734375 142 l 1
 46.5927734375 144 l 1
94.5927734375 144 m 1
 96.5927734375 142 l 1
 94.5927734375 144 l 1
270.592773438 144 m 1
 272.592773438 142 l 1
 270.592773438 144 l 1
72.5927734375 140 m 1
 74.5927734375 138 l 1
 72.5927734375 140 l 1
296.592773438 140 m 1
 298.592773438 138 l 1
 296.592773438 140 l 1
292.592773438 138 m 1
 294.592773438 136 l 1
 292.592773438 138 l 1
344.592773438 138 m 1
 346.592773438 136 l 1
 344.592773438 138 l 1
126.592773438 136 m 1
 128.592773438 134 l 1
 126.592773438 136 l 1
286.592773438 136 m 1
 288.592773438 134 l 1
 286.592773438 136 l 1
308.592773438 136 m 1
 310.592773438 134 l 1
 308.592773438 136 l 1
318.592773438 136 m 1
 320.592773438 134 l 1
 318.592773438 136 l 1
88.5927734375 134 m 1
 90.5927734375 132 l 1
 88.5927734375 134 l 1
114.592773438 134 m 1
 116.592773438 132 l 1
 114.592773438 134 l 1
332.592773438 134 m 1
 334.592773438 132 l 1
 332.592773438 134 l 1
110.592773438 132 m 1
 112.592773438 130 l 1
 110.592773438 132 l 1
264.592773438 132 m 1
 266.592773438 130 l 1
 264.592773438 132 l 1
280.592773438 128 m 1
 282.592773438 126 l 1
 280.592773438 128 l 1
70.5927734375 124 m 1
 72.5927734375 122 l 1
 70.5927734375 124 l 1
104.592773438 124 m 1
 106.592773438 122 l 1
 104.592773438 124 l 1
258.592773438 122 m 1
 260.592773438 120 l 1
 258.592773438 122 l 1
360.592773438 122 m 1
 362.592773438 120 l 1
 360.592773438 122 l 1
84.5927734375 120 m 1
 86.5927734375 118 l 1
 84.5927734375 120 l 1
352.592773438 120 m 1
 354.592773438 118 l 1
 352.592773438 120 l 1
342.592773438 118 m 1
 344.592773438 116 l 1
 342.592773438 118 l 1
64.5927734375 116 m 1
 66.5927734375 114 l 1
 64.5927734375 116 l 1
326.592773438 116 m 1
 328.592773438 114 l 1
 326.592773438 116 l 1
336.592773438 116 m 1
 338.592773438 114 l 1
 336.592773438 116 l 1
98.5927734375 114 m 1
 100.592773438 112 l 1
 98.5927734375 114 l 1
132.592773438 114 m 1
 134.592773438 112 l 1
 132.592773438 114 l 1
252.592773438 114 m 1
 254.592773438 112 l 1
 252.592773438 114 l 1
276.592773438 114 m 1
 278.592773438 112 l 1
 276.592773438 114 l 1
314.592773438 114 m 1
 316.592773438 112 l 1
 314.592773438 114 l 1
128.592773438 112 m 1
 130.592773438 110 l 1
 128.592773438 112 l 1
308.592773438 112 m 1
 310.592773438 110 l 1
 308.592773438 112 l 1
302.592773438 110 m 1
 304.592773438 108 l 1
 302.592773438 110 l 1
292.592773438 108 m 1
 294.592773438 106 l 1
 292.592773438 108 l 1
120.592773438 106 m 1
 122.592773438 104 l 1
 120.592773438 106 l 1
246.592773438 106 m 1
 248.592773438 104 l 1
 246.592773438 106 l 1
82.5927734375 104 m 1
 84.5927734375 102 l 1
 82.5927734375 104 l 1
272.592773438 104 m 1
 274.592773438 102 l 1
 272.592773438 104 l 1
62.5927734375 102 m 1
 64.5927734375 100 l 1
 62.5927734375 102 l 1
372.592773438 102 m 1
 374.592773438 100 l 1
 372.592773438 102 l 1
114.592773438 100 m 1
 116.592773438 98 l 1
 114.592773438 100 l 1
368.592773438 100 m 1
 370.592773438 98 l 1
 368.592773438 100 l 1
96.5927734375 98 m 1
 98.5927734375 96 l 1
 96.5927734375 98 l 1
110.592773438 98 m 1
 112.592773438 96 l 1
 110.592773438 98 l 1
76.5927734375 96 m 1
 78.5927734375 94 l 1
 76.5927734375 96 l 1
238.592773438 96 m 1
 240.592773438 94 l 1
 238.592773438 96 l 1
266.592773438 96 m 1
 268.592773438 94 l 1
 266.592773438 96 l 1
360.592773438 96 m 1
 362.592773438 94 l 1
 360.592773438 96 l 1
234.592773438 94 m 1
 236.592773438 92 l 1
 234.592773438 94 l 1
290.592773438 94 m 1
 292.592773438 92 l 1
 290.592773438 94 l 1
332.592773438 94 m 1
 334.592773438 92 l 1
 332.592773438 94 l 1
356.592773438 94 m 1
 358.592773438 92 l 1
 356.592773438 94 l 1
228.592773438 92 m 1
 230.592773438 90 l 1
 228.592773438 92 l 1
344.592773438 92 m 1
 346.592773438 90 l 1
 344.592773438 92 l 1
224.592773438 90 m 1
 226.592773438 88 l 1
 224.592773438 90 l 1
260.592773438 90 m 1
 262.592773438 88 l 1
 260.592773438 90 l 1
326.592773438 88 m 1
 328.592773438 86 l 1
 326.592773438 88 l 1
306.592773438 86 m 1
 308.592773438 84 l 1
 306.592773438 86 l 1
322.592773438 86 m 1
 324.592773438 84 l 1
 322.592773438 86 l 1
66.5927734375 84 m 1
 68.5927734375 82 l 1
 66.5927734375 84 l 1
136.592773438 84 m 1
 138.592773438 82 l 1
 136.592773438 84 l 1
146.592773438 84 m 1
 148.592773438 82 l 1
 146.592773438 84 l 1
218.592773438 84 m 1
 220.592773438 82 l 1
 218.592773438 84 l 1
254.592773438 84 m 1
 256.592773438 82 l 1
 254.592773438 84 l 1
284.592773438 84 m 1
 286.592773438 82 l 1
 284.592773438 84 l 1
318.592773438 84 m 1
 320.592773438 82 l 1
 318.592773438 84 l 1
92.5927734375 82 m 1
 94.5927734375 80 l 1
 92.5927734375 82 l 1
104.592773438 80 m 1
 106.592773438 78 l 1
 104.592773438 80 l 1
86.5927734375 78 m 1
 88.5927734375 76 l 1
 86.5927734375 78 l 1
130.592773438 78 m 1
 132.592773438 76 l 1
 130.592773438 78 l 1
212.592773438 78 m 1
 214.592773438 76 l 1
 212.592773438 78 l 1
80.5927734375 76 m 1
 82.5927734375 74 l 1
 80.5927734375 76 l 1
126.592773438 76 m 1
 128.592773438 74 l 1
 126.592773438 76 l 1
118.592773438 74 m 1
 120.592773438 72 l 1
 118.592773438 74 l 1
300.592773438 74 m 1
 302.592773438 72 l 1
 300.592773438 74 l 1
354.592773438 74 m 1
 356.592773438 72 l 1
 354.592773438 74 l 1
206.592773438 72 m 1
 208.592773438 70 l 1
 206.592773438 72 l 1
278.592773438 72 m 1
 280.592773438 70 l 1
 278.592773438 72 l 1
348.592773438 72 m 1
 350.592773438 70 l 1
 348.592773438 72 l 1
370.592773438 70 m 1
 372.592773438 68 l 1
 370.592773438 70 l 1
68.5927734375 68 m 1
 70.5927734375 66 l 1
 68.5927734375 68 l 1
162.592773438 68 m 1
 164.592773438 66 l 1
 162.592773438 68 l 1
172.592773438 68 m 1
 174.592773438 66 l 1
 172.592773438 68 l 1
200.592773438 68 m 1
 202.592773438 66 l 1
 200.592773438 68 l 1
186.592773438 66 m 1
 188.592773438 64 l 1
 186.592773438 66 l 1
250.592773438 66 m 1
 252.592773438 64 l 1
 250.592773438 66 l 1
272.592773438 66 m 1
 274.592773438 64 l 1
 272.592773438 66 l 1
294.592773438 66 m 1
 296.592773438 64 l 1
 294.592773438 66 l 1
246.592773438 64 m 1
 248.592773438 62 l 1
 246.592773438 64 l 1
264.592773438 64 m 1
 266.592773438 62 l 1
 264.592773438 64 l 1
314.592773438 64 m 1
 316.592773438 62 l 1
 314.592773438 64 l 1
154.592773438 62 m 1
 156.592773438 60 l 1
 154.592773438 62 l 1
242.592773438 62 m 1
 244.592773438 60 l 1
 242.592773438 62 l 1
340.592773438 62 m 1
 342.592773438 60 l 1
 340.592773438 62 l 1
110.592773438 60 m 1
 112.592773438 58 l 1
 110.592773438 60 l 1
236.592773438 60 m 1
 238.592773438 58 l 1
 236.592773438 60 l 1
336.592773438 60 m 1
 338.592773438 58 l 1
 336.592773438 60 l 1
232.592773438 58 m 1
 234.592773438 56 l 1
 232.592773438 58 l 1
328.592773438 58 m 1
 330.592773438 56 l 1
 328.592773438 58 l 1
84.5927734375 56 m 1
 86.5927734375 54 l 1
 84.5927734375 56 l 1
104.592773438 56 m 1
 106.592773438 54 l 1
 104.592773438 56 l 1
148.592773438 56 m 1
 150.592773438 54 l 1
 148.592773438 56 l 1
80.5927734375 54 m 1
 82.5927734375 52 l 1
 80.5927734375 54 l 1
126.592773438 54 m 1
 128.592773438 52 l 1
 126.592773438 54 l 1
368.592773438 54 m 1
 370.592773438 52 l 1
 368.592773438 54 l 1
224.592773438 52 m 1
 226.592773438 50 l 1
 224.592773438 52 l 1
364.592773438 52 m 1
 366.592773438 50 l 1
 364.592773438 52 l 1
142.592773438 50 m 1
 144.592773438 48 l 1
 142.592773438 50 l 1
196.592773438 50 m 1
 198.592773438 48 l 1
 196.592773438 50 l 1
308.592773438 50 m 1
 310.592773438 48 l 1
 308.592773438 50 l 1
360.592773438 50 m 1
 362.592773438 48 l 1
 360.592773438 50 l 1
180.592773438 48 m 1
 182.592773438 46 l 1
 180.592773438 48 l 1
190.592773438 48 m 1
 192.592773438 46 l 1
 190.592773438 48 l 1
218.592773438 48 m 1
 220.592773438 46 l 1
 218.592773438 48 l 1
296.592773438 48 m 1
 298.592773438 46 l 1
 296.592773438 48 l 1
100.592773438 46 m 1
 102.592773438 44 l 1
 100.592773438 46 l 1
172.592773438 46 m 1
 174.592773438 44 l 1
 172.592773438 46 l 1
210.592773438 46 m 1
 212.592773438 44 l 1
 210.592773438 46 l 1
322.592773438 46 m 1
 324.592773438 44 l 1
 322.592773438 46 l 1
268.592773438 42 m 1
 270.592773438 40 l 1
 268.592773438 42 l 1
354.592773438 40 m 1
 356.592773438 38 l 1
 354.592773438 40 l 1
122.592773438 38 m 1
 124.592773438 36 l 1
 122.592773438 38 l 1
136.592773438 38 m 1
 138.592773438 36 l 1
 136.592773438 38 l 1
166.592773438 38 m 1
 168.592773438 36 l 1
 166.592773438 38 l 1
348.592773438 36 m 1
 350.592773438 34 l 1
 348.592773438 36 l 1
260.592773438 34 m 1
 262.592773438 32 l 1
 260.592773438 34 l 1
338.592773438 34 m 1
 340.592773438 32 l 1
 338.592773438 34 l 1
88.5927734375 32 m 1
 90.5927734375 30 l 1
 88.5927734375 32 l 1
158.592773438 32 m 1
 160.592773438 30 l 1
 158.592773438 32 l 1
316.592773438 32 m 1
 318.592773438 30 l 1
 316.592773438 32 l 1
100.592773438 30 m 1
 102.592773438 28 l 1
 100.592773438 30 l 1
116.592773438 30 m 1
 118.592773438 28 l 1
 116.592773438 30 l 1
244.592773438 30 m 1
 246.592773438 28 l 1
 244.592773438 30 l 1
254.592773438 30 m 1
 256.592773438 28 l 1
 254.592773438 30 l 1
312.592773438 30 m 1
 314.592773438 28 l 1
 312.592773438 30 l 1
332.592773438 30 m 1
 334.592773438 28 l 1
 332.592773438 30 l 1
152.592773438 28 m 1
 154.592773438 26 l 1
 152.592773438 28 l 1
238.592773438 28 m 1
 240.592773438 26 l 1
 238.592773438 28 l 1
206.592773438 26 m 1
 208.592773438 24 l 1
 206.592773438 26 l 1
378.592773438 26 m 1
 380.592773438 24 l 1
 378.592773438 26 l 1
188.592773438 24 m 1
 190.592773438 22 l 1
 188.592773438 24 l 1
200.592773438 24 m 1
 202.592773438 22 l 1
 200.592773438 24 l 1
218.592773438 24 m 1
 220.592773438 22 l 1
 218.592773438 24 l 1
230.592773438 24 m 1
 232.592773438 22 l 1
 230.592773438 24 l 1
374.592773438 24 m 1
 376.592773438 22 l 1
 374.592773438 24 l 1
184.592773438 22 m 1
 186.592773438 20 l 1
 184.592773438 22 l 1
134.592773438 20 m 1
 136.592773438 18 l 1
 134.592773438 20 l 1
144.592773438 20 m 1
 146.592773438 18 l 1
 144.592773438 20 l 1
308.592773438 20 m 1
 310.592773438 18 l 1
 308.592773438 20 l 1
178.592773438 18 m 1
 180.592773438 16 l 1
 178.592773438 18 l 1
368.592773438 18 m 1
 370.592773438 16 l 1
 368.592773438 18 l 1
112.592773438 14 m 1
 114.592773438 12 l 1
 112.592773438 14 l 1
128.592773438 14 m 1
 130.592773438 12 l 1
 128.592773438 14 l 1
362.592773438 14 m 1
 364.592773438 12 l 1
 362.592773438 14 l 1
124.592773438 12 m 1
 126.592773438 10 l 1
 124.592773438 12 l 1
332.592773438 12 m 1
 334.592773438 10 l 1
 332.592773438 12 l 1
358.592773438 12 m 1
 360.592773438 10 l 1
 358.592773438 12 l 1
172.592773438 10 m 1
 174.592773438 8 l 1
 172.592773438 10 l 1
348.592773438 10 m 1
 350.592773438 8 l 1
 348.592773438 10 l 1
164.592773438 6 m 1
 166.592773438 4 l 1
 164.592773438 6 l 1
326.592773438 6 m 1
 328.592773438 4 l 1
 326.592773438 6 l 1
160.592773438 4 m 1
 162.592773438 2 l 1
 160.592773438 4 l 1
308.592773438 2 m 1
 310.592773438 0 l 1
 308.592773438 2 l 1
154.592773438 0 m 1
 156.592773438 -2 l 1
 154.592773438 0 l 1
320.592773438 0 m 1
 322.592773438 -2 l 1
 320.592773438 0 l 1
346.592773438 -6 m 1
 348.592773438 -8 l 1
 346.592773438 -6 l 1
360.592773438 -12 m 1
 362.592773438 -14 l 1
 360.592773438 -12 l 1
378.592773438 -12 m 1
 380.592773438 -14 l 1
 378.592773438 -12 l 1
372.592773438 -14 m 1
 374.592773438 -16 l 1
 372.592773438 -14 l 1
308.592773438 -16 m 1
 310.592773438 -18 l 1
 308.592773438 -16 l 1
340.592773438 -16 m 1
 342.592773438 -18 l 1
 340.592773438 -16 l 1
320.592773438 -18 m 1
 322.592773438 -20 l 1
 320.592773438 -18 l 1
336.592773438 -18 m 1
 338.592773438 -20 l 1
 336.592773438 -18 l 1
358.592773438 -26 m 1
 360.592773438 -28 l 1
 358.592773438 -26 l 1
308.592773438 -34 m 1
 310.592773438 -36 l 1
 308.592773438 -34 l 1
330.592773438 -34 m 1
 332.592773438 -36 l 1
 330.592773438 -34 l 1
320.592773438 -36 m 1
 322.592773438 -38 l 1
 320.592773438 -36 l 1
372.592773438 -36 m 1
 374.592773438 -38 l 1
 372.592773438 -36 l 1
350.592773438 -38 m 1
 352.592773438 -40 l 1
 350.592773438 -38 l 1
346.592773438 -40 m 1
 348.592773438 -42 l 1
 346.592773438 -40 l 1
366.592773438 -44 m 1
 368.592773438 -46 l 1
 366.592773438 -44 l 1
68.5927734375 -46 m 1
 70.5927734375 -48 l 1
 68.5927734375 -46 l 1
60.5927734375 -52 m 1
 62.5927734375 -54 l 1
 60.5927734375 -52 l 1
310.592773438 -52 m 1
 312.592773438 -54 l 1
 310.592773438 -52 l 1
340.592773438 -52 m 1
 342.592773438 -54 l 1
 340.592773438 -52 l 1
56.5927734375 -54 m 1
 58.5927734375 -56 l 1
 56.5927734375 -54 l 1
336.592773438 -54 m 1
 338.592773438 -56 l 1
 336.592773438 -54 l 1
322.592773438 -56 m 1
 324.592773438 -58 l 1
 322.592773438 -56 l 1
332.592773438 -56 m 1
 334.592773438 -58 l 1
 332.592773438 -56 l 1
362.592773438 -60 m 1
 364.592773438 -62 l 1
 362.592773438 -60 l 1
84.5927734375 -62 m 1
 86.5927734375 -64 l 1
 84.5927734375 -62 l 1
376.592773438 -64 m 1
 378.592773438 -66 l 1
 376.592773438 -64 l 1
308.592773438 -66 m 1
 310.592773438 -68 l 1
 308.592773438 -66 l 1
52.5927734375 -70 m 1
 54.5927734375 -72 l 1
 52.5927734375 -70 l 1
78.5927734375 -70 m 1
 80.5927734375 -72 l 1
 78.5927734375 -70 l 1
98.5927734375 -70 m 1
 100.592773438 -72 l 1
 98.5927734375 -70 l 1
358.592773438 -70 m 1
 360.592773438 -72 l 1
 358.592773438 -70 l 1
324.592773438 -74 m 1
 326.592773438 -76 l 1
 324.592773438 -74 l 1
70.5927734375 -76 m 1
 72.5927734375 -78 l 1
 70.5927734375 -76 l 1
46.5927734375 -80 m 1
 48.5927734375 -82 l 1
 46.5927734375 -80 l 1
350.592773438 -80 m 1
 352.592773438 -82 l 1
 350.592773438 -80 l 1
112.592773438 -82 m 1
 114.592773438 -84 l 1
 112.592773438 -82 l 1
304.592773438 -82 m 1
 306.592773438 -84 l 1
 304.592773438 -82 l 1
318.592773438 -82 m 1
 320.592773438 -84 l 1
 318.592773438 -82 l 1
340.592773438 -82 m 1
 342.592773438 -84 l 1
 340.592773438 -82 l 1
374.592773438 -82 m 1
 376.592773438 -84 l 1
 374.592773438 -82 l 1
94.5927734375 -84 m 1
 96.5927734375 -86 l 1
 94.5927734375 -84 l 1
64.5927734375 -86 m 1
 66.5927734375 -88 l 1
 64.5927734375 -86 l 1
368.592773438 -88 m 1
 370.592773438 -90 l 1
 368.592773438 -88 l 1
42.5927734375 -92 m 1
 44.5927734375 -94 l 1
 42.5927734375 -92 l 1
86.5927734375 -92 m 1
 88.5927734375 -94 l 1
 86.5927734375 -92 l 1
108.592773438 -94 m 1
 110.592773438 -96 l 1
 108.592773438 -94 l 1
126.592773438 -94 m 1
 128.592773438 -96 l 1
 126.592773438 -94 l 1
336.592773438 -94 m 1
 338.592773438 -96 l 1
 336.592773438 -94 l 1
80.5927734375 -96 m 1
 82.5927734375 -98 l 1
 80.5927734375 -96 l 1
298.592773438 -96 m 1
 300.592773438 -98 l 1
 298.592773438 -96 l 1
58.5927734375 -98 m 1
 60.5927734375 -100 l 1
 58.5927734375 -98 l 1
314.592773438 -98 m 1
 316.592773438 -100 l 1
 314.592773438 -98 l 1
360.592773438 -98 m 1
 362.592773438 -100 l 1
 360.592773438 -98 l 1
328.592773438 -100 m 1
 330.592773438 -102 l 1
 328.592773438 -100 l 1
142.592773438 -102 m 1
 144.592773438 -104 l 1
 142.592773438 -102 l 1
354.592773438 -102 m 1
 356.592773438 -104 l 1
 354.592773438 -102 l 1
40.5927734375 -106 m 1
 42.5927734375 -108 l 1
 40.5927734375 -106 l 1
74.5927734375 -106 m 1
 76.5927734375 -108 l 1
 74.5927734375 -106 l 1
102.592773438 -106 m 1
 104.592773438 -108 l 1
 102.592773438 -106 l 1
120.592773438 -108 m 1
 122.592773438 -110 l 1
 120.592773438 -108 l 1
134.592773438 -110 m 1
 136.592773438 -112 l 1
 134.592773438 -110 l 1
310.592773438 -110 m 1
 312.592773438 -112 l 1
 310.592773438 -110 l 1
54.5927734375 -112 m 1
 56.5927734375 -114 l 1
 54.5927734375 -112 l 1
158.592773438 -112 m 1
 160.592773438 -114 l 1
 158.592773438 -112 l 1
294.592773438 -112 m 1
 296.592773438 -114 l 1
 294.592773438 -112 l 1
306.592773438 -112 m 1
 308.592773438 -114 l 1
 306.592773438 -112 l 1
348.592773438 -112 m 1
 350.592773438 -114 l 1
 348.592773438 -112 l 1
68.5927734375 -116 m 1
 70.5927734375 -118 l 1
 68.5927734375 -116 l 1
96.5927734375 -116 m 1
 98.5927734375 -118 l 1
 96.5927734375 -116 l 1
328.592773438 -116 m 1
 330.592773438 -118 l 1
 328.592773438 -116 l 1
172.592773438 -118 m 1
 174.592773438 -120 l 1
 172.592773438 -118 l 1
182.592773438 -118 m 1
 184.592773438 -120 l 1
 182.592773438 -118 l 1
192.592773438 -118 m 1
 194.592773438 -120 l 1
 192.592773438 -118 l 1
204.592773438 -118 m 1
 206.592773438 -120 l 1
 204.592773438 -118 l 1
288.592773438 -118 m 1
 290.592773438 -120 l 1
 288.592773438 -118 l 1
342.592773438 -118 m 1
 344.592773438 -120 l 1
 342.592773438 -118 l 1
90.5927734375 -120 m 1
 92.5927734375 -122 l 1
 90.5927734375 -120 l 1
116.592773438 -120 m 1
 118.592773438 -122 l 1
 116.592773438 -120 l 1
152.592773438 -120 m 1
 154.592773438 -122 l 1
 152.592773438 -120 l 1
284.592773438 -120 m 1
 286.592773438 -122 l 1
 284.592773438 -120 l 1
278.592773438 -122 m 1
 280.592773438 -124 l 1
 278.592773438 -122 l 1
274.592773438 -124 m 1
 276.592773438 -126 l 1
 274.592773438 -124 l 1
132.592773438 -126 m 1
 134.592773438 -128 l 1
 132.592773438 -126 l 1
146.592773438 -126 m 1
 148.592773438 -128 l 1
 146.592773438 -126 l 1
220.592773438 -126 m 1
 222.592773438 -128 l 1
 220.592773438 -126 l 1
270.592773438 -126 m 1
 272.592773438 -128 l 1
 270.592773438 -126 l 1
84.5927734375 -128 m 1
 86.5927734375 -130 l 1
 84.5927734375 -128 l 1
232.592773438 -128 m 1
 234.592773438 -130 l 1
 232.592773438 -128 l 1
256.592773438 -128 m 1
 258.592773438 -130 l 1
 256.592773438 -128 l 1
266.592773438 -128 m 1
 268.592773438 -130 l 1
 266.592773438 -128 l 1
244.592773438 -130 m 1
 246.592773438 -132 l 1
 244.592773438 -130 l 1
326.592773438 -130 m 1
 328.592773438 -132 l 1
 326.592773438 -130 l 1
68.5927734375 -132 m 1
 70.5927734375 -134 l 1
 68.5927734375 -132 l 1
112.592773438 -132 m 1
 114.592773438 -134 l 1
 112.592773438 -132 l 1
322.592773438 -132 m 1
 324.592773438 -134 l 1
 322.592773438 -132 l 1
170.592773438 -134 m 1
 172.592773438 -136 l 1
 170.592773438 -134 l 1
318.592773438 -134 m 1
 320.592773438 -136 l 1
 318.592773438 -134 l 1
212.592773438 -136 m 1
 214.592773438 -138 l 1
 212.592773438 -136 l 1
308.592773438 -136 m 1
 310.592773438 -138 l 1
 308.592773438 -136 l 1
340.592773438 -136 m 1
 342.592773438 -138 l 1
 340.592773438 -136 l 1
356.592773438 -136 m 1
 358.592773438 -138 l 1
 356.592773438 -136 l 1
128.592773438 -138 m 1
 130.592773438 -140 l 1
 128.592773438 -138 l 1
202.592773438 -138 m 1
 204.592773438 -140 l 1
 202.592773438 -138 l 1
352.592773438 -138 m 1
 354.592773438 -140 l 1
 352.592773438 -138 l 1
186.592773438 -140 m 1
 188.592773438 -142 l 1
 186.592773438 -140 l 1
196.592773438 -140 m 1
 198.592773438 -142 l 1
 196.592773438 -140 l 1
106.592773438 -142 m 1
 108.592773438 -144 l 1
 106.592773438 -142 l 1
164.592773438 -142 m 1
 166.592773438 -144 l 1
 164.592773438 -142 l 1
84.5927734375 -144 m 1
 86.5927734375 -146 l 1
 84.5927734375 -144 l 1
102.592773438 -144 m 1
 104.592773438 -146 l 1
 102.592773438 -144 l 1
144.592773438 -144 m 1
 146.592773438 -146 l 1
 144.592773438 -144 l 1
98.5927734375 -146 m 1
 100.592773438 -148 l 1
 98.5927734375 -146 l 1
158.592773438 -146 m 1
 160.592773438 -148 l 1
 158.592773438 -146 l 1
228.592773438 -146 m 1
 230.592773438 -148 l 1
 228.592773438 -146 l 1
240.592773438 -148 m 1
 242.592773438 -150 l 1
 240.592773438 -148 l 1
252.592773438 -148 m 1
 254.592773438 -150 l 1
 252.592773438 -148 l 1
262.592773438 -148 m 1
 264.592773438 -150 l 1
 262.592773438 -148 l 1
302.592773438 -148 m 1
 304.592773438 -150 l 1
 302.592773438 -148 l 1
124.592773438 -152 m 1
 126.592773438 -154 l 1
 124.592773438 -152 l 1
182.592773438 -154 m 1
 184.592773438 -156 l 1
 182.592773438 -154 l 1
296.592773438 -154 m 1
 298.592773438 -156 l 1
 296.592773438 -154 l 1
140.592773438 -156 m 1
 142.592773438 -158 l 1
 140.592773438 -156 l 1
278.592773438 -156 m 1
 280.592773438 -158 l 1
 278.592773438 -156 l 1
290.592773438 -156 m 1
 292.592773438 -158 l 1
 290.592773438 -156 l 1
220.592773438 -158 m 1
 222.592773438 -160 l 1
 220.592773438 -158 l 1
318.592773438 -158 m 1
 320.592773438 -160 l 1
 318.592773438 -158 l 1
338.592773438 -158 m 1
 340.592773438 -160 l 1
 338.592773438 -158 l 1
330.592773438 -160 m 1
 332.592773438 -162 l 1
 330.592773438 -160 l 1
198.592773438 -162 m 1
 200.592773438 -164 l 1
 198.592773438 -162 l 1
214.592773438 -162 m 1
 216.592773438 -164 l 1
 214.592773438 -162 l 1
156.592773438 -164 m 1
 158.592773438 -166 l 1
 156.592773438 -164 l 1
236.592773438 -164 m 1
 238.592773438 -166 l 1
 236.592773438 -164 l 1
172.592773438 -166 m 1
 174.592773438 -168 l 1
 172.592773438 -166 l 1
252.592773438 -166 m 1
 254.592773438 -168 l 1
 252.592773438 -166 l 1
122.592773438 -168 m 1
 124.592773438 -170 l 1
 122.592773438 -168 l 1
134.592773438 -168 m 1
 136.592773438 -170 l 1
 134.592773438 -168 l 1
268.592773438 -168 m 1
 270.592773438 -170 l 1
 268.592773438 -168 l 1
188.592773438 -170 m 1
 190.592773438 -172 l 1
 188.592773438 -170 l 1
314.592773438 -172 m 1
 316.592773438 -174 l 1
 314.592773438 -172 l 1
150.592773438 -174 m 1
 152.592773438 -176 l 1
 150.592773438 -174 l 1
282.592773438 -174 m 1
 284.592773438 -176 l 1
 282.592773438 -174 l 1
210.592773438 -176 m 1
 212.592773438 -178 l 1
 210.592773438 -176 l 1
206.592773438 -178 m 1
 208.592773438 -180 l 1
 206.592773438 -178 l 1
296.592773438 -178 m 1
 298.592773438 -180 l 1
 296.592773438 -178 l 1
168.592773438 -180 m 1
 170.592773438 -182 l 1
 168.592773438 -180 l 1
232.592773438 -180 m 1
 234.592773438 -182 l 1
 232.592773438 -180 l 1
244.592773438 -180 m 1
 246.592773438 -182 l 1
 244.592773438 -180 l 1
182.592773438 -182 m 1
 184.592773438 -184 l 1
 182.592773438 -182 l 1
228.592773438 -182 m 1
 230.592773438 -184 l 1
 228.592773438 -182 l 1
258.592773438 -182 m 1
 260.592773438 -184 l 1
 258.592773438 -182 l 1
200.592773438 -184 m 1
 202.592773438 -186 l 1
 200.592773438 -184 l 1
270.592773438 -184 m 1
 272.592773438 -186 l 1
 270.592773438 -184 l 1
EndSplineSet
EndChar

StartChar: i
Encoding: 105 105 70
Width: 170
VWidth: 0
Flags: HW
LayerCount: 2
Back
Fore
SplineSet
113.73046875 468 m 1
 103.73046875 451 71.73046875 457 58.73046875 467 c 0
 36.73046875 484 34.73046875 519 50.73046875 540 c 0
 74.73046875 572 125.73046875 562 137.73046875 524 c 0
 144.73046875 500 130.73046875 484 117.73046875 466 c 1
 113.73046875 468 l 1
91.73046875 530 m 1
 93.73046875 528 l 1
 91.73046875 530 l 1
101.73046875 530 m 1
 103.73046875 528 l 1
 101.73046875 530 l 1
87.73046875 528 m 1
 89.73046875 526 l 1
 87.73046875 528 l 1
115.73046875 526 m 1
 117.73046875 524 l 1
 115.73046875 526 l 1
81.73046875 524 m 1
 83.73046875 522 l 1
 81.73046875 524 l 1
77.73046875 522 m 1
 79.73046875 520 l 1
 77.73046875 522 l 1
73.73046875 520 m 1
 75.73046875 518 l 1
 73.73046875 520 l 1
65.73046875 514 m 1
 67.73046875 512 l 1
 65.73046875 514 l 1
129.73046875 512 m 1
 131.73046875 510 l 1
 129.73046875 512 l 1
125.73046875 510 m 1
 127.73046875 508 l 1
 125.73046875 510 l 1
59.73046875 508 m 1
 61.73046875 506 l 1
 59.73046875 508 l 1
111.73046875 508 m 1
 113.73046875 506 l 1
 111.73046875 508 l 1
121.73046875 508 m 1
 123.73046875 506 l 1
 121.73046875 508 l 1
105.73046875 500 m 1
 107.73046875 498 l 1
 105.73046875 500 l 1
101.73046875 498 m 1
 103.73046875 496 l 1
 101.73046875 498 l 1
95.73046875 494 m 1
 97.73046875 492 l 1
 95.73046875 494 l 1
57.73046875 492 m 1
 59.73046875 490 l 1
 57.73046875 492 l 1
79.73046875 492 m 1
 81.73046875 490 l 1
 79.73046875 492 l 1
89.73046875 492 m 1
 91.73046875 490 l 1
 89.73046875 492 l 1
75.73046875 490 m 1
 77.73046875 488 l 1
 75.73046875 490 l 1
71.73046875 488 m 1
 73.73046875 486 l 1
 71.73046875 488 l 1
125.73046875 482 m 1
 127.73046875 480 l 1
 125.73046875 482 l 1
65.73046875 472 m 1
 67.73046875 470 l 1
 65.73046875 472 l 1
107.73046875 466 m 1
 109.73046875 464 l 1
 107.73046875 466 l 1
93.73046875 464 m 1
 95.73046875 462 l 1
 93.73046875 464 l 1
103.73046875 464 m 1
 105.73046875 462 l 1
 103.73046875 464 l 1
81.73046875 462 m 1
 83.73046875 460 l 1
 81.73046875 462 l 1
105.73046875 -2 m 0
 86.73046875 -2 72.73046875 -9 55.73046875 5 c 0
 36.73046875 21 36.73046875 49 33.73046875 72 c 0
 26.73046875 133 31.73046875 193 31.73046875 254 c 0
 31.73046875 289 21.73046875 349 57.73046875 369 c 0
 85.73046875 385 120.73046875 364 124.73046875 333 c 0
 133.73046875 258 130.73046875 177 129.73046875 102 c 0
 129.73046875 76 135.73046875 44 124.73046875 20 c 0
 119.73046875 11 112.73046875 5 105.73046875 -2 c 0
73.73046875 346 m 1
 75.73046875 344 l 1
 73.73046875 346 l 1
85.73046875 344 m 1
 87.73046875 342 l 1
 85.73046875 344 l 1
97.73046875 342 m 1
 99.73046875 340 l 1
 97.73046875 342 l 1
107.73046875 342 m 1
 109.73046875 340 l 1
 107.73046875 342 l 1
67.73046875 338 m 1
 69.73046875 336 l 1
 67.73046875 338 l 1
61.73046875 330 m 1
 63.73046875 328 l 1
 61.73046875 330 l 1
55.73046875 324 m 1
 57.73046875 322 l 1
 55.73046875 324 l 1
83.73046875 324 m 1
 85.73046875 322 l 1
 83.73046875 324 l 1
93.73046875 324 m 1
 95.73046875 322 l 1
 93.73046875 324 l 1
107.73046875 322 m 1
 109.73046875 320 l 1
 107.73046875 322 l 1
77.73046875 314 m 1
 79.73046875 312 l 1
 77.73046875 314 l 1
51.73046875 312 m 1
 53.73046875 310 l 1
 51.73046875 312 l 1
71.73046875 306 m 1
 73.73046875 304 l 1
 71.73046875 306 l 1
105.73046875 306 m 1
 107.73046875 304 l 1
 105.73046875 306 l 1
117.73046875 306 m 1
 119.73046875 304 l 1
 117.73046875 306 l 1
99.73046875 304 m 1
 101.73046875 302 l 1
 99.73046875 304 l 1
93.73046875 302 m 1
 95.73046875 300 l 1
 93.73046875 302 l 1
65.73046875 298 m 1
 67.73046875 296 l 1
 65.73046875 298 l 1
53.73046875 294 m 1
 55.73046875 292 l 1
 53.73046875 294 l 1
87.73046875 290 m 1
 89.73046875 288 l 1
 87.73046875 290 l 1
79.73046875 282 m 1
 81.73046875 280 l 1
 79.73046875 282 l 1
51.73046875 280 m 1
 53.73046875 278 l 1
 51.73046875 280 l 1
73.73046875 280 m 1
 75.73046875 278 l 1
 73.73046875 280 l 1
119.73046875 280 m 1
 121.73046875 278 l 1
 119.73046875 280 l 1
65.73046875 278 m 1
 67.73046875 276 l 1
 65.73046875 278 l 1
111.73046875 278 m 1
 113.73046875 276 l 1
 111.73046875 278 l 1
101.73046875 276 m 1
 103.73046875 274 l 1
 101.73046875 276 l 1
95.73046875 266 m 1
 97.73046875 264 l 1
 95.73046875 266 l 1
47.73046875 264 m 1
 49.73046875 262 l 1
 47.73046875 264 l 1
59.73046875 262 m 1
 61.73046875 260 l 1
 59.73046875 262 l 1
41.73046875 256 m 1
 43.73046875 254 l 1
 41.73046875 256 l 1
73.73046875 256 m 1
 75.73046875 254 l 1
 73.73046875 256 l 1
87.73046875 256 m 1
 89.73046875 254 l 1
 87.73046875 256 l 1
115.73046875 256 m 1
 117.73046875 254 l 1
 115.73046875 256 l 1
111.73046875 254 m 1
 113.73046875 252 l 1
 111.73046875 254 l 1
105.73046875 248 m 1
 107.73046875 246 l 1
 105.73046875 248 l 1
67.73046875 244 m 1
 69.73046875 242 l 1
 67.73046875 244 l 1
59.73046875 242 m 1
 61.73046875 240 l 1
 59.73046875 242 l 1
85.73046875 240 m 1
 87.73046875 238 l 1
 85.73046875 240 l 1
97.73046875 240 m 1
 99.73046875 238 l 1
 97.73046875 240 l 1
53.73046875 234 m 1
 55.73046875 232 l 1
 53.73046875 234 l 1
81.73046875 226 m 1
 83.73046875 224 l 1
 81.73046875 226 l 1
111.73046875 224 m 1
 113.73046875 222 l 1
 111.73046875 224 l 1
75.73046875 222 m 1
 77.73046875 220 l 1
 75.73046875 222 l 1
107.73046875 222 m 1
 109.73046875 220 l 1
 107.73046875 222 l 1
49.73046875 220 m 1
 51.73046875 218 l 1
 49.73046875 220 l 1
95.73046875 220 m 1
 97.73046875 218 l 1
 95.73046875 220 l 1
69.73046875 218 m 1
 71.73046875 216 l 1
 69.73046875 218 l 1
65.73046875 216 m 1
 67.73046875 214 l 1
 65.73046875 216 l 1
43.73046875 212 m 1
 45.73046875 210 l 1
 43.73046875 212 l 1
61.73046875 202 m 1
 63.73046875 200 l 1
 61.73046875 202 l 1
97.73046875 202 m 1
 99.73046875 200 l 1
 97.73046875 202 l 1
109.73046875 202 m 1
 111.73046875 200 l 1
 109.73046875 202 l 1
93.73046875 200 m 1
 95.73046875 198 l 1
 93.73046875 200 l 1
51.73046875 194 m 1
 53.73046875 192 l 1
 51.73046875 194 l 1
47.73046875 192 m 1
 49.73046875 190 l 1
 47.73046875 192 l 1
83.73046875 192 m 1
 85.73046875 190 l 1
 83.73046875 192 l 1
79.73046875 190 m 1
 81.73046875 188 l 1
 79.73046875 190 l 1
75.73046875 188 m 1
 77.73046875 186 l 1
 75.73046875 188 l 1
121.73046875 186 m 1
 123.73046875 184 l 1
 121.73046875 186 l 1
69.73046875 184 m 1
 71.73046875 182 l 1
 69.73046875 184 l 1
115.73046875 182 m 1
 117.73046875 180 l 1
 115.73046875 182 l 1
111.73046875 180 m 1
 113.73046875 178 l 1
 111.73046875 180 l 1
105.73046875 178 m 1
 107.73046875 176 l 1
 105.73046875 178 l 1
101.73046875 176 m 1
 103.73046875 174 l 1
 101.73046875 176 l 1
63.73046875 172 m 1
 65.73046875 170 l 1
 63.73046875 172 l 1
51.73046875 170 m 1
 53.73046875 168 l 1
 51.73046875 170 l 1
93.73046875 162 m 1
 95.73046875 160 l 1
 93.73046875 162 l 1
83.73046875 160 m 1
 85.73046875 158 l 1
 83.73046875 160 l 1
79.73046875 158 m 1
 81.73046875 156 l 1
 79.73046875 158 l 1
75.73046875 156 m 1
 77.73046875 154 l 1
 75.73046875 156 l 1
51.73046875 154 m 1
 53.73046875 152 l 1
 51.73046875 154 l 1
69.73046875 154 m 1
 71.73046875 152 l 1
 69.73046875 154 l 1
63.73046875 152 m 1
 65.73046875 150 l 1
 63.73046875 152 l 1
109.73046875 152 m 1
 111.73046875 150 l 1
 109.73046875 152 l 1
103.73046875 140 m 1
 105.73046875 138 l 1
 103.73046875 140 l 1
51.73046875 138 m 1
 53.73046875 136 l 1
 51.73046875 138 l 1
121.73046875 138 m 1
 123.73046875 136 l 1
 121.73046875 138 l 1
65.73046875 130 m 1
 67.73046875 128 l 1
 65.73046875 130 l 1
97.73046875 130 m 1
 99.73046875 128 l 1
 97.73046875 130 l 1
117.73046875 128 m 1
 119.73046875 126 l 1
 117.73046875 128 l 1
91.73046875 126 m 1
 93.73046875 124 l 1
 91.73046875 126 l 1
45.73046875 124 m 1
 47.73046875 122 l 1
 45.73046875 124 l 1
79.73046875 124 m 1
 81.73046875 122 l 1
 79.73046875 124 l 1
59.73046875 120 m 1
 61.73046875 118 l 1
 59.73046875 120 l 1
113.73046875 114 m 1
 115.73046875 112 l 1
 113.73046875 114 l 1
77.73046875 110 m 1
 79.73046875 108 l 1
 77.73046875 110 l 1
49.73046875 106 m 1
 51.73046875 104 l 1
 49.73046875 106 l 1
93.73046875 106 m 1
 95.73046875 104 l 1
 93.73046875 106 l 1
107.73046875 106 m 1
 109.73046875 104 l 1
 107.73046875 106 l 1
69.73046875 104 m 1
 71.73046875 102 l 1
 69.73046875 104 l 1
63.73046875 102 m 1
 65.73046875 100 l 1
 63.73046875 102 l 1
89.73046875 92 m 1
 91.73046875 90 l 1
 89.73046875 92 l 1
55.73046875 90 m 1
 57.73046875 88 l 1
 55.73046875 90 l 1
105.73046875 90 m 1
 107.73046875 88 l 1
 105.73046875 90 l 1
49.73046875 88 m 1
 51.73046875 86 l 1
 49.73046875 88 l 1
119.73046875 88 m 1
 121.73046875 86 l 1
 119.73046875 88 l 1
81.73046875 82 m 1
 83.73046875 80 l 1
 81.73046875 82 l 1
77.73046875 80 m 1
 79.73046875 78 l 1
 77.73046875 80 l 1
73.73046875 78 m 1
 75.73046875 76 l 1
 73.73046875 78 l 1
99.73046875 76 m 1
 101.73046875 74 l 1
 99.73046875 76 l 1
113.73046875 72 m 1
 115.73046875 70 l 1
 113.73046875 72 l 1
65.73046875 68 m 1
 67.73046875 66 l 1
 65.73046875 68 l 1
51.73046875 66 m 1
 53.73046875 64 l 1
 51.73046875 66 l 1
97.73046875 60 m 1
 99.73046875 58 l 1
 97.73046875 60 l 1
109.73046875 56 m 1
 111.73046875 54 l 1
 109.73046875 56 l 1
121.73046875 56 m 1
 123.73046875 54 l 1
 121.73046875 56 l 1
87.73046875 54 m 1
 89.73046875 52 l 1
 87.73046875 54 l 1
63.73046875 52 m 1
 65.73046875 50 l 1
 63.73046875 52 l 1
77.73046875 52 m 1
 79.73046875 50 l 1
 77.73046875 52 l 1
59.73046875 50 m 1
 61.73046875 48 l 1
 59.73046875 50 l 1
53.73046875 48 m 1
 55.73046875 46 l 1
 53.73046875 48 l 1
105.73046875 40 m 1
 107.73046875 38 l 1
 105.73046875 40 l 1
101.73046875 38 m 1
 103.73046875 36 l 1
 101.73046875 38 l 1
119.73046875 36 m 1
 121.73046875 34 l 1
 119.73046875 36 l 1
93.73046875 34 m 1
 95.73046875 32 l 1
 93.73046875 34 l 1
81.73046875 32 m 1
 83.73046875 30 l 1
 81.73046875 32 l 1
53.73046875 28 m 1
 55.73046875 26 l 1
 53.73046875 28 l 1
75.73046875 26 m 1
 77.73046875 24 l 1
 75.73046875 26 l 1
71.73046875 24 m 1
 73.73046875 22 l 1
 71.73046875 24 l 1
67.73046875 22 m 1
 69.73046875 20 l 1
 67.73046875 22 l 1
99.73046875 14 m 1
 101.73046875 12 l 1
 99.73046875 14 l 1
115.73046875 14 m 1
 117.73046875 12 l 1
 115.73046875 14 l 1
95.73046875 12 m 1
 97.73046875 10 l 1
 95.73046875 12 l 1
67.73046875 4 m 1
 69.73046875 2 l 1
 67.73046875 4 l 1
87.73046875 -2 m 1
 89.73046875 -4 l 1
 87.73046875 -2 l 1
EndSplineSet
EndChar

StartChar: z
Encoding: 122 122 71
Width: 349
VWidth: 0
Flags: HW
LayerCount: 2
Back
Fore
SplineSet
188.454101562 310 m 1
 159.454101562 310 131.454101562 312 102.454101562 312 c 0
 80.4541015625 312 51.4541015625 304 31.4541015625 316 c 0
 -0.5458984375 335 4.4541015625 384 38.4541015625 397 c 0
 63.4541015625 407 94.4541015625 404 120.454101562 404 c 0
 166.454101562 404 213.454101562 405 259.454101562 401 c 0
 277.454101562 399 297.454101562 399 312.454101562 387 c 0
 333.454101562 369 337.454101562 325 310.454101562 310 c 1
 308.454101562 289 273.454101562 258 260.454101562 241 c 0
 220.454101562 188 184.454101562 131 140.454101562 80 c 1
 169.454101562 78 199.454101562 79 228.454101562 79 c 0
 249.454101562 79 274.454101562 86 294.454101562 76 c 0
 324.454101562 62 327.454101562 17 300.454101562 -1 c 0
 280.454101562 -14 249.454101562 -14 226.454101562 -14 c 0
 175.454101562 -14 119.454101562 -25 69.4541015625 -12 c 0
 46.4541015625 -6 21.4541015625 8 13.4541015625 32 c 0
 3.4541015625 64 29.4541015625 93 45.4541015625 118 c 0
 89.4541015625 184 139.454101562 248 188.454101562 310 c 1
92.4541015625 398 m 1
 94.4541015625 396 l 1
 92.4541015625 398 l 1
108.454101562 384 m 1
 110.454101562 382 l 1
 108.454101562 384 l 1
104.454101562 382 m 1
 106.454101562 380 l 1
 104.454101562 382 l 1
120.454101562 382 m 1
 122.454101562 380 l 1
 120.454101562 382 l 1
218.454101562 382 m 1
 220.454101562 380 l 1
 218.454101562 382 l 1
92.4541015625 380 m 1
 94.4541015625 378 l 1
 92.4541015625 380 l 1
230.454101562 380 m 1
 232.454101562 378 l 1
 230.454101562 380 l 1
134.454101562 378 m 1
 136.454101562 376 l 1
 134.454101562 378 l 1
86.4541015625 376 m 1
 88.4541015625 374 l 1
 86.4541015625 376 l 1
256.454101562 376 m 1
 258.454101562 374 l 1
 256.454101562 376 l 1
72.4541015625 374 m 1
 74.4541015625 372 l 1
 72.4541015625 374 l 1
148.454101562 374 m 1
 150.454101562 372 l 1
 148.454101562 374 l 1
208.454101562 374 m 1
 210.454101562 372 l 1
 208.454101562 374 l 1
248.454101562 374 m 1
 250.454101562 372 l 1
 248.454101562 374 l 1
64.4541015625 372 m 1
 66.4541015625 370 l 1
 64.4541015625 372 l 1
160.454101562 372 m 1
 162.454101562 370 l 1
 160.454101562 372 l 1
194.454101562 372 m 1
 196.454101562 370 l 1
 194.454101562 372 l 1
204.454101562 372 m 1
 206.454101562 370 l 1
 204.454101562 372 l 1
270.454101562 372 m 1
 272.454101562 370 l 1
 270.454101562 372 l 1
34.4541015625 370 m 1
 36.4541015625 368 l 1
 34.4541015625 370 l 1
58.4541015625 370 m 1
 60.4541015625 368 l 1
 58.4541015625 370 l 1
172.454101562 370 m 1
 174.454101562 368 l 1
 172.454101562 370 l 1
182.454101562 370 m 1
 184.454101562 368 l 1
 182.454101562 370 l 1
282.454101562 370 m 1
 284.454101562 368 l 1
 282.454101562 370 l 1
52.4541015625 368 m 1
 54.4541015625 366 l 1
 52.4541015625 368 l 1
294.454101562 368 m 1
 296.454101562 366 l 1
 294.454101562 368 l 1
306.454101562 368 m 1
 308.454101562 366 l 1
 306.454101562 368 l 1
48.4541015625 366 m 1
 50.4541015625 364 l 1
 48.4541015625 366 l 1
242.454101562 364 m 1
 244.454101562 362 l 1
 242.454101562 364 l 1
126.454101562 362 m 1
 128.454101562 360 l 1
 126.454101562 362 l 1
226.454101562 362 m 1
 228.454101562 360 l 1
 226.454101562 362 l 1
238.454101562 362 m 1
 240.454101562 360 l 1
 238.454101562 362 l 1
116.454101562 360 m 1
 118.454101562 358 l 1
 116.454101562 360 l 1
138.454101562 360 m 1
 140.454101562 358 l 1
 138.454101562 360 l 1
28.4541015625 358 m 1
 30.4541015625 356 l 1
 28.4541015625 358 l 1
104.454101562 358 m 1
 106.454101562 356 l 1
 104.454101562 358 l 1
86.4541015625 356 m 1
 88.4541015625 354 l 1
 86.4541015625 356 l 1
98.4541015625 356 m 1
 100.454101562 354 l 1
 98.4541015625 356 l 1
150.454101562 356 m 1
 152.454101562 354 l 1
 150.454101562 356 l 1
164.454101562 354 m 1
 166.454101562 352 l 1
 164.454101562 354 l 1
264.454101562 354 m 1
 266.454101562 352 l 1
 264.454101562 354 l 1
276.454101562 354 m 1
 278.454101562 352 l 1
 276.454101562 354 l 1
322.454101562 354 m 1
 324.454101562 352 l 1
 322.454101562 354 l 1
44.4541015625 352 m 1
 46.4541015625 350 l 1
 44.4541015625 352 l 1
194.454101562 352 m 1
 196.454101562 350 l 1
 194.454101562 352 l 1
318.454101562 352 m 1
 320.454101562 350 l 1
 318.454101562 352 l 1
178.454101562 350 m 1
 180.454101562 348 l 1
 178.454101562 350 l 1
190.454101562 350 m 1
 192.454101562 348 l 1
 190.454101562 350 l 1
218.454101562 350 m 1
 220.454101562 348 l 1
 218.454101562 350 l 1
290.454101562 350 m 1
 292.454101562 348 l 1
 290.454101562 350 l 1
302.454101562 350 m 1
 304.454101562 348 l 1
 302.454101562 350 l 1
208.454101562 348 m 1
 210.454101562 346 l 1
 208.454101562 348 l 1
258.454101562 346 m 1
 260.454101562 344 l 1
 258.454101562 346 l 1
78.4541015625 344 m 1
 80.4541015625 342 l 1
 78.4541015625 344 l 1
232.454101562 344 m 1
 234.454101562 342 l 1
 232.454101562 344 l 1
38.4541015625 342 m 1
 40.4541015625 340 l 1
 38.4541015625 342 l 1
134.454101562 342 m 1
 136.454101562 340 l 1
 134.454101562 342 l 1
28.4541015625 340 m 1
 30.4541015625 338 l 1
 28.4541015625 340 l 1
68.4541015625 340 m 1
 70.4541015625 338 l 1
 68.4541015625 340 l 1
122.454101562 340 m 1
 124.454101562 338 l 1
 122.454101562 340 l 1
146.454101562 340 m 1
 148.454101562 338 l 1
 146.454101562 340 l 1
250.454101562 340 m 1
 252.454101562 338 l 1
 250.454101562 340 l 1
60.4541015625 338 m 1
 62.4541015625 336 l 1
 60.4541015625 338 l 1
94.4541015625 338 m 1
 96.4541015625 336 l 1
 94.4541015625 338 l 1
160.454101562 338 m 1
 162.454101562 336 l 1
 160.454101562 338 l 1
246.454101562 338 m 1
 248.454101562 336 l 1
 246.454101562 338 l 1
116.454101562 336 m 1
 118.454101562 334 l 1
 116.454101562 336 l 1
172.454101562 336 m 1
 174.454101562 334 l 1
 172.454101562 336 l 1
282.454101562 336 m 1
 284.454101562 334 l 1
 282.454101562 336 l 1
314.454101562 336 m 1
 316.454101562 334 l 1
 314.454101562 336 l 1
112.454101562 334 m 1
 114.454101562 332 l 1
 112.454101562 334 l 1
276.454101562 334 m 1
 278.454101562 332 l 1
 276.454101562 334 l 1
108.454101562 332 m 1
 110.454101562 330 l 1
 108.454101562 332 l 1
298.454101562 332 m 1
 300.454101562 330 l 1
 298.454101562 332 l 1
54.4541015625 330 m 1
 56.4541015625 328 l 1
 54.4541015625 330 l 1
186.454101562 330 m 1
 188.454101562 328 l 1
 186.454101562 330 l 1
224.454101562 330 m 1
 226.454101562 328 l 1
 224.454101562 330 l 1
200.454101562 328 m 1
 202.454101562 326 l 1
 200.454101562 328 l 1
210.454101562 328 m 1
 212.454101562 326 l 1
 210.454101562 328 l 1
220.454101562 328 m 1
 222.454101562 326 l 1
 220.454101562 328 l 1
88.4541015625 326 m 1
 90.4541015625 324 l 1
 88.4541015625 326 l 1
238.454101562 326 m 1
 240.454101562 324 l 1
 238.454101562 326 l 1
270.454101562 324 m 1
 272.454101562 322 l 1
 270.454101562 324 l 1
30.4541015625 322 m 1
 32.4541015625 320 l 1
 30.4541015625 322 l 1
46.4541015625 322 m 1
 48.4541015625 320 l 1
 46.4541015625 322 l 1
82.4541015625 322 m 1
 84.4541015625 320 l 1
 82.4541015625 322 l 1
140.454101562 322 m 1
 142.454101562 320 l 1
 140.454101562 322 l 1
154.454101562 322 m 1
 156.454101562 320 l 1
 154.454101562 322 l 1
312.454101562 322 m 1
 314.454101562 320 l 1
 312.454101562 322 l 1
42.4541015625 320 m 1
 44.4541015625 318 l 1
 42.4541015625 320 l 1
104.454101562 318 m 1
 106.454101562 316 l 1
 104.454101562 318 l 1
168.454101562 318 m 1
 170.454101562 316 l 1
 168.454101562 318 l 1
74.4541015625 316 m 1
 76.4541015625 314 l 1
 74.4541015625 316 l 1
180.454101562 316 m 1
 182.454101562 314 l 1
 180.454101562 316 l 1
262.454101562 316 m 1
 264.454101562 314 l 1
 262.454101562 316 l 1
296.454101562 316 m 1
 298.454101562 314 l 1
 296.454101562 316 l 1
254.454101562 314 m 1
 256.454101562 312 l 1
 254.454101562 314 l 1
194.454101562 312 m 1
 196.454101562 310 l 1
 194.454101562 312 l 1
288.454101562 310 m 1
 290.454101562 308 l 1
 288.454101562 310 l 1
208.454101562 308 m 1
 210.454101562 306 l 1
 208.454101562 308 l 1
244.454101562 308 m 1
 246.454101562 306 l 1
 244.454101562 308 l 1
284.454101562 308 m 1
 286.454101562 306 l 1
 284.454101562 308 l 1
236.454101562 306 m 1
 238.454101562 304 l 1
 236.454101562 306 l 1
220.454101562 304 m 1
 222.454101562 302 l 1
 220.454101562 304 l 1
230.454101562 304 m 1
 232.454101562 302 l 1
 230.454101562 304 l 1
278.454101562 302 m 1
 280.454101562 300 l 1
 278.454101562 302 l 1
270.454101562 294 m 1
 272.454101562 292 l 1
 270.454101562 294 l 1
204.454101562 292 m 1
 206.454101562 290 l 1
 204.454101562 292 l 1
262.454101562 292 m 1
 264.454101562 290 l 1
 262.454101562 292 l 1
218.454101562 288 m 1
 220.454101562 286 l 1
 218.454101562 288 l 1
256.454101562 286 m 1
 258.454101562 284 l 1
 256.454101562 286 l 1
200.454101562 280 m 1
 202.454101562 278 l 1
 200.454101562 280 l 1
234.454101562 280 m 1
 236.454101562 278 l 1
 234.454101562 280 l 1
246.454101562 280 m 1
 248.454101562 278 l 1
 246.454101562 280 l 1
216.454101562 272 m 1
 218.454101562 270 l 1
 216.454101562 272 l 1
228.454101562 270 m 1
 230.454101562 268 l 1
 228.454101562 270 l 1
278.454101562 270 m 1
 280.454101562 268 l 1
 278.454101562 270 l 1
194.454101562 268 m 1
 196.454101562 266 l 1
 194.454101562 268 l 1
274.454101562 268 m 1
 276.454101562 266 l 1
 274.454101562 268 l 1
268.454101562 266 m 1
 270.454101562 264 l 1
 268.454101562 266 l 1
260.454101562 264 m 1
 262.454101562 262 l 1
 260.454101562 264 l 1
210.454101562 262 m 1
 212.454101562 260 l 1
 210.454101562 262 l 1
254.454101562 262 m 1
 256.454101562 260 l 1
 254.454101562 262 l 1
188.454101562 260 m 1
 190.454101562 258 l 1
 188.454101562 260 l 1
244.454101562 260 m 1
 246.454101562 258 l 1
 244.454101562 260 l 1
182.454101562 254 m 1
 184.454101562 252 l 1
 182.454101562 254 l 1
238.454101562 252 m 1
 240.454101562 250 l 1
 238.454101562 252 l 1
226.454101562 250 m 1
 228.454101562 248 l 1
 226.454101562 250 l 1
206.454101562 248 m 1
 208.454101562 246 l 1
 206.454101562 248 l 1
174.454101562 246 m 1
 176.454101562 244 l 1
 174.454101562 246 l 1
220.454101562 242 m 1
 222.454101562 240 l 1
 220.454101562 242 l 1
200.454101562 238 m 1
 202.454101562 236 l 1
 200.454101562 238 l 1
168.454101562 236 m 1
 170.454101562 234 l 1
 168.454101562 236 l 1
194.454101562 234 m 1
 196.454101562 232 l 1
 194.454101562 234 l 1
250.454101562 234 m 1
 252.454101562 232 l 1
 250.454101562 234 l 1
190.454101562 232 m 1
 192.454101562 230 l 1
 190.454101562 232 l 1
240.454101562 232 m 1
 242.454101562 230 l 1
 240.454101562 232 l 1
184.454101562 226 m 1
 186.454101562 224 l 1
 184.454101562 226 l 1
218.454101562 226 m 1
 220.454101562 224 l 1
 218.454101562 226 l 1
234.454101562 226 m 1
 236.454101562 224 l 1
 234.454101562 226 l 1
162.454101562 224 m 1
 164.454101562 222 l 1
 162.454101562 224 l 1
178.454101562 218 m 1
 180.454101562 216 l 1
 178.454101562 218 l 1
156.454101562 216 m 1
 158.454101562 214 l 1
 156.454101562 216 l 1
214.454101562 212 m 1
 216.454101562 210 l 1
 214.454101562 212 l 1
230.454101562 212 m 1
 232.454101562 210 l 1
 230.454101562 212 l 1
150.454101562 210 m 1
 152.454101562 208 l 1
 150.454101562 210 l 1
206.454101562 206 m 1
 208.454101562 204 l 1
 206.454101562 206 l 1
174.454101562 204 m 1
 176.454101562 202 l 1
 174.454101562 204 l 1
202.454101562 204 m 1
 204.454101562 202 l 1
 202.454101562 204 l 1
198.454101562 202 m 1
 200.454101562 200 l 1
 198.454101562 202 l 1
144.454101562 200 m 1
 146.454101562 198 l 1
 144.454101562 200 l 1
192.454101562 200 m 1
 194.454101562 198 l 1
 192.454101562 200 l 1
168.454101562 194 m 1
 170.454101562 192 l 1
 168.454101562 194 l 1
138.454101562 192 m 1
 140.454101562 190 l 1
 138.454101562 192 l 1
188.454101562 190 m 1
 190.454101562 188 l 1
 188.454101562 190 l 1
162.454101562 188 m 1
 164.454101562 186 l 1
 162.454101562 188 l 1
130.454101562 184 m 1
 132.454101562 182 l 1
 130.454101562 184 l 1
156.454101562 180 m 1
 158.454101562 178 l 1
 156.454101562 180 l 1
182.454101562 178 m 1
 184.454101562 176 l 1
 182.454101562 178 l 1
124.454101562 174 m 1
 126.454101562 172 l 1
 124.454101562 174 l 1
150.454101562 174 m 1
 152.454101562 172 l 1
 150.454101562 174 l 1
206.454101562 172 m 1
 208.454101562 170 l 1
 206.454101562 172 l 1
198.454101562 170 m 1
 200.454101562 168 l 1
 198.454101562 170 l 1
142.454101562 168 m 1
 144.454101562 166 l 1
 142.454101562 168 l 1
118.454101562 166 m 1
 120.454101562 164 l 1
 118.454101562 166 l 1
176.454101562 166 m 1
 178.454101562 164 l 1
 176.454101562 166 l 1
192.454101562 160 m 1
 194.454101562 158 l 1
 192.454101562 160 l 1
170.454101562 158 m 1
 172.454101562 156 l 1
 170.454101562 158 l 1
112.454101562 156 m 1
 114.454101562 154 l 1
 112.454101562 156 l 1
136.454101562 156 m 1
 138.454101562 154 l 1
 136.454101562 156 l 1
166.454101562 156 m 1
 168.454101562 154 l 1
 166.454101562 156 l 1
160.454101562 152 m 1
 162.454101562 150 l 1
 160.454101562 152 l 1
154.454101562 150 m 1
 156.454101562 148 l 1
 154.454101562 150 l 1
106.454101562 146 m 1
 108.454101562 144 l 1
 106.454101562 146 l 1
130.454101562 146 m 1
 132.454101562 144 l 1
 130.454101562 146 l 1
148.454101562 140 m 1
 150.454101562 138 l 1
 148.454101562 140 l 1
100.454101562 138 m 1
 102.454101562 136 l 1
 100.454101562 138 l 1
124.454101562 138 m 1
 126.454101562 136 l 1
 124.454101562 138 l 1
94.4541015625 128 m 1
 96.4541015625 126 l 1
 94.4541015625 128 l 1
118.454101562 128 m 1
 120.454101562 126 l 1
 118.454101562 128 l 1
144.454101562 128 m 1
 146.454101562 126 l 1
 144.454101562 128 l 1
164.454101562 124 m 1
 166.454101562 122 l 1
 164.454101562 124 l 1
88.4541015625 122 m 1
 90.4541015625 120 l 1
 88.4541015625 122 l 1
138.454101562 122 m 1
 140.454101562 120 l 1
 138.454101562 122 l 1
112.454101562 118 m 1
 114.454101562 116 l 1
 112.454101562 118 l 1
80.4541015625 114 m 1
 82.4541015625 112 l 1
 80.4541015625 114 l 1
158.454101562 114 m 1
 160.454101562 112 l 1
 158.454101562 114 l 1
132.454101562 112 m 1
 134.454101562 110 l 1
 132.454101562 112 l 1
108.454101562 108 m 1
 110.454101562 106 l 1
 108.454101562 108 l 1
74.4541015625 106 m 1
 76.4541015625 104 l 1
 74.4541015625 106 l 1
102.454101562 104 m 1
 104.454101562 102 l 1
 102.454101562 104 l 1
126.454101562 102 m 1
 128.454101562 100 l 1
 126.454101562 102 l 1
152.454101562 102 m 1
 154.454101562 100 l 1
 152.454101562 102 l 1
96.4541015625 100 m 1
 98.4541015625 98 l 1
 96.4541015625 100 l 1
68.4541015625 98 m 1
 70.4541015625 96 l 1
 68.4541015625 98 l 1
146.454101562 96 m 1
 148.454101562 94 l 1
 146.454101562 96 l 1
90.4541015625 90 m 1
 92.4541015625 88 l 1
 90.4541015625 90 l 1
62.4541015625 88 m 1
 64.4541015625 86 l 1
 62.4541015625 88 l 1
140.454101562 88 m 1
 142.454101562 86 l 1
 140.454101562 88 l 1
124.454101562 86 m 1
 126.454101562 84 l 1
 124.454101562 86 l 1
84.4541015625 82 m 1
 86.4541015625 80 l 1
 84.4541015625 82 l 1
118.454101562 80 m 1
 120.454101562 78 l 1
 118.454101562 80 l 1
56.4541015625 78 m 1
 58.4541015625 76 l 1
 56.4541015625 78 l 1
114.454101562 78 m 1
 116.454101562 76 l 1
 114.454101562 78 l 1
78.4541015625 76 m 1
 80.4541015625 74 l 1
 78.4541015625 76 l 1
108.454101562 76 m 1
 110.454101562 74 l 1
 108.454101562 76 l 1
140.454101562 76 m 1
 142.454101562 74 l 1
 140.454101562 76 l 1
102.454101562 70 m 1
 104.454101562 68 l 1
 102.454101562 70 l 1
50.4541015625 68 m 1
 52.4541015625 66 l 1
 50.4541015625 68 l 1
72.4541015625 66 m 1
 74.4541015625 64 l 1
 72.4541015625 66 l 1
176.454101562 66 m 1
 178.454101562 64 l 1
 176.454101562 66 l 1
252.454101562 62 m 1
 254.454101562 60 l 1
 252.454101562 62 l 1
96.4541015625 60 m 1
 98.4541015625 58 l 1
 96.4541015625 60 l 1
136.454101562 60 m 1
 138.454101562 58 l 1
 136.454101562 60 l 1
170.454101562 60 m 1
 172.454101562 58 l 1
 170.454101562 60 l 1
44.4541015625 58 m 1
 46.4541015625 56 l 1
 44.4541015625 58 l 1
66.4541015625 56 m 1
 68.4541015625 54 l 1
 66.4541015625 56 l 1
164.454101562 56 m 1
 166.454101562 54 l 1
 164.454101562 56 l 1
90.4541015625 54 m 1
 92.4541015625 52 l 1
 90.4541015625 54 l 1
150.454101562 54 m 1
 152.454101562 52 l 1
 150.454101562 54 l 1
160.454101562 54 m 1
 162.454101562 52 l 1
 160.454101562 54 l 1
192.454101562 54 m 1
 194.454101562 52 l 1
 192.454101562 54 l 1
268.454101562 54 m 1
 270.454101562 52 l 1
 268.454101562 54 l 1
204.454101562 52 m 1
 206.454101562 50 l 1
 204.454101562 52 l 1
128.454101562 50 m 1
 130.454101562 48 l 1
 128.454101562 50 l 1
216.454101562 50 m 1
 218.454101562 48 l 1
 216.454101562 50 l 1
244.454101562 50 m 1
 246.454101562 48 l 1
 244.454101562 50 l 1
284.454101562 50 m 1
 286.454101562 48 l 1
 284.454101562 50 l 1
38.4541015625 48 m 1
 40.4541015625 46 l 1
 38.4541015625 48 l 1
60.4541015625 48 m 1
 62.4541015625 46 l 1
 60.4541015625 48 l 1
84.4541015625 48 m 1
 86.4541015625 46 l 1
 84.4541015625 48 l 1
116.454101562 48 m 1
 118.454101562 46 l 1
 116.454101562 48 l 1
228.454101562 48 m 1
 230.454101562 46 l 1
 228.454101562 48 l 1
238.454101562 48 m 1
 240.454101562 46 l 1
 238.454101562 48 l 1
298.454101562 48 m 1
 300.454101562 46 l 1
 298.454101562 48 l 1
112.454101562 46 m 1
 114.454101562 44 l 1
 112.454101562 46 l 1
262.454101562 46 m 1
 264.454101562 44 l 1
 262.454101562 46 l 1
146.454101562 42 m 1
 148.454101562 40 l 1
 146.454101562 42 l 1
188.454101562 40 m 1
 190.454101562 38 l 1
 188.454101562 40 l 1
54.4541015625 38 m 1
 56.4541015625 36 l 1
 54.4541015625 38 l 1
78.4541015625 38 m 1
 80.4541015625 36 l 1
 78.4541015625 38 l 1
32.4541015625 36 m 1
 34.4541015625 34 l 1
 32.4541015625 36 l 1
280.454101562 36 m 1
 282.454101562 34 l 1
 280.454101562 36 l 1
312.454101562 36 m 1
 314.454101562 34 l 1
 312.454101562 36 l 1
106.454101562 34 m 1
 108.454101562 32 l 1
 106.454101562 34 l 1
140.454101562 34 m 1
 142.454101562 32 l 1
 140.454101562 34 l 1
204.454101562 34 m 1
 206.454101562 32 l 1
 204.454101562 34 l 1
136.454101562 32 m 1
 138.454101562 30 l 1
 136.454101562 32 l 1
218.454101562 32 m 1
 220.454101562 30 l 1
 218.454101562 32 l 1
260.454101562 32 m 1
 262.454101562 30 l 1
 260.454101562 32 l 1
294.454101562 32 m 1
 296.454101562 30 l 1
 294.454101562 32 l 1
48.4541015625 30 m 1
 50.4541015625 28 l 1
 48.4541015625 30 l 1
100.454101562 30 m 1
 102.454101562 28 l 1
 100.454101562 30 l 1
164.454101562 30 m 1
 166.454101562 28 l 1
 164.454101562 30 l 1
180.454101562 30 m 1
 182.454101562 28 l 1
 180.454101562 30 l 1
306.454101562 30 m 1
 308.454101562 28 l 1
 306.454101562 30 l 1
72.4541015625 28 m 1
 74.4541015625 26 l 1
 72.4541015625 28 l 1
232.454101562 28 m 1
 234.454101562 26 l 1
 232.454101562 28 l 1
128.454101562 26 m 1
 130.454101562 24 l 1
 128.454101562 26 l 1
254.454101562 26 m 1
 256.454101562 24 l 1
 254.454101562 26 l 1
274.454101562 26 m 1
 276.454101562 24 l 1
 274.454101562 26 l 1
94.4541015625 24 m 1
 96.4541015625 22 l 1
 94.4541015625 24 l 1
198.454101562 24 m 1
 200.454101562 22 l 1
 198.454101562 24 l 1
246.454101562 24 m 1
 248.454101562 22 l 1
 246.454101562 24 l 1
30.4541015625 22 m 1
 32.4541015625 20 l 1
 30.4541015625 22 l 1
122.454101562 20 m 1
 124.454101562 18 l 1
 122.454101562 20 l 1
158.454101562 20 m 1
 160.454101562 18 l 1
 158.454101562 20 l 1
44.4541015625 18 m 1
 46.4541015625 16 l 1
 44.4541015625 18 l 1
66.4541015625 18 m 1
 68.4541015625 16 l 1
 66.4541015625 18 l 1
88.4541015625 18 m 1
 90.4541015625 16 l 1
 88.4541015625 18 l 1
176.454101562 16 m 1
 178.454101562 14 l 1
 176.454101562 16 l 1
192.454101562 16 m 1
 194.454101562 14 l 1
 192.454101562 16 l 1
214.454101562 16 m 1
 216.454101562 14 l 1
 214.454101562 16 l 1
292.454101562 16 m 1
 294.454101562 14 l 1
 292.454101562 16 l 1
226.454101562 14 m 1
 228.454101562 12 l 1
 226.454101562 14 l 1
240.454101562 10 m 1
 242.454101562 8 l 1
 240.454101562 10 l 1
286.454101562 10 m 1
 288.454101562 8 l 1
 286.454101562 10 l 1
306.454101562 10 m 1
 308.454101562 8 l 1
 306.454101562 10 l 1
60.4541015625 8 m 1
 62.4541015625 6 l 1
 60.4541015625 8 l 1
82.4541015625 8 m 1
 84.4541015625 6 l 1
 82.4541015625 8 l 1
118.454101562 8 m 1
 120.454101562 6 l 1
 118.454101562 8 l 1
150.454101562 8 m 1
 152.454101562 6 l 1
 150.454101562 8 l 1
274.454101562 8 m 1
 276.454101562 6 l 1
 274.454101562 8 l 1
114.454101562 6 m 1
 116.454101562 4 l 1
 114.454101562 6 l 1
146.454101562 6 m 1
 148.454101562 4 l 1
 146.454101562 6 l 1
270.454101562 6 m 1
 272.454101562 4 l 1
 270.454101562 6 l 1
142.454101562 4 m 1
 144.454101562 2 l 1
 142.454101562 4 l 1
170.454101562 4 m 1
 172.454101562 2 l 1
 170.454101562 4 l 1
266.454101562 4 m 1
 268.454101562 2 l 1
 266.454101562 4 l 1
166.454101562 2 m 1
 168.454101562 0 l 1
 166.454101562 2 l 1
188.454101562 2 m 1
 190.454101562 0 l 1
 188.454101562 2 l 1
208.454101562 2 m 1
 210.454101562 0 l 1
 208.454101562 2 l 1
256.454101562 2 m 1
 258.454101562 0 l 1
 256.454101562 2 l 1
54.4541015625 0 m 1
 56.4541015625 -2 l 1
 54.4541015625 0 l 1
106.454101562 0 m 1
 108.454101562 -2 l 1
 106.454101562 0 l 1
136.454101562 0 m 1
 138.454101562 -2 l 1
 136.454101562 0 l 1
76.4541015625 -2 m 1
 78.4541015625 -4 l 1
 76.4541015625 -2 l 1
102.454101562 -2 m 1
 104.454101562 -4 l 1
 102.454101562 -2 l 1
202.454101562 -4 m 1
 204.454101562 -6 l 1
 202.454101562 -4 l 1
222.454101562 -4 m 1
 224.454101562 -6 l 1
 222.454101562 -4 l 1
234.454101562 -4 m 1
 236.454101562 -6 l 1
 234.454101562 -4 l 1
96.4541015625 -8 m 1
 98.4541015625 -10 l 1
 96.4541015625 -8 l 1
248.454101562 -8 m 1
 250.454101562 -10 l 1
 248.454101562 -8 l 1
EndSplineSet
EndChar

